<svg width="300" height="240" viewBox="0 0 300 240" fill="none" xmlns="http://www.w3.org/2000/svg">
<g clip-path="url(#clip0)">
<path d="M142.513 165.206C132.345 170.921 130.222 176.179 127.702 186.284H179.541C178.675 176.509 176.05 171.732 165.3 165.206C165.417 123.789 169.105 78.7647 165.3 60.958L127.702 36.4625C127.702 36.4625 110.345 60.0281 109.473 60.958C108.6 61.888 143.956 81.1056 142.513 81.4659C141.07 81.8262 142.513 165.206 142.513 165.206Z" fill="#9B9999" stroke="#575757"/>
<circle cx="147.943" cy="160.858" r="1.13933" fill="#C4C4C4"/>
<circle cx="147.943" cy="107.31" r="1.13933" fill="#C4C4C4"/>
<circle cx="158.197" cy="85.6628" r="1.13933" fill="#C4C4C4"/>
<circle cx="155.918" cy="67.4336" r="1.13933" fill="#C4C4C4"/>
<circle cx="162.754" cy="124.4" r="1.13933" fill="#C4C4C4"/>
<line x1="146.164" y1="113.007" x2="146.164" y2="156.301" stroke="#C4C4C4"/>
<line x1="148.443" y1="118.703" x2="148.443" y2="151.744" stroke="#C4C4C4"/>
<line x1="166.172" y1="121.482" x2="154.779" y2="121.482" stroke="black"/>
<line x1="155.279" y1="120.982" x2="155.279" y2="150.604" stroke="black"/>
<line x1="155.918" y1="150.104" x2="165.033" y2="150.104" stroke="black"/>
<line x1="158.697" y1="125.539" x2="158.697" y2="144.908" stroke="black"/>
<line x1="121.985" y1="60.1624" x2="148.189" y2="74.9737" stroke="#C4C4C4"/>
<line x1="132.25" y1="60.169" x2="155.036" y2="73.8409" stroke="#C4C4C4"/>
<line x1="129.973" y1="45.3591" x2="161.875" y2="64.7276" stroke="black"/>
<line x1="152.975" y1="91.2014" x2="160.95" y2="115.127" stroke="black"/>
<path d="M144.945 169.219C136.506 172.171 134.198 175.458 132.413 182.891" stroke="black"/>
<path d="M173.59 184.054C171.008 175.495 167.823 173.046 160.476 170.939" stroke="black"/>
<path d="M95.2309 50.8453C102.036 50.4792 104.996 54.7352 109.472 60.958L127.702 36.4625C102.356 19.117 87.5675 18.0663 62.1905 36.0341L79.85 60.5296C84.5991 53.8208 87.6371 50.9336 95.2309 50.8453Z" fill="#3E3D3D" stroke="black"/>
<path d="M64.529 74.2697C67.1109 69.3521 79.3402 61.7371 79.3402 61.7371L61.6807 36.6719C61.6807 36.6719 44.5908 71.212 44.5908 74.2697C44.5908 77.3274 49.1481 108.449 49.1481 108.449L44.5908 119.843C41.3287 136.526 47.2228 149.009 52.257 152.883C55.1053 152.883 53.966 152.883 55.675 152.313C56.8947 144.298 55.1901 130.436 59.402 126.109C68.5484 129.882 73.5823 133.015 82.1886 142.629C82.4169 139.424 82.5255 137.596 82.1886 133.515C77.8428 120.298 73.2773 116.678 64.529 111.298C64.529 111.298 61.9471 79.1873 64.529 74.2697Z" fill="#9B9999" stroke="#575757"/>
<line x1="47.6254" y1="75.3406" x2="52.1827" y2="108.381" stroke="#C4C4C4"/>
<line x1="71.4463" y1="60.9101" x2="62.3317" y2="72.3033" stroke="black"/>
<line x1="62.3885" y1="46.0101" x2="50.9952" y2="68.7966" stroke="#C4C4C4"/>
<line x1="59.0056" y1="95.7853" x2="62.4236" y2="108.318" stroke="black"/>
<path d="M66.968 114.963C73.7031 121.098 76.6935 124.957 79.5006 133.192" stroke="black"/>
<path d="M49.9686 115.39C46.1359 121.749 45.9819 125.921 46.5507 133.62" stroke="#C4C4C4"/>
<circle cx="59.6028" cy="81.1056" r="1.13933" fill="#C4C4C4"/>
<circle cx="59.6028" cy="70.8517" r="1.13933" fill="#C4C4C4"/>
<circle cx="55.0455" cy="113.007" r="1.13933" fill="#C4C4C4"/>
<path d="M250.141 151.054C255.664 151.076 262.396 154.962 265.177 159.734L295.935 212.514L33.9032 211.449L3.1443 158.669C0.363456 153.898 2.58624 150.048 8.10905 150.07L250.141 151.054Z" fill="#C4C4C4"/>
<rect width="19.8386" height="262.034" rx="9.91928" transform="matrix(0.503516 0.863986 -0.999992 -0.0040643 290.941 203.943)" fill="#8D8D8D"/>
<g filter="url(#filter0_d)">
<line y1="-0.5" x2="45.4634" y2="-0.5" transform="matrix(0.503516 0.863986 -0.999992 -0.0040643 249.841 158.89)" stroke="#8D8D8D"/>
<line y1="-0.5" x2="45.4634" y2="-0.5" transform="matrix(0.503516 0.863986 -0.999992 -0.00406432 233.309 158.823)" stroke="#8D8D8D"/>
<line y1="-0.5" x2="45.4634" y2="-0.5" transform="matrix(0.503516 0.863986 -0.999992 -0.00406432 216.777 158.755)" stroke="#8D8D8D"/>
<line y1="-0.5" x2="45.4634" y2="-0.5" transform="matrix(0.503516 0.863986 -0.999992 -0.00406432 200.245 158.688)" stroke="#8D8D8D"/>
<line y1="-0.5" x2="45.4634" y2="-0.5" transform="matrix(0.503516 0.863986 -0.999992 -0.00406432 183.713 158.621)" stroke="#8D8D8D"/>
<line y1="-0.5" x2="45.4634" y2="-0.5" transform="matrix(0.503516 0.863986 -0.999992 -0.00406432 167.181 158.554)" stroke="#8D8D8D"/>
<line y1="-0.5" x2="45.4634" y2="-0.5" transform="matrix(0.503516 0.863986 -0.999992 -0.00406432 150.649 158.487)" stroke="#8D8D8D"/>
<line y1="-0.5" x2="45.4634" y2="-0.5" transform="matrix(0.503516 0.863986 -0.999992 -0.00406432 134.117 158.419)" stroke="#8D8D8D"/>
<line y1="-0.5" x2="45.4634" y2="-0.5" transform="matrix(0.503516 0.863986 -0.999992 -0.00406432 117.585 158.352)" stroke="#8D8D8D"/>
<line y1="-0.5" x2="45.4634" y2="-0.5" transform="matrix(0.503516 0.863986 -0.999992 -0.00406432 101.053 158.285)" stroke="#8D8D8D"/>
<line y1="-0.5" x2="45.4634" y2="-0.5" transform="matrix(0.503516 0.863986 -0.999992 -0.00406432 84.5209 158.218)" stroke="#8D8D8D"/>
<line y1="-0.5" x2="45.4634" y2="-0.5" transform="matrix(0.503516 0.863986 -0.999992 -0.00406432 67.9889 158.151)" stroke="#8D8D8D"/>
<line y1="-0.5" x2="45.4634" y2="-0.5" transform="matrix(0.503516 0.863986 -0.999992 -0.00406432 51.4569 158.083)" stroke="#8D8D8D"/>
<line y1="-0.5" x2="45.4634" y2="-0.5" transform="matrix(0.503516 0.863986 -0.999992 -0.00406432 34.9249 158.016)" stroke="#8D8D8D"/>
<line y1="-0.5" x2="45.4634" y2="-0.5" transform="matrix(0.503516 0.863986 -0.999992 -0.00406432 18.3929 157.949)" stroke="#8D8D8D"/>
</g>
<ellipse rx="6.61286" ry="7.43946" transform="matrix(0.503516 0.863986 -0.999992 -0.00406432 44.6491 211.492)" fill="#939393"/>
<ellipse rx="6.61286" ry="7.43946" transform="matrix(0.503516 0.863986 -0.999992 -0.00406432 63.6609 211.569)" fill="#939393"/>
<ellipse rx="6.61286" ry="7.43946" transform="matrix(0.503516 0.863986 -0.999992 -0.00406432 82.6727 211.647)" fill="#939393"/>
<ellipse rx="6.61286" ry="7.43946" transform="matrix(0.503516 0.863986 -0.999992 -0.00406432 101.684 211.724)" fill="#939393"/>
<ellipse rx="6.61286" ry="7.43946" transform="matrix(0.503516 0.863986 -0.999992 -0.00406432 120.696 211.801)" fill="#939393"/>
<ellipse rx="6.61286" ry="7.43946" transform="matrix(0.503516 0.863986 -0.999992 -0.00406432 139.708 211.879)" fill="#939393"/>
<ellipse rx="6.61286" ry="7.43946" transform="matrix(0.503516 0.863986 -0.999992 -0.00406432 158.72 211.956)" fill="#939393"/>
<ellipse rx="6.61286" ry="7.43946" transform="matrix(0.503516 0.863986 -0.999992 -0.00406432 177.732 212.033)" fill="#939393"/>
<ellipse rx="6.61286" ry="7.43946" transform="matrix(0.503516 0.863986 -0.999992 -0.00406432 196.744 212.11)" fill="#939393"/>
<ellipse rx="6.61286" ry="7.43946" transform="matrix(0.503516 0.863986 -0.999992 -0.00406432 215.755 212.188)" fill="#939393"/>
<ellipse rx="6.61286" ry="7.43946" transform="matrix(0.503516 0.863986 -0.999992 -0.00406432 234.767 212.265)" fill="#939393"/>
<ellipse rx="6.61286" ry="7.43946" transform="matrix(0.503516 0.863986 -0.999992 -0.00406432 253.779 212.342)" fill="#939393"/>
<ellipse rx="6.61286" ry="7.43946" transform="matrix(0.503516 0.863986 -0.999992 -0.0040643 272.791 212.42)" fill="#939393"/>
<rect x="43.5947" y="129.513" width="54.7955" height="54.7955" rx="0.5" fill="#C4C4C4" stroke="#898989"/>
<rect x="47.0801" y="132.998" width="47.8247" height="47.8247" rx="1" fill="#A47BEA"/>
<ellipse cx="45.8845" cy="182.018" rx="1.19562" ry="1.19562" fill="#8A8A8A"/>
<ellipse cx="49.8699" cy="131.802" rx="1.19562" ry="1.19562" fill="#8A8A8A"/>
<circle cx="96.1005" cy="182.018" r="1.19562" fill="#8A8A8A"/>
<ellipse cx="96.8975" cy="148.541" rx="1.19562" ry="1.19562" fill="#8A8A8A"/>
<line x1="45.1889" y1="164.084" x2="45.1889" y2="177.635" stroke="#898989"/>
<line x1="45.986" y1="130.607" x2="45.986" y2="161.693" stroke="#898989"/>
<line x1="83.7457" y1="131.107" x2="52.6596" y2="131.107" stroke="#898989"/>
<line x1="86.137" y1="182.917" x2="55.0509" y2="182.917" stroke="#898989"/>
<line x1="96.7961" y1="179.229" x2="96.7961" y2="148.143" stroke="#898989"/>
<line x1="95.999" y1="140.172" x2="95.999" y2="130.607" stroke="#898989"/>
<rect x="-0.188995" y="0.4826" width="30.4394" height="52.242" rx="0.5" transform="matrix(0.607325 0.794453 -0.985315 0.170747 169.062 163.687)" fill="#C4C4C4" stroke="#898989"/>
<rect width="26.9481" height="45.636" rx="1" transform="matrix(0.607325 0.794453 -0.985315 0.170747 166.277 165.57)" fill="#61DAFB"/>
<ellipse rx="0.673702" ry="1.1409" transform="matrix(0.607325 0.794453 -0.985315 0.170747 119.778 173.022)" fill="#8A8A8A"/>
<ellipse rx="0.673702" ry="1.1409" transform="matrix(0.607325 0.794453 -0.985315 0.170747 168.356 166.625)" fill="#8A8A8A"/>
<ellipse rx="0.673699" ry="1.1409" transform="matrix(0.607325 0.794453 -0.985315 0.170747 136.962 195.502)" fill="#8A8A8A"/>
<ellipse rx="0.673701" ry="1.1409" transform="matrix(0.607325 0.794453 -0.985315 0.170747 168.711 190.404)" fill="#8A8A8A"/>
<line y1="-0.5" x2="12.9302" y2="-0.5" transform="matrix(-0.985315 0.170747 -0.607325 -0.794453 136.231 169.565)" stroke="#898989"/>
<line y1="-0.5" x2="29.6634" y2="-0.5" transform="matrix(-0.985315 0.170747 -0.607325 -0.794453 167.98 164.467)" stroke="#898989"/>
<line y1="-0.5" x2="17.5162" y2="-0.5" transform="matrix(-0.607325 -0.794454 0.985315 -0.170747 181.073 181.594)" stroke="#898989"/>
<line y1="-0.5" x2="17.5162" y2="-0.5" transform="matrix(-0.607325 -0.794454 0.985315 -0.170747 133.178 191.107)" stroke="#898989"/>
<line y1="-0.5" x2="29.6634" y2="-0.5" transform="matrix(0.985315 -0.170747 0.607325 0.794453 139.994 195.582)" stroke="#898989"/>
<line y1="-0.5" x2="9.12721" y2="-0.5" transform="matrix(0.985315 -0.170747 0.607325 0.794453 176.444 188.862)" stroke="#898989"/>
<rect x="-0.188995" y="0.4826" width="30.4394" height="52.242" rx="0.5" transform="matrix(0.607325 0.794453 -0.985315 0.170747 246.536 161.409)" fill="#C4C4C4" stroke="#898989"/>
<rect width="26.9481" height="45.636" rx="1" transform="matrix(0.607325 0.794453 -0.985315 0.170747 243.751 163.292)" fill="#61C7A6"/>
<ellipse rx="0.673702" ry="1.1409" transform="matrix(0.607325 0.794453 -0.985315 0.170747 197.252 170.744)" fill="#8A8A8A"/>
<ellipse rx="0.673702" ry="1.1409" transform="matrix(0.607325 0.794453 -0.985315 0.170747 245.83 164.346)" fill="#8A8A8A"/>
<ellipse rx="0.673699" ry="1.1409" transform="matrix(0.607325 0.794453 -0.985315 0.170747 214.436 193.223)" fill="#8A8A8A"/>
<ellipse rx="0.673701" ry="1.1409" transform="matrix(0.607325 0.794453 -0.985315 0.170747 246.185 188.125)" fill="#8A8A8A"/>
<line y1="-0.5" x2="12.9302" y2="-0.5" transform="matrix(-0.985315 0.170747 -0.607325 -0.794453 213.705 167.286)" stroke="#898989"/>
<line y1="-0.5" x2="29.6634" y2="-0.5" transform="matrix(-0.985315 0.170747 -0.607325 -0.794453 245.454 162.189)" stroke="#898989"/>
<line y1="-0.5" x2="17.5162" y2="-0.5" transform="matrix(-0.607325 -0.794454 0.985315 -0.170747 258.547 179.316)" stroke="#898989"/>
<line y1="-0.5" x2="17.5162" y2="-0.5" transform="matrix(-0.607325 -0.794454 0.985315 -0.170747 210.652 188.828)" stroke="#898989"/>
<line y1="-0.5" x2="29.6634" y2="-0.5" transform="matrix(0.985315 -0.170747 0.607325 0.794453 217.469 193.304)" stroke="#898989"/>
<line y1="-0.5" x2="9.12721" y2="-0.5" transform="matrix(0.985315 -0.170747 0.607325 0.794453 253.918 186.583)" stroke="#898989"/>
<path d="M44.0185 122.192C40.8084 137.844 46.6085 149.555 51.5624 153.19C54.3653 153.19 53.2442 153.19 54.9259 152.655C56.1262 145.135 54.4488 132.13 58.5935 128.071L44.0185 122.192Z" fill="#9B9999" stroke="#575757"/>
</g>
<defs>
<filter id="filter0_d" x="14.3929" y="157.949" width="263.34" height="48.225" filterUnits="userSpaceOnUse" color-interpolation-filters="sRGB">
<feFlood flood-opacity="0" result="BackgroundImageFix"/>
<feColorMatrix in="SourceAlpha" type="matrix" values="0 0 0 0 0 0 0 0 0 0 0 0 0 0 0 0 0 0 127 0"/>
<feOffset dy="4"/>
<feGaussianBlur stdDeviation="2"/>
<feColorMatrix type="matrix" values="0 0 0 0 0 0 0 0 0 0 0 0 0 0 0 0 0 0 0.25 0"/>
<feBlend mode="normal" in2="BackgroundImageFix" result="effect1_dropShadow"/>
<feBlend mode="normal" in="SourceGraphic" in2="effect1_dropShadow" result="shape"/>
</filter>
<clipPath id="clip0">
<rect width="300" height="240" fill="white"/>
</clipPath>
</defs>
</svg>
