<svg width="586" height="144" viewBox="0 0 586 144" fill="none" xmlns="http://www.w3.org/2000/svg">
<path d="M553.978 87C553.978 89.7614 551.74 92 548.978 92L417 92L417 44L553.978 44L553.978 87Z" fill="#9B4CEA"/>
<path d="M169.978 92L33 92L33 49C33 46.2386 35.2386 44 38 44L169.978 44L169.978 92Z" fill="#4C6EEA"/>
<rect x="170" y="44" width="247" height="48" fill="#C4C4C4"/>
<path d="M429.722 33.7588L433.378 23.2031H435.224L430.478 36H428.983L424.246 23.2031H426.083L429.722 33.7588ZM440.251 36.1758C438.962 36.1758 437.913 35.7539 437.104 34.9102C436.296 34.0605 435.892 32.9268 435.892 31.5088V31.21C435.892 30.2666 436.07 29.4258 436.428 28.6875C436.791 27.9434 437.295 27.3633 437.939 26.9473C438.59 26.5254 439.293 26.3145 440.049 26.3145C441.285 26.3145 442.246 26.7217 442.932 27.5361C443.617 28.3506 443.96 29.5166 443.96 31.0342V31.7109H437.518C437.541 32.6484 437.813 33.4072 438.335 33.9873C438.862 34.5615 439.53 34.8486 440.339 34.8486C440.913 34.8486 441.399 34.7314 441.798 34.4971C442.196 34.2627 442.545 33.9521 442.844 33.5654L443.837 34.3389C443.04 35.5635 441.845 36.1758 440.251 36.1758ZM440.049 27.6504C439.393 27.6504 438.842 27.8906 438.396 28.3711C437.951 28.8457 437.676 29.5137 437.57 30.375H442.334V30.252C442.287 29.4258 442.064 28.7871 441.666 28.3359C441.268 27.8789 440.729 27.6504 440.049 27.6504ZM450.446 27.9492C450.2 27.9082 449.934 27.8877 449.646 27.8877C448.58 27.8877 447.856 28.3418 447.476 29.25V36H445.85V26.4902H447.432L447.458 27.5889C447.991 26.7393 448.747 26.3145 449.726 26.3145C450.042 26.3145 450.282 26.3555 450.446 26.4375V27.9492ZM455.219 33.6182L457.434 26.4902H459.174L455.351 37.4678C454.759 39.0498 453.818 39.8408 452.529 39.8408L452.222 39.8145L451.615 39.7002V38.3818L452.055 38.417C452.605 38.417 453.033 38.3057 453.338 38.083C453.648 37.8604 453.903 37.4531 454.103 36.8613L454.463 35.8945L451.07 26.4902H452.846L455.219 33.6182ZM469.123 30.2959C467.676 29.8799 466.621 29.3701 465.959 28.7666C465.303 28.1572 464.975 27.4072 464.975 26.5166C464.975 25.5088 465.376 24.6768 466.179 24.0205C466.987 23.3584 468.036 23.0273 469.325 23.0273C470.204 23.0273 470.986 23.1973 471.672 23.5371C472.363 23.877 472.896 24.3457 473.271 24.9434C473.652 25.541 473.843 26.1943 473.843 26.9033H472.146C472.146 26.1299 471.9 25.5234 471.408 25.084C470.916 24.6387 470.222 24.416 469.325 24.416C468.493 24.416 467.843 24.6006 467.374 24.9697C466.911 25.333 466.68 25.8398 466.68 26.4902C466.68 27.0117 466.899 27.4541 467.339 27.8174C467.784 28.1748 468.537 28.5029 469.598 28.8018C470.664 29.1006 471.496 29.4316 472.094 29.7949C472.697 30.1523 473.143 30.5713 473.43 31.0518C473.723 31.5322 473.869 32.0977 473.869 32.748C473.869 33.7852 473.465 34.6172 472.656 35.2441C471.848 35.8652 470.767 36.1758 469.413 36.1758C468.534 36.1758 467.714 36.0088 466.952 35.6748C466.19 35.335 465.602 34.8721 465.186 34.2861C464.775 33.7002 464.57 33.0352 464.57 32.291H466.267C466.267 33.0645 466.551 33.6768 467.119 34.1279C467.693 34.5732 468.458 34.7959 469.413 34.7959C470.304 34.7959 470.986 34.6143 471.461 34.251C471.936 33.8877 472.173 33.3926 472.173 32.7656C472.173 32.1387 471.953 31.6553 471.514 31.3154C471.074 30.9697 470.277 30.6299 469.123 30.2959ZM479.731 36.1758C478.442 36.1758 477.394 35.7539 476.585 34.9102C475.776 34.0605 475.372 32.9268 475.372 31.5088V31.21C475.372 30.2666 475.551 29.4258 475.908 28.6875C476.271 27.9434 476.775 27.3633 477.42 26.9473C478.07 26.5254 478.773 26.3145 479.529 26.3145C480.766 26.3145 481.727 26.7217 482.412 27.5361C483.098 28.3506 483.44 29.5166 483.44 31.0342V31.7109H476.998C477.021 32.6484 477.294 33.4072 477.815 33.9873C478.343 34.5615 479.011 34.8486 479.819 34.8486C480.394 34.8486 480.88 34.7314 481.278 34.4971C481.677 34.2627 482.025 33.9521 482.324 33.5654L483.317 34.3389C482.521 35.5635 481.325 36.1758 479.731 36.1758ZM479.529 27.6504C478.873 27.6504 478.322 27.8906 477.877 28.3711C477.432 28.8457 477.156 29.5137 477.051 30.375H481.814V30.252C481.768 29.4258 481.545 28.7871 481.146 28.3359C480.748 27.8789 480.209 27.6504 479.529 27.6504ZM493.363 31.3506C493.363 32.7979 493.032 33.9639 492.37 34.8486C491.708 35.7334 490.812 36.1758 489.681 36.1758C488.526 36.1758 487.618 35.8096 486.956 35.0771V39.6562H485.33V26.4902H486.815L486.895 27.5449C487.557 26.7246 488.477 26.3145 489.654 26.3145C490.797 26.3145 491.699 26.7451 492.361 27.6064C493.029 28.4678 493.363 29.666 493.363 31.2012V31.3506ZM491.737 31.166C491.737 30.0938 491.509 29.2471 491.052 28.626C490.595 28.0049 489.968 27.6943 489.171 27.6943C488.187 27.6943 487.448 28.1309 486.956 29.0039V33.5479C487.442 34.415 488.187 34.8486 489.188 34.8486C489.968 34.8486 490.586 34.541 491.043 33.9258C491.506 33.3047 491.737 32.3848 491.737 31.166ZM499.384 36.1758C498.095 36.1758 497.046 35.7539 496.237 34.9102C495.429 34.0605 495.024 32.9268 495.024 31.5088V31.21C495.024 30.2666 495.203 29.4258 495.561 28.6875C495.924 27.9434 496.428 27.3633 497.072 26.9473C497.723 26.5254 498.426 26.3145 499.182 26.3145C500.418 26.3145 501.379 26.7217 502.064 27.5361C502.75 28.3506 503.093 29.5166 503.093 31.0342V31.7109H496.65C496.674 32.6484 496.946 33.4072 497.468 33.9873C497.995 34.5615 498.663 34.8486 499.472 34.8486C500.046 34.8486 500.532 34.7314 500.931 34.4971C501.329 34.2627 501.678 33.9521 501.977 33.5654L502.97 34.3389C502.173 35.5635 500.978 36.1758 499.384 36.1758ZM499.182 27.6504C498.525 27.6504 497.975 27.8906 497.529 28.3711C497.084 28.8457 496.809 29.5137 496.703 30.375H501.467V30.252C501.42 29.4258 501.197 28.7871 500.799 28.3359C500.4 27.8789 499.861 27.6504 499.182 27.6504ZM509.579 27.9492C509.333 27.9082 509.066 27.8877 508.779 27.8877C507.713 27.8877 506.989 28.3418 506.608 29.25V36H504.982V26.4902H506.564L506.591 27.5889C507.124 26.7393 507.88 26.3145 508.858 26.3145C509.175 26.3145 509.415 26.3555 509.579 26.4375V27.9492ZM516.602 36C516.508 35.8125 516.432 35.4785 516.373 34.998C515.617 35.7832 514.715 36.1758 513.666 36.1758C512.729 36.1758 511.958 35.9121 511.354 35.3848C510.757 34.8516 510.458 34.1777 510.458 33.3633C510.458 32.373 510.833 31.6055 511.583 31.0605C512.339 30.5098 513.399 30.2344 514.765 30.2344H516.347V29.4873C516.347 28.9189 516.177 28.4678 515.837 28.1338C515.497 27.7939 514.996 27.624 514.334 27.624C513.754 27.624 513.268 27.7705 512.875 28.0635C512.482 28.3564 512.286 28.7109 512.286 29.127H510.651C510.651 28.6523 510.818 28.1953 511.152 27.7559C511.492 27.3105 511.949 26.959 512.523 26.7012C513.104 26.4434 513.739 26.3145 514.431 26.3145C515.526 26.3145 516.385 26.5898 517.006 27.1406C517.627 27.6855 517.949 28.4385 517.973 29.3994V33.7764C517.973 34.6494 518.084 35.3438 518.307 35.8594V36H516.602ZM513.903 34.7607C514.413 34.7607 514.896 34.6289 515.354 34.3652C515.811 34.1016 516.142 33.7588 516.347 33.3369V31.3857H515.072C513.08 31.3857 512.084 31.9688 512.084 33.1348C512.084 33.6445 512.254 34.043 512.594 34.3301C512.934 34.6172 513.37 34.7607 513.903 34.7607ZM522.728 24.1875V26.4902H524.503V27.7471H522.728V33.6445C522.728 34.0254 522.807 34.3125 522.965 34.5059C523.123 34.6934 523.393 34.7871 523.773 34.7871C523.961 34.7871 524.219 34.752 524.547 34.6816V36C524.119 36.1172 523.703 36.1758 523.299 36.1758C522.572 36.1758 522.024 35.9561 521.655 35.5166C521.286 35.0771 521.102 34.4531 521.102 33.6445V27.7471H519.37V26.4902H521.102V24.1875H522.728ZM530.356 36.1758C529.067 36.1758 528.019 35.7539 527.21 34.9102C526.401 34.0605 525.997 32.9268 525.997 31.5088V31.21C525.997 30.2666 526.176 29.4258 526.533 28.6875C526.896 27.9434 527.4 27.3633 528.045 26.9473C528.695 26.5254 529.398 26.3145 530.154 26.3145C531.391 26.3145 532.352 26.7217 533.037 27.5361C533.723 28.3506 534.065 29.5166 534.065 31.0342V31.7109H527.623C527.646 32.6484 527.919 33.4072 528.44 33.9873C528.968 34.5615 529.636 34.8486 530.444 34.8486C531.019 34.8486 531.505 34.7314 531.903 34.4971C532.302 34.2627 532.65 33.9521 532.949 33.5654L533.942 34.3389C533.146 35.5635 531.95 36.1758 530.356 36.1758ZM530.154 27.6504C529.498 27.6504 528.947 27.8906 528.502 28.3711C528.057 28.8457 527.781 29.5137 527.676 30.375H532.439V30.252C532.393 29.4258 532.17 28.7871 531.771 28.3359C531.373 27.8789 530.834 27.6504 530.154 27.6504ZM535.56 31.166C535.56 29.707 535.905 28.5352 536.597 27.6504C537.288 26.7598 538.193 26.3145 539.312 26.3145C540.426 26.3145 541.308 26.6953 541.958 27.457V22.5H543.584V36H542.09L542.011 34.9805C541.36 35.7773 540.455 36.1758 539.295 36.1758C538.193 36.1758 537.294 35.7246 536.597 34.8223C535.905 33.9199 535.56 32.7422 535.56 31.2891V31.166ZM537.186 31.3506C537.186 32.4287 537.408 33.2725 537.854 33.8818C538.299 34.4912 538.914 34.7959 539.699 34.7959C540.73 34.7959 541.483 34.333 541.958 33.4072V29.0391C541.472 28.1426 540.725 27.6943 539.717 27.6943C538.92 27.6943 538.299 28.002 537.854 28.6172C537.408 29.2324 537.186 30.1436 537.186 31.3506Z" fill="black"/>
<path d="M51.3203 36H49.624L43.1816 26.1387V36H41.4854V23.2031H43.1816L49.6416 33.1084V23.2031H51.3203V36ZM53.6318 31.1572C53.6318 30.2256 53.8135 29.3877 54.1768 28.6436C54.5459 27.8994 55.0557 27.3252 55.7061 26.9209C56.3623 26.5166 57.1094 26.3145 57.9473 26.3145C59.2422 26.3145 60.2881 26.7627 61.085 27.6592C61.8877 28.5557 62.2891 29.748 62.2891 31.2363V31.3506C62.2891 32.2764 62.1104 33.1084 61.7529 33.8467C61.4014 34.5791 60.8945 35.1504 60.2324 35.5605C59.5762 35.9707 58.8203 36.1758 57.9648 36.1758C56.6758 36.1758 55.6299 35.7275 54.8271 34.8311C54.0303 33.9346 53.6318 32.748 53.6318 31.2715V31.1572ZM55.2666 31.3506C55.2666 32.4053 55.5098 33.252 55.9961 33.8906C56.4883 34.5293 57.1445 34.8486 57.9648 34.8486C58.791 34.8486 59.4473 34.5264 59.9336 33.8818C60.4199 33.2314 60.6631 32.3232 60.6631 31.1572C60.6631 30.1143 60.4141 29.2705 59.916 28.626C59.4238 27.9756 58.7676 27.6504 57.9473 27.6504C57.1445 27.6504 56.4971 27.9697 56.0049 28.6084C55.5127 29.2471 55.2666 30.1611 55.2666 31.3506ZM66.5342 24.1875V26.4902H68.3096V27.7471H66.5342V33.6445C66.5342 34.0254 66.6133 34.3125 66.7715 34.5059C66.9297 34.6934 67.1992 34.7871 67.5801 34.7871C67.7676 34.7871 68.0254 34.752 68.3535 34.6816V36C67.9258 36.1172 67.5098 36.1758 67.1055 36.1758C66.3789 36.1758 65.8311 35.9561 65.4619 35.5166C65.0928 35.0771 64.9082 34.4531 64.9082 33.6445V27.7471H63.1768V26.4902H64.9082V24.1875H66.5342ZM78.707 30.2959C77.2598 29.8799 76.2051 29.3701 75.543 28.7666C74.8867 28.1572 74.5586 27.4072 74.5586 26.5166C74.5586 25.5088 74.96 24.6768 75.7627 24.0205C76.5713 23.3584 77.6201 23.0273 78.9092 23.0273C79.7881 23.0273 80.5703 23.1973 81.2559 23.5371C81.9473 23.877 82.4805 24.3457 82.8555 24.9434C83.2363 25.541 83.4268 26.1943 83.4268 26.9033H81.7305C81.7305 26.1299 81.4844 25.5234 80.9922 25.084C80.5 24.6387 79.8057 24.416 78.9092 24.416C78.0771 24.416 77.4268 24.6006 76.958 24.9697C76.4951 25.333 76.2637 25.8398 76.2637 26.4902C76.2637 27.0117 76.4834 27.4541 76.9229 27.8174C77.3682 28.1748 78.1211 28.5029 79.1816 28.8018C80.248 29.1006 81.0801 29.4316 81.6777 29.7949C82.2812 30.1523 82.7266 30.5713 83.0137 31.0518C83.3066 31.5322 83.4531 32.0977 83.4531 32.748C83.4531 33.7852 83.0488 34.6172 82.2402 35.2441C81.4316 35.8652 80.3506 36.1758 78.9971 36.1758C78.1182 36.1758 77.2979 36.0088 76.5361 35.6748C75.7744 35.335 75.1855 34.8721 74.7695 34.2861C74.3594 33.7002 74.1543 33.0352 74.1543 32.291H75.8506C75.8506 33.0645 76.1348 33.6768 76.7031 34.1279C77.2773 34.5732 78.042 34.7959 78.9971 34.7959C79.8877 34.7959 80.5703 34.6143 81.0449 34.251C81.5195 33.8877 81.7568 33.3926 81.7568 32.7656C81.7568 32.1387 81.5371 31.6553 81.0977 31.3154C80.6582 30.9697 79.8613 30.6299 78.707 30.2959ZM89.3154 36.1758C88.0264 36.1758 86.9775 35.7539 86.1689 34.9102C85.3604 34.0605 84.9561 32.9268 84.9561 31.5088V31.21C84.9561 30.2666 85.1348 29.4258 85.4922 28.6875C85.8555 27.9434 86.3594 27.3633 87.0039 26.9473C87.6543 26.5254 88.3574 26.3145 89.1133 26.3145C90.3496 26.3145 91.3105 26.7217 91.9961 27.5361C92.6816 28.3506 93.0244 29.5166 93.0244 31.0342V31.7109H86.582C86.6055 32.6484 86.8779 33.4072 87.3994 33.9873C87.9268 34.5615 88.5947 34.8486 89.4033 34.8486C89.9775 34.8486 90.4639 34.7314 90.8623 34.4971C91.2607 34.2627 91.6094 33.9521 91.9082 33.5654L92.9014 34.3389C92.1045 35.5635 90.9092 36.1758 89.3154 36.1758ZM89.1133 27.6504C88.457 27.6504 87.9062 27.8906 87.4609 28.3711C87.0156 28.8457 86.7402 29.5137 86.6348 30.375H91.3984V30.252C91.3516 29.4258 91.1289 28.7871 90.7305 28.3359C90.332 27.8789 89.793 27.6504 89.1133 27.6504ZM102.947 31.3506C102.947 32.7979 102.616 33.9639 101.954 34.8486C101.292 35.7334 100.396 36.1758 99.2646 36.1758C98.1104 36.1758 97.2021 35.8096 96.54 35.0771V39.6562H94.9141V26.4902H96.3994L96.4785 27.5449C97.1406 26.7246 98.0605 26.3145 99.2383 26.3145C100.381 26.3145 101.283 26.7451 101.945 27.6064C102.613 28.4678 102.947 29.666 102.947 31.2012V31.3506ZM101.321 31.166C101.321 30.0938 101.093 29.2471 100.636 28.626C100.179 28.0049 99.5518 27.6943 98.7549 27.6943C97.7705 27.6943 97.0322 28.1309 96.54 29.0039V33.5479C97.0264 34.415 97.7705 34.8486 98.7725 34.8486C99.5518 34.8486 100.17 34.541 100.627 33.9258C101.09 33.3047 101.321 32.3848 101.321 31.166ZM108.968 36.1758C107.679 36.1758 106.63 35.7539 105.821 34.9102C105.013 34.0605 104.608 32.9268 104.608 31.5088V31.21C104.608 30.2666 104.787 29.4258 105.145 28.6875C105.508 27.9434 106.012 27.3633 106.656 26.9473C107.307 26.5254 108.01 26.3145 108.766 26.3145C110.002 26.3145 110.963 26.7217 111.648 27.5361C112.334 28.3506 112.677 29.5166 112.677 31.0342V31.7109H106.234C106.258 32.6484 106.53 33.4072 107.052 33.9873C107.579 34.5615 108.247 34.8486 109.056 34.8486C109.63 34.8486 110.116 34.7314 110.515 34.4971C110.913 34.2627 111.262 33.9521 111.561 33.5654L112.554 34.3389C111.757 35.5635 110.562 36.1758 108.968 36.1758ZM108.766 27.6504C108.109 27.6504 107.559 27.8906 107.113 28.3711C106.668 28.8457 106.393 29.5137 106.287 30.375H111.051V30.252C111.004 29.4258 110.781 28.7871 110.383 28.3359C109.984 27.8789 109.445 27.6504 108.766 27.6504ZM119.163 27.9492C118.917 27.9082 118.65 27.8877 118.363 27.8877C117.297 27.8877 116.573 28.3418 116.192 29.25V36H114.566V26.4902H116.148L116.175 27.5889C116.708 26.7393 117.464 26.3145 118.442 26.3145C118.759 26.3145 118.999 26.3555 119.163 26.4375V27.9492ZM126.186 36C126.092 35.8125 126.016 35.4785 125.957 34.998C125.201 35.7832 124.299 36.1758 123.25 36.1758C122.312 36.1758 121.542 35.9121 120.938 35.3848C120.341 34.8516 120.042 34.1777 120.042 33.3633C120.042 32.373 120.417 31.6055 121.167 31.0605C121.923 30.5098 122.983 30.2344 124.349 30.2344H125.931V29.4873C125.931 28.9189 125.761 28.4678 125.421 28.1338C125.081 27.7939 124.58 27.624 123.918 27.624C123.338 27.624 122.852 27.7705 122.459 28.0635C122.066 28.3564 121.87 28.7109 121.87 29.127H120.235C120.235 28.6523 120.402 28.1953 120.736 27.7559C121.076 27.3105 121.533 26.959 122.107 26.7012C122.688 26.4434 123.323 26.3145 124.015 26.3145C125.11 26.3145 125.969 26.5898 126.59 27.1406C127.211 27.6855 127.533 28.4385 127.557 29.3994V33.7764C127.557 34.6494 127.668 35.3438 127.891 35.8594V36H126.186ZM123.487 34.7607C123.997 34.7607 124.48 34.6289 124.938 34.3652C125.395 34.1016 125.726 33.7588 125.931 33.3369V31.3857H124.656C122.664 31.3857 121.668 31.9688 121.668 33.1348C121.668 33.6445 121.838 34.043 122.178 34.3301C122.518 34.6172 122.954 34.7607 123.487 34.7607ZM132.312 24.1875V26.4902H134.087V27.7471H132.312V33.6445C132.312 34.0254 132.391 34.3125 132.549 34.5059C132.707 34.6934 132.977 34.7871 133.357 34.7871C133.545 34.7871 133.803 34.752 134.131 34.6816V36C133.703 36.1172 133.287 36.1758 132.883 36.1758C132.156 36.1758 131.608 35.9561 131.239 35.5166C130.87 35.0771 130.686 34.4531 130.686 33.6445V27.7471H128.954V26.4902H130.686V24.1875H132.312ZM139.94 36.1758C138.651 36.1758 137.603 35.7539 136.794 34.9102C135.985 34.0605 135.581 32.9268 135.581 31.5088V31.21C135.581 30.2666 135.76 29.4258 136.117 28.6875C136.48 27.9434 136.984 27.3633 137.629 26.9473C138.279 26.5254 138.982 26.3145 139.738 26.3145C140.975 26.3145 141.936 26.7217 142.621 27.5361C143.307 28.3506 143.649 29.5166 143.649 31.0342V31.7109H137.207C137.23 32.6484 137.503 33.4072 138.024 33.9873C138.552 34.5615 139.22 34.8486 140.028 34.8486C140.603 34.8486 141.089 34.7314 141.487 34.4971C141.886 34.2627 142.234 33.9521 142.533 33.5654L143.526 34.3389C142.729 35.5635 141.534 36.1758 139.94 36.1758ZM139.738 27.6504C139.082 27.6504 138.531 27.8906 138.086 28.3711C137.641 28.8457 137.365 29.5137 137.26 30.375H142.023V30.252C141.977 29.4258 141.754 28.7871 141.355 28.3359C140.957 27.8789 140.418 27.6504 139.738 27.6504ZM145.144 31.166C145.144 29.707 145.489 28.5352 146.181 27.6504C146.872 26.7598 147.777 26.3145 148.896 26.3145C150.01 26.3145 150.892 26.6953 151.542 27.457V22.5H153.168V36H151.674L151.595 34.9805C150.944 35.7773 150.039 36.1758 148.879 36.1758C147.777 36.1758 146.878 35.7246 146.181 34.8223C145.489 33.9199 145.144 32.7422 145.144 31.2891V31.166ZM146.77 31.3506C146.77 32.4287 146.992 33.2725 147.438 33.8818C147.883 34.4912 148.498 34.7959 149.283 34.7959C150.314 34.7959 151.067 34.333 151.542 33.4072V29.0391C151.056 28.1426 150.309 27.6943 149.301 27.6943C148.504 27.6943 147.883 28.002 147.438 28.6172C146.992 29.2324 146.77 30.1436 146.77 31.3506Z" fill="black"/>
<path d="M326.898 126.939C326.74 128.293 326.239 129.339 325.396 130.077C324.558 130.81 323.441 131.176 322.047 131.176C320.535 131.176 319.322 130.634 318.408 129.55C317.5 128.466 317.046 127.016 317.046 125.199V123.969C317.046 122.779 317.257 121.733 317.679 120.831C318.106 119.929 318.71 119.237 319.489 118.757C320.269 118.271 321.171 118.027 322.196 118.027C323.556 118.027 324.646 118.408 325.466 119.17C326.286 119.926 326.764 120.975 326.898 122.316H325.202C325.056 121.297 324.736 120.559 324.244 120.102C323.758 119.645 323.075 119.416 322.196 119.416C321.118 119.416 320.271 119.814 319.656 120.611C319.047 121.408 318.742 122.542 318.742 124.013V125.252C318.742 126.641 319.032 127.745 319.612 128.565C320.192 129.386 321.004 129.796 322.047 129.796C322.984 129.796 323.702 129.585 324.2 129.163C324.704 128.735 325.038 127.994 325.202 126.939H326.898ZM328.524 126.157C328.524 125.226 328.706 124.388 329.069 123.644C329.438 122.899 329.948 122.325 330.599 121.921C331.255 121.517 332.002 121.314 332.84 121.314C334.135 121.314 335.181 121.763 335.978 122.659C336.78 123.556 337.182 124.748 337.182 126.236V126.351C337.182 127.276 337.003 128.108 336.646 128.847C336.294 129.579 335.787 130.15 335.125 130.561C334.469 130.971 333.713 131.176 332.857 131.176C331.568 131.176 330.522 130.728 329.72 129.831C328.923 128.935 328.524 127.748 328.524 126.271V126.157ZM330.159 126.351C330.159 127.405 330.402 128.252 330.889 128.891C331.381 129.529 332.037 129.849 332.857 129.849C333.684 129.849 334.34 129.526 334.826 128.882C335.312 128.231 335.556 127.323 335.556 126.157C335.556 125.114 335.307 124.271 334.809 123.626C334.316 122.976 333.66 122.65 332.84 122.65C332.037 122.65 331.39 122.97 330.897 123.608C330.405 124.247 330.159 125.161 330.159 126.351ZM340.759 121.49L340.812 122.686C341.538 121.771 342.487 121.314 343.659 121.314C345.669 121.314 346.683 122.448 346.7 124.716V131H345.074V124.707C345.068 124.021 344.91 123.515 344.6 123.187C344.295 122.858 343.817 122.694 343.167 122.694C342.64 122.694 342.177 122.835 341.778 123.116C341.38 123.397 341.069 123.767 340.847 124.224V131H339.221V121.49H340.759ZM350.69 121.49L350.743 122.686C351.47 121.771 352.419 121.314 353.591 121.314C355.601 121.314 356.614 122.448 356.632 124.716V131H355.006V124.707C355 124.021 354.842 123.515 354.531 123.187C354.227 122.858 353.749 122.694 353.099 122.694C352.571 122.694 352.108 122.835 351.71 123.116C351.312 123.397 351.001 123.767 350.778 124.224V131H349.152V121.49H350.69ZM363.03 131.176C361.741 131.176 360.692 130.754 359.884 129.91C359.075 129.061 358.671 127.927 358.671 126.509V126.21C358.671 125.267 358.85 124.426 359.207 123.688C359.57 122.943 360.074 122.363 360.719 121.947C361.369 121.525 362.072 121.314 362.828 121.314C364.064 121.314 365.025 121.722 365.711 122.536C366.396 123.351 366.739 124.517 366.739 126.034V126.711H360.297C360.32 127.648 360.593 128.407 361.114 128.987C361.642 129.562 362.31 129.849 363.118 129.849C363.692 129.849 364.179 129.731 364.577 129.497C364.976 129.263 365.324 128.952 365.623 128.565L366.616 129.339C365.819 130.563 364.624 131.176 363.03 131.176ZM362.828 122.65C362.172 122.65 361.621 122.891 361.176 123.371C360.73 123.846 360.455 124.514 360.35 125.375H365.113V125.252C365.066 124.426 364.844 123.787 364.445 123.336C364.047 122.879 363.508 122.65 362.828 122.65ZM372.443 129.849C373.023 129.849 373.53 129.673 373.964 129.321C374.397 128.97 374.638 128.53 374.685 128.003H376.223C376.193 128.548 376.006 129.066 375.66 129.559C375.314 130.051 374.852 130.443 374.271 130.736C373.697 131.029 373.088 131.176 372.443 131.176C371.148 131.176 370.117 130.745 369.35 129.884C368.588 129.017 368.207 127.833 368.207 126.333V126.061C368.207 125.135 368.377 124.312 368.717 123.591C369.057 122.87 369.543 122.311 370.176 121.912C370.814 121.514 371.567 121.314 372.435 121.314C373.501 121.314 374.386 121.634 375.089 122.272C375.798 122.911 376.176 123.74 376.223 124.76H374.685C374.638 124.145 374.403 123.641 373.981 123.248C373.565 122.85 373.05 122.65 372.435 122.65C371.608 122.65 370.967 122.949 370.51 123.547C370.059 124.139 369.833 124.997 369.833 126.122V126.43C369.833 127.525 370.059 128.369 370.51 128.961C370.961 129.553 371.605 129.849 372.443 129.849ZM380.257 119.188V121.49H382.032V122.747H380.257V128.645C380.257 129.025 380.336 129.312 380.494 129.506C380.652 129.693 380.922 129.787 381.303 129.787C381.49 129.787 381.748 129.752 382.076 129.682V131C381.648 131.117 381.232 131.176 380.828 131.176C380.102 131.176 379.554 130.956 379.185 130.517C378.815 130.077 378.631 129.453 378.631 128.645V122.747H376.899V121.49H378.631V119.188H380.257Z" fill="black"/>
<rect x="348" y="80" width="5" height="34" fill="#525252"/>
<path d="M295.32 26H293.624V20.085H287.173V26H285.485V13.2031H287.173V18.7051H293.624V13.2031H295.32V26ZM297.632 21.1572C297.632 20.2256 297.813 19.3877 298.177 18.6436C298.546 17.8994 299.056 17.3252 299.706 16.9209C300.362 16.5166 301.109 16.3145 301.947 16.3145C303.242 16.3145 304.288 16.7627 305.085 17.6592C305.888 18.5557 306.289 19.748 306.289 21.2363V21.3506C306.289 22.2764 306.11 23.1084 305.753 23.8467C305.401 24.5791 304.895 25.1504 304.232 25.5605C303.576 25.9707 302.82 26.1758 301.965 26.1758C300.676 26.1758 299.63 25.7275 298.827 24.8311C298.03 23.9346 297.632 22.748 297.632 21.2715V21.1572ZM299.267 21.3506C299.267 22.4053 299.51 23.252 299.996 23.8906C300.488 24.5293 301.145 24.8486 301.965 24.8486C302.791 24.8486 303.447 24.5264 303.934 23.8818C304.42 23.2314 304.663 22.3232 304.663 21.1572C304.663 20.1143 304.414 19.2705 303.916 18.626C303.424 17.9756 302.768 17.6504 301.947 17.6504C301.145 17.6504 300.497 17.9697 300.005 18.6084C299.513 19.2471 299.267 20.1611 299.267 21.3506ZM307.897 21.1572C307.897 20.2256 308.079 19.3877 308.442 18.6436C308.812 17.8994 309.321 17.3252 309.972 16.9209C310.628 16.5166 311.375 16.3145 312.213 16.3145C313.508 16.3145 314.554 16.7627 315.351 17.6592C316.153 18.5557 316.555 19.748 316.555 21.2363V21.3506C316.555 22.2764 316.376 23.1084 316.019 23.8467C315.667 24.5791 315.16 25.1504 314.498 25.5605C313.842 25.9707 313.086 26.1758 312.23 26.1758C310.941 26.1758 309.896 25.7275 309.093 24.8311C308.296 23.9346 307.897 22.748 307.897 21.2715V21.1572ZM309.532 21.3506C309.532 22.4053 309.775 23.252 310.262 23.8906C310.754 24.5293 311.41 24.8486 312.23 24.8486C313.057 24.8486 313.713 24.5264 314.199 23.8818C314.686 23.2314 314.929 22.3232 314.929 21.1572C314.929 20.1143 314.68 19.2705 314.182 18.626C313.689 17.9756 313.033 17.6504 312.213 17.6504C311.41 17.6504 310.763 17.9697 310.271 18.6084C309.778 19.2471 309.532 20.1611 309.532 21.3506ZM321.248 21.5967L320.229 22.6602V26H318.603V12.5H320.229V20.665L321.099 19.6191L324.061 16.4902H326.038L322.338 20.4629L326.469 26H324.562L321.248 21.5967ZM333.254 23.4775C333.254 23.0381 333.087 22.6982 332.753 22.458C332.425 22.2119 331.848 22.001 331.021 21.8252C330.201 21.6494 329.548 21.4385 329.062 21.1924C328.581 20.9463 328.224 20.6533 327.989 20.3135C327.761 19.9736 327.646 19.5693 327.646 19.1006C327.646 18.3213 327.975 17.6621 328.631 17.123C329.293 16.584 330.137 16.3145 331.162 16.3145C332.24 16.3145 333.113 16.5928 333.781 17.1494C334.455 17.7061 334.792 18.418 334.792 19.2852H333.157C333.157 18.8398 332.967 18.4561 332.586 18.1338C332.211 17.8115 331.736 17.6504 331.162 17.6504C330.57 17.6504 330.107 17.7793 329.773 18.0371C329.439 18.2949 329.272 18.6318 329.272 19.0479C329.272 19.4404 329.428 19.7363 329.738 19.9355C330.049 20.1348 330.608 20.3252 331.417 20.5068C332.231 20.6885 332.891 20.9053 333.395 21.1572C333.898 21.4092 334.271 21.7139 334.511 22.0713C334.757 22.4229 334.88 22.8535 334.88 23.3633C334.88 24.2129 334.54 24.8955 333.86 25.4111C333.181 25.9209 332.299 26.1758 331.215 26.1758C330.453 26.1758 329.779 26.041 329.193 25.7715C328.607 25.502 328.147 25.127 327.813 24.6465C327.485 24.1602 327.321 23.6357 327.321 23.0732H328.947C328.977 23.6182 329.193 24.0518 329.598 24.374C330.008 24.6904 330.547 24.8486 331.215 24.8486C331.83 24.8486 332.322 24.7256 332.691 24.4795C333.066 24.2275 333.254 23.8936 333.254 23.4775Z" fill="black"/>
<rect x="309" y="29" width="5" height="34" fill="#525252"/>
</svg>
