<svg width="420" height="247" viewBox="0 0 420 247" fill="none" xmlns="http://www.w3.org/2000/svg">
<g clip-path="url(#clip0)">
<rect width="420" height="247" fill="white"/>
<rect x="90.4615" y="166.822" width="237.785" height="80.178" rx="10" fill="#EFEFEF"/>
<line x1="-6.46152" y1="82.2644" x2="675.877" y2="82.2643" stroke="black" stroke-dasharray="2 5"/>
<ellipse cx="39.6465" cy="82.192" rx="7.18473" ry="7.20797" fill="#86B493"/>
<path d="M23.5901 109.241L22.6901 109.085V108.341H24.5021C24.6701 108.341 24.9301 108.333 25.2821 108.317C25.7461 108.285 26.1661 108.269 26.5421 108.269C27.3741 108.269 28.0301 108.373 28.5101 108.581C28.9981 108.781 29.3421 109.073 29.5421 109.457C29.7501 109.833 29.8541 110.313 29.8541 110.897C29.8541 111.905 29.5381 112.689 28.9061 113.249C28.2821 113.809 27.4141 114.089 26.3021 114.089C25.8621 114.089 25.5461 114.077 25.3541 114.053V116.417L26.9621 116.537V117.257H22.6421V116.537L23.5901 116.417V109.241ZM25.3421 113.285C25.5261 113.325 25.8381 113.345 26.2781 113.345C26.8141 113.345 27.2421 113.161 27.5621 112.793C27.8901 112.417 28.0541 111.797 28.0541 110.933C28.0541 110.261 27.9061 109.773 27.6101 109.469C27.3221 109.157 26.8781 109.001 26.2781 109.001C26.0541 109.001 25.8221 109.017 25.5821 109.049C25.4701 109.065 25.3901 109.073 25.3421 109.073V113.285ZM30.6357 116.549L31.4277 116.453V111.725L30.6597 111.509V110.681L32.5197 110.429H32.5557L32.8557 110.669V110.933L32.8197 111.905H32.8557C32.9117 111.745 33.0437 111.549 33.2517 111.317C33.4597 111.077 33.7197 110.869 34.0317 110.693C34.3517 110.509 34.6957 110.417 35.0637 110.417C35.2397 110.417 35.3917 110.441 35.5197 110.489V112.289C35.2797 112.121 34.9877 112.037 34.6437 112.037C34.0597 112.037 33.5517 112.193 33.1197 112.505V116.441L34.5117 116.549V117.257H30.6357V116.549ZM36.2842 113.933C36.2842 113.181 36.4322 112.541 36.7282 112.013C37.0322 111.485 37.4362 111.089 37.9402 110.825C38.4442 110.553 38.9922 110.417 39.5842 110.417C40.5922 110.417 41.3682 110.729 41.9122 111.353C42.4642 111.969 42.7402 112.809 42.7402 113.873C42.7402 114.633 42.5882 115.281 42.2842 115.817C41.9882 116.345 41.5882 116.741 41.0842 117.005C40.5882 117.261 40.0402 117.389 39.4402 117.389C38.4402 117.389 37.6642 117.081 37.1122 116.465C36.5602 115.841 36.2842 114.997 36.2842 113.933ZM39.5362 116.609C40.4402 116.609 40.8922 115.737 40.8922 113.993C40.8922 113.081 40.7842 112.389 40.5682 111.917C40.3522 111.437 40.0002 111.197 39.5122 111.197C38.5842 111.197 38.1202 112.069 38.1202 113.813C38.1202 114.725 38.2322 115.421 38.4562 115.901C38.6882 116.373 39.0482 116.609 39.5362 116.609ZM50.467 113.705C50.467 114.377 50.327 114.993 50.047 115.553C49.775 116.113 49.371 116.561 48.835 116.897C48.307 117.225 47.675 117.389 46.939 117.389C46.779 117.389 46.611 117.373 46.435 117.341C46.267 117.317 46.131 117.285 46.027 117.245L46.063 118.241V119.333L47.179 119.477V120.161H43.615V119.477L44.395 119.333V111.725L43.615 111.509V110.681L45.595 110.429H45.619L45.919 110.669V111.341C46.119 111.093 46.391 110.877 46.735 110.693C47.079 110.509 47.455 110.417 47.863 110.417C48.623 110.417 49.247 110.689 49.735 111.233C50.223 111.769 50.467 112.593 50.467 113.705ZM47.239 111.413C46.999 111.413 46.771 111.465 46.555 111.569C46.339 111.673 46.175 111.789 46.063 111.917V116.369C46.119 116.449 46.231 116.517 46.399 116.573C46.575 116.629 46.767 116.657 46.975 116.657C47.495 116.657 47.907 116.433 48.211 115.985C48.523 115.529 48.679 114.817 48.679 113.849C48.679 113.033 48.547 112.425 48.283 112.025C48.019 111.617 47.671 111.413 47.239 111.413ZM52.7802 116.273C52.8442 116.369 52.9882 116.461 53.2122 116.549C53.4442 116.629 53.6762 116.669 53.9082 116.669C54.2842 116.669 54.5642 116.593 54.7482 116.441C54.9402 116.281 55.0362 116.073 55.0362 115.817C55.0362 115.553 54.9202 115.341 54.6882 115.181C54.4562 115.013 54.0642 114.809 53.5122 114.569L53.1762 114.425C52.6242 114.193 52.2122 113.913 51.9402 113.585C51.6682 113.257 51.5322 112.833 51.5322 112.313C51.5322 111.953 51.6402 111.633 51.8562 111.353C52.0722 111.065 52.3762 110.841 52.7682 110.681C53.1602 110.521 53.6122 110.441 54.1242 110.441C54.5002 110.441 54.8202 110.465 55.0842 110.513C55.3562 110.561 55.6402 110.625 55.9362 110.705C56.0962 110.761 56.2162 110.793 56.2962 110.801V112.373H55.3482L55.0722 111.461C55.0242 111.381 54.9162 111.309 54.7482 111.245C54.5802 111.181 54.3882 111.149 54.1722 111.149C53.8442 111.149 53.5802 111.221 53.3802 111.365C53.1882 111.501 53.0922 111.693 53.0922 111.941C53.0922 112.165 53.1602 112.353 53.2962 112.505C53.4322 112.649 53.5802 112.761 53.7402 112.841C53.9002 112.921 54.1962 113.053 54.6282 113.237C55.0602 113.421 55.4162 113.597 55.6962 113.765C55.9842 113.933 56.2202 114.153 56.4042 114.425C56.5962 114.689 56.6922 115.013 56.6922 115.397C56.6922 115.989 56.4602 116.469 55.9962 116.837C55.5322 117.205 54.8642 117.389 53.9922 117.389C53.5842 117.389 53.2162 117.353 52.8882 117.281C52.5682 117.209 52.1962 117.113 51.7722 116.993L51.5082 116.909V115.325H52.5042L52.7802 116.273Z" fill="#383838"/>
<ellipse cx="197.308" cy="80.92" rx="7.18473" ry="7.20797" fill="#588E67"/>
<path d="M166.559 116.117C165.199 116.117 164.159 115.713 163.439 114.905C162.719 114.089 162.359 112.977 162.359 111.569C162.359 110.641 162.547 109.833 162.923 109.145C163.307 108.449 163.831 107.913 164.495 107.537C165.159 107.161 165.911 106.973 166.751 106.973C167.103 106.973 167.443 106.997 167.771 107.045C168.099 107.085 168.487 107.141 168.935 107.213C169.271 107.269 169.455 107.297 169.487 107.297L169.355 109.769H168.251L167.879 108.053C167.791 107.965 167.639 107.893 167.423 107.837C167.207 107.781 166.931 107.753 166.595 107.753C165.915 107.753 165.367 108.069 164.951 108.701C164.543 109.325 164.339 110.233 164.339 111.425C164.339 112.577 164.535 113.517 164.927 114.245C165.319 114.973 165.891 115.337 166.643 115.337C167.003 115.337 167.279 115.305 167.471 115.241C167.671 115.169 167.839 115.069 167.975 114.941L168.503 113.705L169.511 113.801L169.271 115.661C169.103 115.677 168.935 115.709 168.767 115.757C168.607 115.797 168.507 115.821 168.467 115.829C168.147 115.917 167.847 115.985 167.567 116.033C167.295 116.089 166.959 116.117 166.559 116.117ZM170.45 112.661C170.45 111.909 170.598 111.269 170.894 110.741C171.198 110.213 171.602 109.817 172.106 109.553C172.61 109.281 173.158 109.145 173.75 109.145C174.758 109.145 175.534 109.457 176.078 110.081C176.63 110.697 176.906 111.537 176.906 112.601C176.906 113.361 176.754 114.009 176.45 114.545C176.154 115.073 175.754 115.469 175.25 115.733C174.754 115.989 174.206 116.117 173.606 116.117C172.606 116.117 171.83 115.809 171.278 115.193C170.726 114.569 170.45 113.725 170.45 112.661ZM173.702 115.337C174.606 115.337 175.058 114.465 175.058 112.721C175.058 111.809 174.95 111.117 174.734 110.645C174.518 110.165 174.166 109.925 173.678 109.925C172.75 109.925 172.286 110.797 172.286 112.541C172.286 113.453 172.398 114.149 172.622 114.629C172.854 115.101 173.214 115.337 173.702 115.337ZM177.997 115.265L178.669 115.157V110.453L177.901 110.237V109.409L179.893 109.157L180.037 109.253L180.217 109.649V110.153C180.481 109.897 180.857 109.673 181.345 109.481C181.841 109.281 182.269 109.181 182.629 109.181C183.061 109.181 183.409 109.253 183.673 109.397C183.945 109.541 184.149 109.765 184.285 110.069C184.549 109.829 184.897 109.621 185.329 109.445C185.761 109.269 186.185 109.181 186.601 109.181C187.313 109.181 187.817 109.389 188.113 109.805C188.409 110.221 188.557 110.901 188.557 111.845V115.157L189.337 115.265V115.985H186.229V115.265L186.853 115.157V111.893C186.853 111.269 186.777 110.833 186.625 110.585C186.481 110.329 186.201 110.201 185.785 110.201C185.561 110.201 185.329 110.253 185.089 110.357C184.857 110.453 184.649 110.573 184.465 110.717C184.521 111.021 184.549 111.401 184.549 111.857V115.157L185.293 115.265V115.985H182.161V115.265L182.821 115.157V111.857C182.821 111.441 182.793 111.117 182.737 110.885C182.689 110.645 182.593 110.473 182.449 110.369C182.305 110.257 182.097 110.201 181.825 110.201C181.569 110.201 181.313 110.261 181.057 110.381C180.809 110.493 180.585 110.629 180.385 110.789V115.157L181.093 115.265V115.985H177.997V115.265ZM196.785 112.433C196.785 113.105 196.645 113.721 196.365 114.281C196.093 114.841 195.689 115.289 195.153 115.625C194.625 115.953 193.993 116.117 193.257 116.117C193.097 116.117 192.929 116.101 192.753 116.069C192.585 116.045 192.449 116.013 192.345 115.973L192.381 116.969V118.061L193.497 118.205V118.889H189.933V118.205L190.713 118.061V110.453L189.933 110.237V109.409L191.913 109.157H191.937L192.237 109.397V110.069C192.437 109.821 192.709 109.605 193.053 109.421C193.397 109.237 193.773 109.145 194.181 109.145C194.941 109.145 195.565 109.417 196.053 109.961C196.541 110.497 196.785 111.321 196.785 112.433ZM193.557 110.141C193.317 110.141 193.089 110.193 192.873 110.297C192.657 110.401 192.493 110.517 192.381 110.645V115.097C192.437 115.177 192.549 115.245 192.717 115.301C192.893 115.357 193.085 115.385 193.293 115.385C193.813 115.385 194.225 115.161 194.529 114.713C194.841 114.257 194.997 113.545 194.997 112.577C194.997 111.761 194.865 111.153 194.601 110.753C194.337 110.345 193.989 110.141 193.557 110.141ZM197.766 112.661C197.766 111.909 197.914 111.269 198.21 110.741C198.514 110.213 198.918 109.817 199.422 109.553C199.926 109.281 200.474 109.145 201.066 109.145C202.074 109.145 202.85 109.457 203.394 110.081C203.946 110.697 204.222 111.537 204.222 112.601C204.222 113.361 204.07 114.009 203.766 114.545C203.47 115.073 203.07 115.469 202.566 115.733C202.07 115.989 201.522 116.117 200.922 116.117C199.922 116.117 199.146 115.809 198.594 115.193C198.042 114.569 197.766 113.725 197.766 112.661ZM201.018 115.337C201.922 115.337 202.374 114.465 202.374 112.721C202.374 111.809 202.266 111.117 202.05 110.645C201.834 110.165 201.482 109.925 200.994 109.925C200.066 109.925 199.602 110.797 199.602 112.541C199.602 113.453 199.714 114.149 199.938 114.629C200.17 115.101 200.53 115.337 201.018 115.337ZM205.985 110.453L205.217 110.237V109.409L207.209 109.157H207.245L207.545 109.397V109.865L207.533 110.153C207.813 109.889 208.177 109.661 208.625 109.469C209.073 109.277 209.525 109.181 209.981 109.181C210.469 109.181 210.849 109.273 211.121 109.457C211.401 109.633 211.601 109.913 211.721 110.297C211.841 110.681 211.901 111.201 211.901 111.857V115.169L212.633 115.265V115.985H209.537V115.265L210.185 115.169V111.857C210.185 111.441 210.157 111.117 210.101 110.885C210.045 110.645 209.941 110.473 209.789 110.369C209.645 110.257 209.437 110.201 209.165 110.201C208.709 110.201 208.221 110.397 207.701 110.789V115.157L208.421 115.265V115.985H205.289V115.265L205.985 115.157V110.453ZM216.505 116.117C215.449 116.117 214.661 115.809 214.141 115.193C213.629 114.569 213.373 113.721 213.373 112.649C213.373 111.929 213.505 111.305 213.769 110.777C214.041 110.249 214.421 109.845 214.909 109.565C215.397 109.285 215.961 109.145 216.601 109.145C217.401 109.145 218.017 109.357 218.449 109.781C218.881 110.197 219.105 110.793 219.121 111.569C219.121 112.097 219.089 112.489 219.025 112.745H215.125C215.157 113.473 215.329 114.041 215.641 114.449C215.953 114.849 216.397 115.049 216.973 115.049C217.285 115.049 217.605 114.997 217.933 114.893C218.269 114.789 218.533 114.665 218.725 114.521L219.025 115.181C218.809 115.413 218.457 115.629 217.969 115.829C217.489 116.021 217.001 116.117 216.505 116.117ZM217.441 112.025C217.457 111.801 217.465 111.629 217.465 111.509C217.465 110.445 217.109 109.913 216.397 109.913C216.005 109.913 215.701 110.069 215.485 110.381C215.269 110.693 215.149 111.241 215.125 112.025H217.441ZM220.751 110.453L219.983 110.237V109.409L221.975 109.157H222.011L222.311 109.397V109.865L222.299 110.153C222.579 109.889 222.943 109.661 223.391 109.469C223.839 109.277 224.291 109.181 224.747 109.181C225.235 109.181 225.615 109.273 225.887 109.457C226.167 109.633 226.367 109.913 226.487 110.297C226.607 110.681 226.667 111.201 226.667 111.857V115.169L227.399 115.265V115.985H224.303V115.265L224.951 115.169V111.857C224.951 111.441 224.923 111.117 224.867 110.885C224.811 110.645 224.707 110.473 224.555 110.369C224.411 110.257 224.203 110.201 223.931 110.201C223.475 110.201 222.987 110.397 222.467 110.789V115.157L223.187 115.265V115.985H220.055V115.265L220.751 115.157V110.453ZM230.263 116.093C229.759 116.093 229.387 115.977 229.147 115.745C228.907 115.513 228.787 115.145 228.787 114.641V110.237H228.007V109.613C228.071 109.589 228.187 109.549 228.355 109.493C228.523 109.429 228.651 109.377 228.739 109.337C228.875 109.233 228.991 109.053 229.087 108.797C229.159 108.629 229.291 108.213 229.483 107.549H230.443L230.491 109.313H232.327V110.237H230.503V113.609C230.503 114.057 230.515 114.373 230.539 114.557C230.563 114.741 230.615 114.861 230.695 114.917C230.775 114.965 230.915 114.989 231.115 114.989C231.315 114.989 231.523 114.969 231.739 114.929C231.955 114.881 232.135 114.825 232.279 114.761L232.507 115.433C232.283 115.601 231.955 115.753 231.523 115.889C231.091 116.025 230.671 116.093 230.263 116.093ZM181.252 122.969L180.352 122.813V122.069H182.164C182.332 122.069 182.592 122.061 182.944 122.045C183.408 122.013 183.828 121.997 184.204 121.997C185.036 121.997 185.692 122.101 186.172 122.309C186.66 122.509 187.004 122.801 187.204 123.185C187.412 123.561 187.516 124.041 187.516 124.625C187.516 125.633 187.2 126.417 186.568 126.977C185.944 127.537 185.076 127.817 183.964 127.817C183.524 127.817 183.208 127.805 183.016 127.781V130.145L184.624 130.265V130.985H180.304V130.265L181.252 130.145V122.969ZM183.004 127.013C183.188 127.053 183.5 127.073 183.94 127.073C184.476 127.073 184.904 126.889 185.224 126.521C185.552 126.145 185.716 125.525 185.716 124.661C185.716 123.989 185.568 123.501 185.272 123.197C184.984 122.885 184.54 122.729 183.94 122.729C183.716 122.729 183.484 122.745 183.244 122.777C183.132 122.793 183.052 122.801 183.004 122.801V127.013ZM188.297 130.277L189.089 130.181V125.453L188.321 125.237V124.409L190.181 124.157H190.217L190.517 124.397V124.661L190.481 125.633H190.517C190.573 125.473 190.705 125.277 190.913 125.045C191.121 124.805 191.381 124.597 191.693 124.421C192.013 124.237 192.357 124.145 192.725 124.145C192.901 124.145 193.053 124.169 193.181 124.217V126.017C192.941 125.849 192.649 125.765 192.305 125.765C191.721 125.765 191.213 125.921 190.781 126.233V130.169L192.173 130.277V130.985H188.297V130.277ZM193.946 127.661C193.946 126.909 194.094 126.269 194.39 125.741C194.694 125.213 195.098 124.817 195.602 124.553C196.106 124.281 196.654 124.145 197.246 124.145C198.254 124.145 199.03 124.457 199.574 125.081C200.126 125.697 200.402 126.537 200.402 127.601C200.402 128.361 200.25 129.009 199.946 129.545C199.65 130.073 199.25 130.469 198.746 130.733C198.25 130.989 197.702 131.117 197.102 131.117C196.102 131.117 195.326 130.809 194.774 130.193C194.222 129.569 193.946 128.725 193.946 127.661ZM197.198 130.337C198.102 130.337 198.554 129.465 198.554 127.721C198.554 126.809 198.446 126.117 198.23 125.645C198.014 125.165 197.662 124.925 197.174 124.925C196.246 124.925 195.782 125.797 195.782 127.541C195.782 128.453 195.894 129.149 196.118 129.629C196.35 130.101 196.71 130.337 197.198 130.337ZM208.129 127.433C208.129 128.105 207.989 128.721 207.709 129.281C207.437 129.841 207.033 130.289 206.497 130.625C205.969 130.953 205.337 131.117 204.601 131.117C204.441 131.117 204.273 131.101 204.097 131.069C203.929 131.045 203.793 131.013 203.689 130.973L203.725 131.969V133.061L204.841 133.205V133.889H201.277V133.205L202.057 133.061V125.453L201.277 125.237V124.409L203.257 124.157H203.281L203.581 124.397V125.069C203.781 124.821 204.053 124.605 204.397 124.421C204.741 124.237 205.117 124.145 205.525 124.145C206.285 124.145 206.909 124.417 207.397 124.961C207.885 125.497 208.129 126.321 208.129 127.433ZM204.901 125.141C204.661 125.141 204.433 125.193 204.217 125.297C204.001 125.401 203.837 125.517 203.725 125.645V130.097C203.781 130.177 203.893 130.245 204.061 130.301C204.237 130.357 204.429 130.385 204.637 130.385C205.157 130.385 205.569 130.161 205.873 129.713C206.185 129.257 206.341 128.545 206.341 127.577C206.341 126.761 206.209 126.153 205.945 125.753C205.681 125.345 205.333 125.141 204.901 125.141ZM210.442 130.001C210.506 130.097 210.65 130.189 210.874 130.277C211.106 130.357 211.338 130.397 211.57 130.397C211.946 130.397 212.226 130.321 212.41 130.169C212.602 130.009 212.698 129.801 212.698 129.545C212.698 129.281 212.582 129.069 212.35 128.909C212.118 128.741 211.726 128.537 211.174 128.297L210.838 128.153C210.286 127.921 209.874 127.641 209.602 127.313C209.33 126.985 209.194 126.561 209.194 126.041C209.194 125.681 209.302 125.361 209.518 125.081C209.734 124.793 210.038 124.569 210.43 124.409C210.822 124.249 211.274 124.169 211.786 124.169C212.162 124.169 212.482 124.193 212.746 124.241C213.018 124.289 213.302 124.353 213.598 124.433C213.758 124.489 213.878 124.521 213.958 124.529V126.101H213.01L212.734 125.189C212.686 125.109 212.578 125.037 212.41 124.973C212.242 124.909 212.05 124.877 211.834 124.877C211.506 124.877 211.242 124.949 211.042 125.093C210.85 125.229 210.754 125.421 210.754 125.669C210.754 125.893 210.822 126.081 210.958 126.233C211.094 126.377 211.242 126.489 211.402 126.569C211.562 126.649 211.858 126.781 212.29 126.965C212.722 127.149 213.078 127.325 213.358 127.493C213.646 127.661 213.882 127.881 214.066 128.153C214.258 128.417 214.354 128.741 214.354 129.125C214.354 129.717 214.122 130.197 213.658 130.565C213.194 130.933 212.526 131.117 211.654 131.117C211.246 131.117 210.878 131.081 210.55 131.009C210.23 130.937 209.858 130.841 209.434 130.721L209.17 130.637V129.053H210.166L210.442 130.001Z" fill="#383838"/>
<ellipse cx="349.8" cy="80.92" rx="7.18473" ry="7.20797" fill="#294230"/>
<path d="M321.296 116.117C319.936 116.117 318.896 115.713 318.176 114.905C317.456 114.089 317.096 112.977 317.096 111.569C317.096 110.641 317.284 109.833 317.66 109.145C318.044 108.449 318.568 107.913 319.232 107.537C319.896 107.161 320.648 106.973 321.488 106.973C321.84 106.973 322.18 106.997 322.508 107.045C322.836 107.085 323.224 107.141 323.672 107.213C324.008 107.269 324.192 107.297 324.224 107.297L324.092 109.769H322.988L322.616 108.053C322.528 107.965 322.376 107.893 322.16 107.837C321.944 107.781 321.668 107.753 321.332 107.753C320.652 107.753 320.104 108.069 319.688 108.701C319.28 109.325 319.076 110.233 319.076 111.425C319.076 112.577 319.272 113.517 319.664 114.245C320.056 114.973 320.628 115.337 321.38 115.337C321.74 115.337 322.016 115.305 322.208 115.241C322.408 115.169 322.576 115.069 322.712 114.941L323.24 113.705L324.248 113.801L324.008 115.661C323.84 115.677 323.672 115.709 323.504 115.757C323.344 115.797 323.244 115.821 323.204 115.829C322.884 115.917 322.584 115.985 322.304 116.033C322.032 116.089 321.696 116.117 321.296 116.117ZM325.186 112.661C325.186 111.909 325.334 111.269 325.63 110.741C325.934 110.213 326.338 109.817 326.842 109.553C327.346 109.281 327.894 109.145 328.486 109.145C329.494 109.145 330.27 109.457 330.814 110.081C331.366 110.697 331.642 111.537 331.642 112.601C331.642 113.361 331.49 114.009 331.186 114.545C330.89 115.073 330.49 115.469 329.986 115.733C329.49 115.989 328.942 116.117 328.342 116.117C327.342 116.117 326.566 115.809 326.014 115.193C325.462 114.569 325.186 113.725 325.186 112.661ZM328.438 115.337C329.342 115.337 329.794 114.465 329.794 112.721C329.794 111.809 329.686 111.117 329.47 110.645C329.254 110.165 328.902 109.925 328.414 109.925C327.486 109.925 327.022 110.797 327.022 112.541C327.022 113.453 327.134 114.149 327.358 114.629C327.59 115.101 327.95 115.337 328.438 115.337ZM332.733 115.265L333.405 115.157V110.453L332.637 110.237V109.409L334.629 109.157L334.773 109.253L334.953 109.649V110.153C335.217 109.897 335.593 109.673 336.081 109.481C336.577 109.281 337.005 109.181 337.365 109.181C337.797 109.181 338.145 109.253 338.409 109.397C338.681 109.541 338.885 109.765 339.021 110.069C339.285 109.829 339.633 109.621 340.065 109.445C340.497 109.269 340.921 109.181 341.337 109.181C342.049 109.181 342.553 109.389 342.849 109.805C343.145 110.221 343.293 110.901 343.293 111.845V115.157L344.073 115.265V115.985H340.965V115.265L341.589 115.157V111.893C341.589 111.269 341.513 110.833 341.361 110.585C341.217 110.329 340.937 110.201 340.521 110.201C340.297 110.201 340.065 110.253 339.825 110.357C339.593 110.453 339.385 110.573 339.201 110.717C339.257 111.021 339.285 111.401 339.285 111.857V115.157L340.029 115.265V115.985H336.897V115.265L337.557 115.157V111.857C337.557 111.441 337.529 111.117 337.473 110.885C337.425 110.645 337.329 110.473 337.185 110.369C337.041 110.257 336.833 110.201 336.561 110.201C336.305 110.201 336.049 110.261 335.793 110.381C335.545 110.493 335.321 110.629 335.121 110.789V115.157L335.829 115.265V115.985H332.733V115.265ZM351.521 112.433C351.521 113.105 351.381 113.721 351.101 114.281C350.829 114.841 350.425 115.289 349.889 115.625C349.361 115.953 348.729 116.117 347.993 116.117C347.833 116.117 347.665 116.101 347.489 116.069C347.321 116.045 347.185 116.013 347.081 115.973L347.117 116.969V118.061L348.233 118.205V118.889H344.669V118.205L345.449 118.061V110.453L344.669 110.237V109.409L346.649 109.157H346.673L346.973 109.397V110.069C347.173 109.821 347.445 109.605 347.789 109.421C348.133 109.237 348.509 109.145 348.917 109.145C349.677 109.145 350.301 109.417 350.789 109.961C351.277 110.497 351.521 111.321 351.521 112.433ZM348.293 110.141C348.053 110.141 347.825 110.193 347.609 110.297C347.393 110.401 347.229 110.517 347.117 110.645V115.097C347.173 115.177 347.285 115.245 347.453 115.301C347.629 115.357 347.821 115.385 348.029 115.385C348.549 115.385 348.961 115.161 349.265 114.713C349.577 114.257 349.733 113.545 349.733 112.577C349.733 111.761 349.601 111.153 349.337 110.753C349.073 110.345 348.725 110.141 348.293 110.141ZM352.502 112.661C352.502 111.909 352.65 111.269 352.946 110.741C353.25 110.213 353.654 109.817 354.158 109.553C354.662 109.281 355.21 109.145 355.802 109.145C356.81 109.145 357.586 109.457 358.13 110.081C358.682 110.697 358.958 111.537 358.958 112.601C358.958 113.361 358.806 114.009 358.502 114.545C358.206 115.073 357.806 115.469 357.302 115.733C356.806 115.989 356.258 116.117 355.658 116.117C354.658 116.117 353.882 115.809 353.33 115.193C352.778 114.569 352.502 113.725 352.502 112.661ZM355.754 115.337C356.658 115.337 357.11 114.465 357.11 112.721C357.11 111.809 357.002 111.117 356.786 110.645C356.57 110.165 356.218 109.925 355.73 109.925C354.802 109.925 354.338 110.797 354.338 112.541C354.338 113.453 354.45 114.149 354.674 114.629C354.906 115.101 355.266 115.337 355.754 115.337ZM365.461 116.105C365.197 116.105 365.005 116.049 364.885 115.937C364.765 115.825 364.705 115.657 364.705 115.433V115.109C364.489 115.373 364.185 115.609 363.793 115.817C363.401 116.017 363.009 116.117 362.617 116.117C361.849 116.117 361.301 115.921 360.973 115.529C360.645 115.129 360.481 114.473 360.481 113.561V110.177L359.881 110.009V109.325L361.921 109.169H361.933L362.173 109.337V113.561C362.173 114.145 362.245 114.553 362.389 114.785C362.533 115.017 362.801 115.133 363.193 115.133C363.665 115.133 364.105 114.949 364.513 114.581V110.177L363.709 109.997V109.325L365.881 109.169H365.905L366.193 109.337V115.241H366.865L366.853 115.925C366.821 115.933 366.673 115.965 366.409 116.021C366.145 116.077 365.829 116.105 365.461 116.105ZM368.385 110.453L367.617 110.237V109.409L369.609 109.157H369.645L369.945 109.397V109.865L369.933 110.153C370.213 109.889 370.577 109.661 371.025 109.469C371.473 109.277 371.925 109.181 372.381 109.181C372.869 109.181 373.249 109.273 373.521 109.457C373.801 109.633 374.001 109.913 374.121 110.297C374.241 110.681 374.301 111.201 374.301 111.857V115.169L375.033 115.265V115.985H371.937V115.265L372.585 115.169V111.857C372.585 111.441 372.557 111.117 372.501 110.885C372.445 110.645 372.341 110.473 372.189 110.369C372.045 110.257 371.837 110.201 371.565 110.201C371.109 110.201 370.621 110.397 370.101 110.789V115.157L370.821 115.265V115.985H367.689V115.265L368.385 115.157V110.453ZM378.389 116.117C377.893 116.117 377.449 116.001 377.057 115.769C376.665 115.529 376.353 115.161 376.121 114.665C375.889 114.169 375.773 113.549 375.773 112.805C375.773 112.133 375.909 111.521 376.181 110.969C376.461 110.409 376.869 109.965 377.405 109.637C377.941 109.309 378.585 109.145 379.337 109.145C379.641 109.145 379.929 109.177 380.201 109.241V107.213L379.025 107.045V106.385L381.497 106.145H381.533L381.869 106.397V115.253H382.517V115.937C381.941 116.057 381.465 116.117 381.089 116.117C380.833 116.117 380.649 116.073 380.537 115.985C380.433 115.905 380.381 115.741 380.381 115.493V115.157C380.173 115.437 379.889 115.669 379.529 115.853C379.169 116.029 378.789 116.117 378.389 116.117ZM379.013 115.121C379.277 115.121 379.509 115.069 379.709 114.965C379.917 114.853 380.081 114.721 380.201 114.569V110.201C380.145 110.121 380.025 110.053 379.841 109.997C379.665 109.941 379.473 109.913 379.265 109.913C378.753 109.913 378.341 110.137 378.029 110.585C377.725 111.025 377.573 111.733 377.573 112.709C377.573 113.525 377.705 114.133 377.969 114.533C378.233 114.925 378.581 115.121 379.013 115.121ZM315.94 131.117C314.58 131.117 313.54 130.713 312.82 129.905C312.1 129.089 311.74 127.977 311.74 126.569C311.74 125.641 311.928 124.833 312.304 124.145C312.688 123.449 313.212 122.913 313.876 122.537C314.54 122.161 315.292 121.973 316.132 121.973C316.484 121.973 316.824 121.997 317.152 122.045C317.48 122.085 317.868 122.141 318.316 122.213C318.652 122.269 318.836 122.297 318.868 122.297L318.736 124.769H317.632L317.26 123.053C317.172 122.965 317.02 122.893 316.804 122.837C316.588 122.781 316.312 122.753 315.976 122.753C315.296 122.753 314.748 123.069 314.332 123.701C313.924 124.325 313.72 125.233 313.72 126.425C313.72 127.577 313.916 128.517 314.308 129.245C314.7 129.973 315.272 130.337 316.024 130.337C316.384 130.337 316.66 130.305 316.852 130.241C317.052 130.169 317.22 130.069 317.356 129.941L317.884 128.705L318.892 128.801L318.652 130.661C318.484 130.677 318.316 130.709 318.148 130.757C317.988 130.797 317.888 130.821 317.848 130.829C317.528 130.917 317.228 130.985 316.948 131.033C316.676 131.089 316.34 131.117 315.94 131.117ZM319.831 127.661C319.831 126.909 319.979 126.269 320.275 125.741C320.579 125.213 320.983 124.817 321.487 124.553C321.991 124.281 322.539 124.145 323.131 124.145C324.139 124.145 324.915 124.457 325.459 125.081C326.011 125.697 326.287 126.537 326.287 127.601C326.287 128.361 326.135 129.009 325.831 129.545C325.535 130.073 325.135 130.469 324.631 130.733C324.135 130.989 323.587 131.117 322.987 131.117C321.987 131.117 321.211 130.809 320.659 130.193C320.107 129.569 319.831 128.725 319.831 127.661ZM323.083 130.337C323.987 130.337 324.439 129.465 324.439 127.721C324.439 126.809 324.331 126.117 324.115 125.645C323.899 125.165 323.547 124.925 323.059 124.925C322.131 124.925 321.667 125.797 321.667 127.541C321.667 128.453 321.779 129.149 322.003 129.629C322.235 130.101 322.595 130.337 323.083 130.337ZM327.377 130.265L328.049 130.157V125.453L327.281 125.237V124.409L329.273 124.157L329.417 124.253L329.597 124.649V125.153C329.861 124.897 330.237 124.673 330.725 124.481C331.221 124.281 331.649 124.181 332.009 124.181C332.441 124.181 332.789 124.253 333.053 124.397C333.325 124.541 333.529 124.765 333.665 125.069C333.929 124.829 334.277 124.621 334.709 124.445C335.141 124.269 335.565 124.181 335.981 124.181C336.693 124.181 337.197 124.389 337.493 124.805C337.789 125.221 337.937 125.901 337.937 126.845V130.157L338.717 130.265V130.985H335.609V130.265L336.233 130.157V126.893C336.233 126.269 336.157 125.833 336.005 125.585C335.861 125.329 335.581 125.201 335.165 125.201C334.941 125.201 334.709 125.253 334.469 125.357C334.237 125.453 334.029 125.573 333.845 125.717C333.901 126.021 333.929 126.401 333.929 126.857V130.157L334.673 130.265V130.985H331.541V130.265L332.201 130.157V126.857C332.201 126.441 332.173 126.117 332.117 125.885C332.069 125.645 331.973 125.473 331.829 125.369C331.685 125.257 331.477 125.201 331.205 125.201C330.949 125.201 330.693 125.261 330.437 125.381C330.189 125.493 329.965 125.629 329.765 125.789V130.157L330.473 130.265V130.985H327.377V130.265ZM346.166 127.433C346.166 128.105 346.026 128.721 345.746 129.281C345.474 129.841 345.07 130.289 344.534 130.625C344.006 130.953 343.374 131.117 342.638 131.117C342.478 131.117 342.31 131.101 342.134 131.069C341.966 131.045 341.83 131.013 341.726 130.973L341.762 131.969V133.061L342.878 133.205V133.889H339.314V133.205L340.094 133.061V125.453L339.314 125.237V124.409L341.294 124.157H341.318L341.618 124.397V125.069C341.818 124.821 342.09 124.605 342.434 124.421C342.778 124.237 343.154 124.145 343.562 124.145C344.322 124.145 344.946 124.417 345.434 124.961C345.922 125.497 346.166 126.321 346.166 127.433ZM342.938 125.141C342.698 125.141 342.47 125.193 342.254 125.297C342.038 125.401 341.874 125.517 341.762 125.645V130.097C341.818 130.177 341.93 130.245 342.098 130.301C342.274 130.357 342.466 130.385 342.674 130.385C343.194 130.385 343.606 130.161 343.91 129.713C344.222 129.257 344.378 128.545 344.378 127.577C344.378 126.761 344.246 126.153 343.982 125.753C343.718 125.345 343.37 125.141 342.938 125.141ZM347.147 127.661C347.147 126.909 347.295 126.269 347.591 125.741C347.895 125.213 348.299 124.817 348.803 124.553C349.307 124.281 349.855 124.145 350.447 124.145C351.455 124.145 352.231 124.457 352.775 125.081C353.327 125.697 353.603 126.537 353.603 127.601C353.603 128.361 353.451 129.009 353.147 129.545C352.851 130.073 352.451 130.469 351.947 130.733C351.451 130.989 350.903 131.117 350.303 131.117C349.303 131.117 348.527 130.809 347.975 130.193C347.423 129.569 347.147 128.725 347.147 127.661ZM350.399 130.337C351.303 130.337 351.755 129.465 351.755 127.721C351.755 126.809 351.647 126.117 351.431 125.645C351.215 125.165 350.863 124.925 350.375 124.925C349.447 124.925 348.983 125.797 348.983 127.541C348.983 128.453 349.095 129.149 349.319 129.629C349.551 130.101 349.911 130.337 350.399 130.337ZM355.366 125.453L354.598 125.237V124.409L356.59 124.157H356.626L356.926 124.397V124.865L356.914 125.153C357.194 124.889 357.558 124.661 358.006 124.469C358.454 124.277 358.906 124.181 359.362 124.181C359.85 124.181 360.23 124.273 360.502 124.457C360.782 124.633 360.982 124.913 361.102 125.297C361.222 125.681 361.282 126.201 361.282 126.857V130.169L362.014 130.265V130.985H358.918V130.265L359.566 130.169V126.857C359.566 126.441 359.538 126.117 359.482 125.885C359.426 125.645 359.322 125.473 359.17 125.369C359.026 125.257 358.818 125.201 358.546 125.201C358.09 125.201 357.602 125.397 357.082 125.789V130.157L357.802 130.265V130.985H354.67V130.265L355.366 130.157V125.453ZM365.886 131.117C364.83 131.117 364.042 130.809 363.522 130.193C363.01 129.569 362.754 128.721 362.754 127.649C362.754 126.929 362.886 126.305 363.15 125.777C363.422 125.249 363.802 124.845 364.29 124.565C364.778 124.285 365.342 124.145 365.982 124.145C366.782 124.145 367.398 124.357 367.83 124.781C368.262 125.197 368.486 125.793 368.502 126.569C368.502 127.097 368.47 127.489 368.406 127.745H364.506C364.538 128.473 364.71 129.041 365.022 129.449C365.334 129.849 365.778 130.049 366.354 130.049C366.666 130.049 366.986 129.997 367.314 129.893C367.65 129.789 367.914 129.665 368.106 129.521L368.406 130.181C368.19 130.413 367.838 130.629 367.35 130.829C366.87 131.021 366.382 131.117 365.886 131.117ZM366.822 127.025C366.838 126.801 366.846 126.629 366.846 126.509C366.846 125.445 366.49 124.913 365.778 124.913C365.386 124.913 365.082 125.069 364.866 125.381C364.65 125.693 364.53 126.241 364.506 127.025H366.822ZM370.132 125.453L369.364 125.237V124.409L371.356 124.157H371.392L371.692 124.397V124.865L371.68 125.153C371.96 124.889 372.324 124.661 372.772 124.469C373.22 124.277 373.672 124.181 374.128 124.181C374.616 124.181 374.996 124.273 375.268 124.457C375.548 124.633 375.748 124.913 375.868 125.297C375.988 125.681 376.048 126.201 376.048 126.857V130.169L376.78 130.265V130.985H373.684V130.265L374.332 130.169V126.857C374.332 126.441 374.304 126.117 374.248 125.885C374.192 125.645 374.088 125.473 373.936 125.369C373.792 125.257 373.584 125.201 373.312 125.201C372.856 125.201 372.368 125.397 371.848 125.789V130.157L372.568 130.265V130.985H369.436V130.265L370.132 130.157V125.453ZM379.643 131.093C379.139 131.093 378.767 130.977 378.527 130.745C378.287 130.513 378.167 130.145 378.167 129.641V125.237H377.387V124.613C377.451 124.589 377.567 124.549 377.735 124.493C377.903 124.429 378.031 124.377 378.119 124.337C378.255 124.233 378.371 124.053 378.467 123.797C378.539 123.629 378.671 123.213 378.863 122.549H379.823L379.871 124.313H381.707V125.237H379.883V128.609C379.883 129.057 379.895 129.373 379.919 129.557C379.943 129.741 379.995 129.861 380.075 129.917C380.155 129.965 380.295 129.989 380.495 129.989C380.695 129.989 380.903 129.969 381.119 129.929C381.335 129.881 381.515 129.825 381.659 129.761L381.887 130.433C381.663 130.601 381.335 130.753 380.903 130.889C380.471 131.025 380.051 131.093 379.643 131.093ZM383.858 130.001C383.922 130.097 384.066 130.189 384.29 130.277C384.522 130.357 384.754 130.397 384.986 130.397C385.362 130.397 385.642 130.321 385.826 130.169C386.018 130.009 386.114 129.801 386.114 129.545C386.114 129.281 385.998 129.069 385.766 128.909C385.534 128.741 385.142 128.537 384.59 128.297L384.254 128.153C383.702 127.921 383.29 127.641 383.018 127.313C382.746 126.985 382.61 126.561 382.61 126.041C382.61 125.681 382.718 125.361 382.934 125.081C383.15 124.793 383.454 124.569 383.846 124.409C384.238 124.249 384.69 124.169 385.202 124.169C385.578 124.169 385.898 124.193 386.162 124.241C386.434 124.289 386.718 124.353 387.014 124.433C387.174 124.489 387.294 124.521 387.374 124.529V126.101H386.426L386.15 125.189C386.102 125.109 385.994 125.037 385.826 124.973C385.658 124.909 385.466 124.877 385.25 124.877C384.922 124.877 384.658 124.949 384.458 125.093C384.266 125.229 384.17 125.421 384.17 125.669C384.17 125.893 384.238 126.081 384.374 126.233C384.51 126.377 384.658 126.489 384.818 126.569C384.978 126.649 385.274 126.781 385.706 126.965C386.138 127.149 386.494 127.325 386.774 127.493C387.062 127.661 387.298 127.881 387.482 128.153C387.674 128.417 387.77 128.741 387.77 129.125C387.77 129.717 387.538 130.197 387.074 130.565C386.61 130.933 385.942 131.117 385.07 131.117C384.662 131.117 384.294 131.081 383.966 131.009C383.646 130.937 383.274 130.841 382.85 130.721L382.586 130.637V129.053H383.582L383.858 130.001Z" fill="#383838"/>
<path d="M23.4383 35.0095C22.7903 35.0095 22.2083 34.9555 21.6923 34.8475C21.1763 34.7395 20.6003 34.5955 19.9643 34.4155C19.5443 34.2955 19.2623 34.2295 19.1183 34.2175L19.2803 30.8875H20.7383L21.1343 33.2095C21.2903 33.3775 21.5663 33.5275 21.9623 33.6595C22.3703 33.7915 22.8323 33.8575 23.3483 33.8575C24.1523 33.8575 24.7523 33.6835 25.1483 33.3355C25.5563 32.9755 25.7603 32.4775 25.7603 31.8415C25.7603 31.4215 25.6403 31.0615 25.4003 30.7615C25.1603 30.4495 24.8303 30.1735 24.4103 29.9335C23.9903 29.6815 23.4143 29.3935 22.6823 29.0695C21.6863 28.6135 20.8583 28.0735 20.1983 27.4495C19.5503 26.8135 19.2263 25.9555 19.2263 24.8755C19.2263 24.2035 19.4003 23.5975 19.7483 23.0575C20.0963 22.5055 20.6123 22.0735 21.2963 21.7615C21.9923 21.4375 22.8383 21.2755 23.8343 21.2755C24.4223 21.2755 24.9383 21.3175 25.3823 21.4015C25.8383 21.4855 26.3303 21.5995 26.8583 21.7435C27.1703 21.8275 27.4043 21.8815 27.5603 21.9055L27.4523 25.0555H26.0123L25.6343 22.8415C25.5263 22.7335 25.3103 22.6315 24.9863 22.5355C24.6623 22.4275 24.3023 22.3735 23.9063 22.3735C23.1863 22.3735 22.6403 22.5415 22.2683 22.8775C21.9083 23.2015 21.7283 23.6395 21.7283 24.1915C21.7283 24.6355 21.8603 25.0195 22.1243 25.3435C22.4003 25.6675 22.7303 25.9435 23.1143 26.1715C23.4983 26.3875 24.1043 26.6995 24.9323 27.1075C25.6043 27.4315 26.1803 27.7495 26.6603 28.0615C27.1403 28.3735 27.5543 28.7815 27.9023 29.2855C28.2503 29.7775 28.4243 30.3595 28.4243 31.0315C28.4243 31.6915 28.2563 32.3215 27.9203 32.9215C27.5963 33.5215 27.0563 34.0195 26.3003 34.4155C25.5563 34.8115 24.6023 35.0095 23.4383 35.0095ZM32.772 34.9735C32.016 34.9735 31.458 34.7995 31.098 34.4515C30.738 34.1035 30.558 33.5515 30.558 32.7955V26.1895H29.388V25.2535C29.484 25.2175 29.658 25.1575 29.91 25.0735C30.162 24.9775 30.354 24.8995 30.486 24.8395C30.69 24.6835 30.864 24.4135 31.008 24.0295C31.116 23.7775 31.314 23.1535 31.602 22.1575H33.042L33.114 24.8035H35.868V26.1895H33.132V31.2475C33.132 31.9195 33.15 32.3935 33.186 32.6695C33.222 32.9455 33.3 33.1255 33.42 33.2095C33.54 33.2815 33.75 33.3175 34.05 33.3175C34.35 33.3175 34.662 33.2875 34.986 33.2275C35.31 33.1555 35.58 33.0715 35.796 32.9755L36.138 33.9835C35.802 34.2355 35.31 34.4635 34.662 34.6675C34.014 34.8715 33.384 34.9735 32.772 34.9735ZM37.0957 33.7495L38.2837 33.6055V26.5135L37.1317 26.1895V24.9475L39.9217 24.5695H39.9757L40.4257 24.9295V25.3255L40.3717 26.7835H40.4257C40.5097 26.5435 40.7077 26.2495 41.0197 25.9015C41.3317 25.5415 41.7217 25.2295 42.1897 24.9655C42.6697 24.6895 43.1857 24.5515 43.7377 24.5515C44.0017 24.5515 44.2297 24.5875 44.4217 24.6595V27.3595C44.0617 27.1075 43.6237 26.9815 43.1077 26.9815C42.2317 26.9815 41.4697 27.2155 40.8217 27.6835V33.5875L42.9097 33.7495V34.8115H37.0957V33.7495ZM47.7103 23.1655C47.2783 23.1655 46.9363 23.0395 46.6843 22.7875C46.4323 22.5355 46.3063 22.2115 46.3063 21.8155C46.3063 21.3595 46.4503 20.9815 46.7383 20.6815C47.0263 20.3815 47.4103 20.2315 47.8903 20.2315C48.3703 20.2315 48.7363 20.3635 48.9883 20.6275C49.2403 20.8795 49.3663 21.1975 49.3663 21.5815C49.3663 22.0615 49.2223 22.4455 48.9343 22.7335C48.6463 23.0215 48.2443 23.1655 47.7283 23.1655H47.7103ZM46.7563 26.5135L45.4783 26.1715V24.9655L48.7723 24.5695H48.8083L49.3123 24.9295V33.5875L50.5183 33.7315V34.8115H45.4963V33.7315L46.7563 33.5695V26.5135ZM51.5746 29.8615C51.5746 28.8295 51.7786 27.9115 52.1866 27.1075C52.6066 26.3035 53.2006 25.6795 53.9686 25.2355C54.7486 24.7795 55.6546 24.5515 56.6866 24.5515C57.1666 24.5515 57.5806 24.5875 57.9286 24.6595C58.2766 24.7315 58.6666 24.8275 59.0986 24.9475L59.6206 25.0915L59.5126 28.1695H57.9466L57.4966 26.1895C57.4246 25.8775 57.0706 25.7215 56.4346 25.7215C55.7626 25.7215 55.2346 26.0155 54.8506 26.6035C54.4786 27.1915 54.2866 28.1095 54.2746 29.3575C54.2746 30.6775 54.5026 31.6915 54.9586 32.3995C55.4146 33.0955 56.0206 33.4435 56.7766 33.4435C57.6886 33.4435 58.5286 33.1975 59.2966 32.7055L59.7106 33.6415C59.3986 33.9775 58.9186 34.2895 58.2706 34.5775C57.6346 34.8655 56.9446 35.0095 56.2006 35.0095C54.6646 35.0095 53.5066 34.5355 52.7266 33.5875C51.9586 32.6395 51.5746 31.3975 51.5746 29.8615ZM64.1666 34.9735C63.4106 34.9735 62.8526 34.7995 62.4926 34.4515C62.1326 34.1035 61.9526 33.5515 61.9526 32.7955V26.1895H60.7826V25.2535C60.8786 25.2175 61.0526 25.1575 61.3046 25.0735C61.5566 24.9775 61.7486 24.8995 61.8806 24.8395C62.0846 24.6835 62.2586 24.4135 62.4026 24.0295C62.5106 23.7775 62.7086 23.1535 62.9966 22.1575H64.4366L64.5086 24.8035H67.2626V26.1895H64.5266V31.2475C64.5266 31.9195 64.5446 32.3935 64.5806 32.6695C64.6166 32.9455 64.6946 33.1255 64.8146 33.2095C64.9346 33.2815 65.1446 33.3175 65.4446 33.3175C65.7446 33.3175 66.0566 33.2875 66.3806 33.2275C66.7046 33.1555 66.9746 33.0715 67.1906 32.9755L67.5326 33.9835C67.1966 34.2355 66.7046 34.4635 66.0566 34.6675C65.4086 34.8715 64.7786 34.9735 64.1666 34.9735Z" fill="#383838"/>
<path d="M314.862 22.7875L313.386 22.5535V21.4375H323.322L323.502 24.6955H322.062L321.396 22.7155L317.508 22.5175V27.6115L320.19 27.5575L320.532 25.9735H321.684V30.5455H320.55L320.19 28.9255L317.508 28.8535V33.5515L320.262 33.7315V34.8115H313.476V33.7315L314.862 33.5515V22.7875ZM325.79 21.6535L324.458 21.4195V20.4475L327.788 20.0515H327.824L328.31 20.3935V33.5875L329.624 33.7315V34.8115H324.53V33.7315L325.79 33.5695V21.6535ZM335.399 35.0095C333.815 35.0095 332.633 34.5475 331.853 33.6235C331.085 32.6875 330.701 31.4155 330.701 29.8075C330.701 28.7275 330.899 27.7915 331.295 26.9995C331.703 26.2075 332.273 25.6015 333.005 25.1815C333.737 24.7615 334.583 24.5515 335.543 24.5515C336.743 24.5515 337.667 24.8695 338.315 25.5055C338.963 26.1295 339.299 27.0235 339.323 28.1875C339.323 28.9795 339.275 29.5675 339.179 29.9515H333.329C333.377 31.0435 333.635 31.8955 334.103 32.5075C334.571 33.1075 335.237 33.4075 336.101 33.4075C336.569 33.4075 337.049 33.3295 337.541 33.1735C338.045 33.0175 338.441 32.8315 338.729 32.6155L339.179 33.6055C338.855 33.9535 338.327 34.2775 337.595 34.5775C336.875 34.8655 336.143 35.0095 335.399 35.0095ZM336.803 28.8715C336.827 28.5355 336.839 28.2775 336.839 28.0975C336.839 26.5015 336.305 25.7035 335.237 25.7035C334.649 25.7035 334.193 25.9375 333.869 26.4055C333.545 26.8735 333.365 27.6955 333.329 28.8715H336.803ZM344.053 29.8975L341.083 26.0635L340.147 25.8475V24.8035H345.349V25.8475L344.179 26.0635L345.601 28.0615L346.069 28.8175L346.537 28.0615L347.995 26.0635L346.771 25.8475V24.8035H350.677V25.8475L349.651 26.0635L346.807 29.5555L349.921 33.5875L350.911 33.7495V34.8115H345.709V33.7495L346.771 33.5695L345.385 31.4635L344.845 30.6715L344.413 31.4455L342.937 33.5695L344.323 33.7495V34.8115H340.003V33.7495L341.155 33.5695L344.053 29.8975ZM353.8 23.1655C353.368 23.1655 353.026 23.0395 352.774 22.7875C352.522 22.5355 352.396 22.2115 352.396 21.8155C352.396 21.3595 352.54 20.9815 352.828 20.6815C353.116 20.3815 353.5 20.2315 353.98 20.2315C354.46 20.2315 354.826 20.3635 355.078 20.6275C355.33 20.8795 355.456 21.1975 355.456 21.5815C355.456 22.0615 355.312 22.4455 355.024 22.7335C354.736 23.0215 354.334 23.1655 353.818 23.1655H353.8ZM352.846 26.5135L351.568 26.1715V24.9655L354.862 24.5695H354.898L355.402 24.9295V33.5875L356.608 33.7315V34.8115H351.586V33.7315L352.846 33.5695V26.5135ZM357.088 20.4475L360.382 20.0515H360.418L360.922 20.3935V25.7035C361.246 25.3795 361.642 25.1095 362.11 24.8935C362.59 24.6655 363.106 24.5515 363.658 24.5515C364.81 24.5515 365.746 24.9595 366.466 25.7755C367.198 26.5795 367.564 27.8155 367.564 29.4835C367.564 30.5155 367.348 31.4515 366.916 32.2915C366.484 33.1315 365.86 33.7975 365.044 34.2895C364.24 34.7695 363.304 35.0095 362.236 35.0095C361.288 35.0095 360.466 34.9315 359.77 34.7755C359.074 34.6075 358.63 34.4575 358.438 34.3255V21.5995L357.088 21.3835V20.4475ZM362.704 26.1355C362.344 26.1355 362.002 26.2195 361.678 26.3875C361.366 26.5435 361.114 26.7235 360.922 26.9275V33.4975C360.994 33.6295 361.162 33.7375 361.426 33.8215C361.69 33.9055 361.99 33.9475 362.326 33.9475C363.094 33.9475 363.706 33.5935 364.162 32.8855C364.63 32.1655 364.864 31.1035 364.864 29.6995C364.864 28.4875 364.666 27.5935 364.27 27.0175C363.874 26.4295 363.352 26.1355 362.704 26.1355ZM370.069 21.6535L368.737 21.4195V20.4475L372.067 20.0515H372.103L372.589 20.3935V33.5875L373.903 33.7315V34.8115H368.809V33.7315L370.069 33.5695V21.6535ZM379.678 35.0095C378.094 35.0095 376.912 34.5475 376.132 33.6235C375.364 32.6875 374.98 31.4155 374.98 29.8075C374.98 28.7275 375.178 27.7915 375.574 26.9995C375.982 26.2075 376.552 25.6015 377.284 25.1815C378.016 24.7615 378.862 24.5515 379.822 24.5515C381.022 24.5515 381.946 24.8695 382.594 25.5055C383.242 26.1295 383.578 27.0235 383.602 28.1875C383.602 28.9795 383.554 29.5675 383.458 29.9515H377.608C377.656 31.0435 377.914 31.8955 378.382 32.5075C378.85 33.1075 379.516 33.4075 380.38 33.4075C380.848 33.4075 381.328 33.3295 381.82 33.1735C382.324 33.0175 382.72 32.8315 383.008 32.6155L383.458 33.6055C383.134 33.9535 382.606 34.2775 381.874 34.5775C381.154 34.8655 380.422 35.0095 379.678 35.0095ZM381.082 28.8715C381.106 28.5355 381.118 28.2775 381.118 28.0975C381.118 26.5015 380.584 25.7035 379.516 25.7035C378.928 25.7035 378.472 25.9375 378.148 26.4055C377.824 26.8735 377.644 27.6955 377.608 28.8715H381.082Z" fill="#383838"/>
<path d="M154.08 180.557L152.136 180.323V179.207H157.752L159.894 186.947L160.398 189.053L160.83 186.947L162.954 179.207H168.516V180.323L166.554 180.557L167.994 191.303L169.452 191.501V192.581H163.71V191.501L165.294 191.321L164.502 183.437L164.16 180.143L163.494 182.915L160.884 192.023H158.976L156.312 183.383L155.394 180.143L155.124 183.437L154.44 191.321L156.258 191.501V192.581H151.254V191.501L152.766 191.321L154.08 180.557ZM170.309 187.595C170.309 186.467 170.531 185.507 170.975 184.715C171.431 183.923 172.037 183.329 172.793 182.933C173.549 182.525 174.371 182.321 175.259 182.321C176.771 182.321 177.935 182.789 178.751 183.725C179.579 184.649 179.993 185.909 179.993 187.505C179.993 188.645 179.765 189.617 179.309 190.421C178.865 191.213 178.265 191.807 177.509 192.203C176.765 192.587 175.943 192.779 175.043 192.779C173.543 192.779 172.379 192.317 171.551 191.393C170.723 190.457 170.309 189.191 170.309 187.595ZM175.187 191.609C176.543 191.609 177.221 190.301 177.221 187.685C177.221 186.317 177.059 185.279 176.735 184.571C176.411 183.851 175.883 183.491 175.151 183.491C173.759 183.491 173.063 184.799 173.063 187.415C173.063 188.783 173.231 189.827 173.567 190.547C173.915 191.255 174.455 191.609 175.187 191.609ZM185.391 192.779C184.647 192.779 183.981 192.605 183.393 192.257C182.805 191.897 182.337 191.345 181.989 190.601C181.641 189.857 181.467 188.927 181.467 187.811C181.467 186.803 181.671 185.885 182.079 185.057C182.499 184.217 183.111 183.551 183.915 183.059C184.719 182.567 185.685 182.321 186.813 182.321C187.269 182.321 187.701 182.369 188.109 182.465V179.423L186.345 179.171V178.181L190.053 177.821H190.107L190.611 178.199V191.483H191.583V192.509C190.719 192.689 190.005 192.779 189.441 192.779C189.057 192.779 188.781 192.713 188.613 192.581C188.457 192.461 188.379 192.215 188.379 191.843V191.339C188.067 191.759 187.641 192.107 187.101 192.383C186.561 192.647 185.991 192.779 185.391 192.779ZM186.327 191.285C186.723 191.285 187.071 191.207 187.371 191.051C187.683 190.883 187.929 190.685 188.109 190.457V183.905C188.025 183.785 187.845 183.683 187.569 183.599C187.305 183.515 187.017 183.473 186.705 183.473C185.937 183.473 185.319 183.809 184.851 184.481C184.395 185.141 184.167 186.203 184.167 187.667C184.167 188.891 184.365 189.803 184.761 190.403C185.157 190.991 185.679 191.285 186.327 191.285ZM195.039 180.935C194.607 180.935 194.265 180.809 194.013 180.557C193.761 180.305 193.635 179.981 193.635 179.585C193.635 179.129 193.779 178.751 194.067 178.451C194.355 178.151 194.739 178.001 195.219 178.001C195.699 178.001 196.065 178.133 196.317 178.397C196.569 178.649 196.695 178.967 196.695 179.351C196.695 179.831 196.551 180.215 196.263 180.503C195.975 180.791 195.573 180.935 195.057 180.935H195.039ZM194.085 184.283L192.807 183.941V182.735L196.101 182.339H196.137L196.641 182.699V191.357L197.847 191.501V192.581H192.825V191.501L194.085 191.339V184.283ZM200.379 183.977H198.867V182.969L200.379 182.609V181.817C200.379 181.037 200.583 180.323 200.991 179.675C201.411 179.027 201.969 178.517 202.665 178.145C203.361 177.761 204.099 177.569 204.879 177.569C205.287 177.569 205.671 177.629 206.031 177.749V180.053C205.911 179.933 205.671 179.813 205.311 179.693C204.963 179.573 204.597 179.513 204.213 179.513C203.745 179.513 203.409 179.633 203.205 179.873C203.013 180.101 202.917 180.497 202.917 181.061V182.591H205.203V183.977H202.917V191.357L204.807 191.501V192.581H198.957V191.501L200.379 191.339V183.977ZM208.623 180.935C208.191 180.935 207.849 180.809 207.597 180.557C207.345 180.305 207.219 179.981 207.219 179.585C207.219 179.129 207.363 178.751 207.651 178.451C207.939 178.151 208.323 178.001 208.803 178.001C209.283 178.001 209.649 178.133 209.901 178.397C210.153 178.649 210.279 178.967 210.279 179.351C210.279 179.831 210.135 180.215 209.847 180.503C209.559 180.791 209.157 180.935 208.641 180.935H208.623ZM207.669 184.283L206.391 183.941V182.735L209.685 182.339H209.721L210.225 182.699V191.357L211.431 191.501V192.581H206.409V191.501L207.669 191.339V184.283ZM217.261 192.779C215.677 192.779 214.495 192.317 213.715 191.393C212.947 190.457 212.563 189.185 212.563 187.577C212.563 186.497 212.761 185.561 213.157 184.769C213.565 183.977 214.135 183.371 214.867 182.951C215.599 182.531 216.445 182.321 217.405 182.321C218.605 182.321 219.529 182.639 220.177 183.275C220.825 183.899 221.161 184.793 221.185 185.957C221.185 186.749 221.137 187.337 221.041 187.721H215.191C215.239 188.813 215.497 189.665 215.965 190.277C216.433 190.877 217.099 191.177 217.963 191.177C218.431 191.177 218.911 191.099 219.403 190.943C219.907 190.787 220.303 190.601 220.591 190.385L221.041 191.375C220.717 191.723 220.189 192.047 219.457 192.347C218.737 192.635 218.005 192.779 217.261 192.779ZM218.665 186.641C218.689 186.305 218.701 186.047 218.701 185.867C218.701 184.271 218.167 183.473 217.099 183.473C216.511 183.473 216.055 183.707 215.731 184.175C215.407 184.643 215.227 185.465 215.191 186.641H218.665ZM222.621 191.519L223.809 191.375V184.283L222.657 183.959V182.717L225.447 182.339H225.501L225.951 182.699V183.095L225.897 184.553H225.951C226.035 184.313 226.233 184.019 226.545 183.671C226.857 183.311 227.247 182.999 227.715 182.735C228.195 182.459 228.711 182.321 229.263 182.321C229.527 182.321 229.755 182.357 229.947 182.429V185.129C229.587 184.877 229.149 184.751 228.633 184.751C227.757 184.751 226.995 184.985 226.347 185.453V191.357L228.435 191.519V192.581H222.621V191.519ZM233.092 191.105C233.188 191.249 233.404 191.387 233.74 191.519C234.088 191.639 234.436 191.699 234.784 191.699C235.348 191.699 235.768 191.585 236.044 191.357C236.332 191.117 236.476 190.805 236.476 190.421C236.476 190.025 236.302 189.707 235.954 189.467C235.606 189.215 235.018 188.909 234.19 188.549L233.686 188.333C232.858 187.985 232.24 187.565 231.832 187.073C231.424 186.581 231.22 185.945 231.22 185.165C231.22 184.625 231.382 184.145 231.706 183.725C232.03 183.293 232.486 182.957 233.074 182.717C233.662 182.477 234.34 182.357 235.108 182.357C235.672 182.357 236.152 182.393 236.548 182.465C236.956 182.537 237.382 182.633 237.826 182.753C238.066 182.837 238.246 182.885 238.366 182.897V185.255H236.944L236.53 183.887C236.458 183.767 236.296 183.659 236.044 183.563C235.792 183.467 235.504 183.419 235.18 183.419C234.688 183.419 234.292 183.527 233.992 183.743C233.704 183.947 233.56 184.235 233.56 184.607C233.56 184.943 233.662 185.225 233.866 185.453C234.07 185.669 234.292 185.837 234.532 185.957C234.772 186.077 235.216 186.275 235.864 186.551C236.512 186.827 237.046 187.091 237.466 187.343C237.898 187.595 238.252 187.925 238.528 188.333C238.816 188.729 238.96 189.215 238.96 189.791C238.96 190.679 238.612 191.399 237.916 191.951C237.22 192.503 236.218 192.779 234.91 192.779C234.298 192.779 233.746 192.725 233.254 192.617C232.774 192.509 232.216 192.365 231.58 192.185L231.184 192.059V189.683H232.678L233.092 191.105Z" fill="#383838"/>
<path d="M116.776 228.537L117.724 228.417V221.241L116.824 221.073V220.341H118.564C118.716 220.341 118.884 220.337 119.068 220.329C119.252 220.321 119.392 220.313 119.488 220.305C119.904 220.273 120.248 220.257 120.52 220.257C121.344 220.257 122.004 220.341 122.5 220.509C122.996 220.677 123.356 220.933 123.58 221.277C123.804 221.621 123.916 222.073 123.916 222.633C123.916 223.185 123.768 223.697 123.472 224.169C123.176 224.641 122.748 224.965 122.188 225.141C122.508 225.277 122.792 225.525 123.04 225.885C123.288 226.245 123.552 226.713 123.832 227.289C124.032 227.681 124.184 227.965 124.288 228.141C124.4 228.309 124.508 228.405 124.612 228.429L125.008 228.549V229.257H122.968C122.84 229.257 122.704 229.129 122.56 228.873C122.424 228.609 122.244 228.197 122.02 227.637C121.756 226.981 121.528 226.469 121.336 226.101C121.144 225.733 120.94 225.505 120.724 225.417H119.488V228.417L120.592 228.537V229.257H116.776V228.537ZM120.592 224.685C121.048 224.685 121.404 224.521 121.66 224.193C121.916 223.865 122.044 223.373 122.044 222.717C122.044 222.133 121.916 221.701 121.66 221.421C121.412 221.141 120.98 221.001 120.364 221.001C120.14 221.001 119.948 221.013 119.788 221.037C119.636 221.053 119.536 221.061 119.488 221.061V224.661C119.584 224.677 119.816 224.685 120.184 224.685H120.592ZM128.52 229.389C127.464 229.389 126.676 229.081 126.156 228.465C125.644 227.841 125.388 226.993 125.388 225.921C125.388 225.201 125.52 224.577 125.784 224.049C126.056 223.521 126.436 223.117 126.924 222.837C127.412 222.557 127.976 222.417 128.616 222.417C129.416 222.417 130.032 222.629 130.464 223.053C130.896 223.469 131.12 224.065 131.136 224.841C131.136 225.369 131.104 225.761 131.04 226.017H127.14C127.172 226.745 127.344 227.313 127.656 227.721C127.968 228.121 128.412 228.321 128.988 228.321C129.3 228.321 129.62 228.269 129.948 228.165C130.284 228.061 130.548 227.937 130.74 227.793L131.04 228.453C130.824 228.685 130.472 228.901 129.984 229.101C129.504 229.293 129.016 229.389 128.52 229.389ZM129.456 225.297C129.472 225.073 129.48 224.901 129.48 224.781C129.48 223.717 129.124 223.185 128.412 223.185C128.02 223.185 127.716 223.341 127.5 223.653C127.284 223.965 127.164 224.513 127.14 225.297H129.456ZM132.766 223.725L131.998 223.509V222.681L133.99 222.429H134.026L134.326 222.669V223.137L134.314 223.425C134.594 223.161 134.958 222.933 135.406 222.741C135.854 222.549 136.306 222.453 136.762 222.453C137.25 222.453 137.63 222.545 137.902 222.729C138.182 222.905 138.382 223.185 138.502 223.569C138.622 223.953 138.682 224.473 138.682 225.129V228.441L139.414 228.537V229.257H136.318V228.537L136.966 228.441V225.129C136.966 224.713 136.938 224.389 136.882 224.157C136.826 223.917 136.722 223.745 136.57 223.641C136.426 223.529 136.218 223.473 135.946 223.473C135.49 223.473 135.002 223.669 134.482 224.061V228.429L135.202 228.537V229.257H132.07V228.537L132.766 228.429V223.725ZM142.77 229.389C142.274 229.389 141.83 229.273 141.438 229.041C141.046 228.801 140.734 228.433 140.502 227.937C140.27 227.441 140.154 226.821 140.154 226.077C140.154 225.405 140.29 224.793 140.562 224.241C140.842 223.681 141.25 223.237 141.786 222.909C142.322 222.581 142.966 222.417 143.718 222.417C144.022 222.417 144.31 222.449 144.582 222.513V220.485L143.406 220.317V219.657L145.878 219.417H145.914L146.25 219.669V228.525H146.898V229.209C146.322 229.329 145.846 229.389 145.47 229.389C145.214 229.389 145.03 229.345 144.918 229.257C144.814 229.177 144.762 229.013 144.762 228.765V228.429C144.554 228.709 144.27 228.941 143.91 229.125C143.55 229.301 143.17 229.389 142.77 229.389ZM143.394 228.393C143.658 228.393 143.89 228.341 144.09 228.237C144.298 228.125 144.462 227.993 144.582 227.841V223.473C144.526 223.393 144.406 223.325 144.222 223.269C144.046 223.213 143.854 223.185 143.646 223.185C143.134 223.185 142.722 223.409 142.41 223.857C142.106 224.297 141.954 225.005 141.954 225.981C141.954 226.797 142.086 227.405 142.35 227.805C142.614 228.197 142.962 228.393 143.394 228.393ZM150.797 229.389C149.741 229.389 148.953 229.081 148.433 228.465C147.921 227.841 147.665 226.993 147.665 225.921C147.665 225.201 147.797 224.577 148.061 224.049C148.333 223.521 148.713 223.117 149.201 222.837C149.689 222.557 150.253 222.417 150.893 222.417C151.693 222.417 152.309 222.629 152.741 223.053C153.173 223.469 153.397 224.065 153.413 224.841C153.413 225.369 153.381 225.761 153.317 226.017H149.417C149.449 226.745 149.621 227.313 149.933 227.721C150.245 228.121 150.689 228.321 151.265 228.321C151.577 228.321 151.897 228.269 152.225 228.165C152.561 228.061 152.825 227.937 153.017 227.793L153.317 228.453C153.101 228.685 152.749 228.901 152.261 229.101C151.781 229.293 151.293 229.389 150.797 229.389ZM151.733 225.297C151.749 225.073 151.757 224.901 151.757 224.781C151.757 223.717 151.401 223.185 150.689 223.185C150.297 223.185 149.993 223.341 149.777 223.653C149.561 223.965 149.441 224.513 149.417 225.297H151.733ZM154.371 228.549L155.163 228.453V223.725L154.395 223.509V222.681L156.255 222.429H156.291L156.591 222.669V222.933L156.555 223.905H156.591C156.647 223.745 156.779 223.549 156.987 223.317C157.195 223.077 157.455 222.869 157.767 222.693C158.087 222.509 158.431 222.417 158.799 222.417C158.975 222.417 159.127 222.441 159.255 222.489V224.289C159.015 224.121 158.723 224.037 158.379 224.037C157.795 224.037 157.287 224.193 156.855 224.505V228.441L158.247 228.549V229.257H154.371V228.549ZM163.755 221.241L162.855 221.085V220.341H164.667C164.835 220.341 165.095 220.333 165.447 220.317C165.911 220.285 166.331 220.269 166.707 220.269C167.539 220.269 168.195 220.373 168.675 220.581C169.163 220.781 169.507 221.073 169.707 221.457C169.915 221.833 170.019 222.313 170.019 222.897C170.019 223.905 169.703 224.689 169.071 225.249C168.447 225.809 167.579 226.089 166.467 226.089C166.027 226.089 165.711 226.077 165.519 226.053V228.417L167.127 228.537V229.257H162.807V228.537L163.755 228.417V221.241ZM165.507 225.285C165.691 225.325 166.003 225.345 166.443 225.345C166.979 225.345 167.407 225.161 167.727 224.793C168.055 224.417 168.219 223.797 168.219 222.933C168.219 222.261 168.071 221.773 167.775 221.469C167.487 221.157 167.043 221.001 166.443 221.001C166.219 221.001 165.987 221.017 165.747 221.049C165.635 221.065 165.555 221.073 165.507 221.073V225.285ZM170.801 228.549L171.593 228.453V223.725L170.825 223.509V222.681L172.685 222.429H172.721L173.021 222.669V222.933L172.985 223.905H173.021C173.077 223.745 173.209 223.549 173.417 223.317C173.625 223.077 173.885 222.869 174.197 222.693C174.517 222.509 174.861 222.417 175.229 222.417C175.405 222.417 175.557 222.441 175.685 222.489V224.289C175.445 224.121 175.153 224.037 174.809 224.037C174.225 224.037 173.717 224.193 173.285 224.505V228.441L174.677 228.549V229.257H170.801V228.549ZM176.449 225.933C176.449 225.181 176.597 224.541 176.893 224.013C177.197 223.485 177.601 223.089 178.105 222.825C178.609 222.553 179.157 222.417 179.749 222.417C180.757 222.417 181.533 222.729 182.077 223.353C182.629 223.969 182.905 224.809 182.905 225.873C182.905 226.633 182.753 227.281 182.449 227.817C182.153 228.345 181.753 228.741 181.249 229.005C180.753 229.261 180.205 229.389 179.605 229.389C178.605 229.389 177.829 229.081 177.277 228.465C176.725 227.841 176.449 226.997 176.449 225.933ZM179.701 228.609C180.605 228.609 181.057 227.737 181.057 225.993C181.057 225.081 180.949 224.389 180.733 223.917C180.517 223.437 180.165 223.197 179.677 223.197C178.749 223.197 178.285 224.069 178.285 225.813C178.285 226.725 178.397 227.421 178.621 227.901C178.853 228.373 179.213 228.609 179.701 228.609ZM190.632 225.705C190.632 226.377 190.492 226.993 190.212 227.553C189.94 228.113 189.536 228.561 189 228.897C188.472 229.225 187.84 229.389 187.104 229.389C186.944 229.389 186.776 229.373 186.6 229.341C186.432 229.317 186.296 229.285 186.192 229.245L186.228 230.241V231.333L187.344 231.477V232.161H183.78V231.477L184.56 231.333V223.725L183.78 223.509V222.681L185.76 222.429H185.784L186.084 222.669V223.341C186.284 223.093 186.556 222.877 186.9 222.693C187.244 222.509 187.62 222.417 188.028 222.417C188.788 222.417 189.412 222.689 189.9 223.233C190.388 223.769 190.632 224.593 190.632 225.705ZM187.404 223.413C187.164 223.413 186.936 223.465 186.72 223.569C186.504 223.673 186.34 223.789 186.228 223.917V228.369C186.284 228.449 186.396 228.517 186.564 228.573C186.74 228.629 186.932 228.657 187.14 228.657C187.66 228.657 188.072 228.433 188.376 227.985C188.688 227.529 188.844 226.817 188.844 225.849C188.844 225.033 188.712 224.425 188.448 224.025C188.184 223.617 187.836 223.413 187.404 223.413ZM192.945 228.273C193.009 228.369 193.153 228.461 193.377 228.549C193.609 228.629 193.841 228.669 194.073 228.669C194.449 228.669 194.729 228.593 194.913 228.441C195.105 228.281 195.201 228.073 195.201 227.817C195.201 227.553 195.085 227.341 194.853 227.181C194.621 227.013 194.229 226.809 193.677 226.569L193.341 226.425C192.789 226.193 192.377 225.913 192.105 225.585C191.833 225.257 191.697 224.833 191.697 224.313C191.697 223.953 191.805 223.633 192.021 223.353C192.237 223.065 192.541 222.841 192.933 222.681C193.325 222.521 193.777 222.441 194.289 222.441C194.665 222.441 194.985 222.465 195.249 222.513C195.521 222.561 195.805 222.625 196.101 222.705C196.261 222.761 196.381 222.793 196.461 222.801V224.373H195.513L195.237 223.461C195.189 223.381 195.081 223.309 194.913 223.245C194.745 223.181 194.553 223.149 194.337 223.149C194.009 223.149 193.745 223.221 193.545 223.365C193.353 223.501 193.257 223.693 193.257 223.941C193.257 224.165 193.325 224.353 193.461 224.505C193.597 224.649 193.745 224.761 193.905 224.841C194.065 224.921 194.361 225.053 194.793 225.237C195.225 225.421 195.581 225.597 195.861 225.765C196.149 225.933 196.385 226.153 196.569 226.425C196.761 226.689 196.857 227.013 196.857 227.397C196.857 227.989 196.625 228.469 196.161 228.837C195.697 229.205 195.029 229.389 194.157 229.389C193.749 229.389 193.381 229.353 193.053 229.281C192.733 229.209 192.361 229.113 191.937 228.993L191.673 228.909V227.325H192.669L192.945 228.273Z" fill="#383838"/>
<rect x="99.5077" y="224.856" width="12.9231" height="1.49216" fill="#2AC1E2"/>
<rect x="106.715" y="219.136" width="12.9319" height="1.49113" transform="rotate(90 106.715 219.136)" fill="#2AC1E2"/>
<path d="M261.717 229.389C260.357 229.389 259.317 228.985 258.597 228.177C257.877 227.361 257.517 226.249 257.517 224.841C257.517 223.913 257.705 223.105 258.081 222.417C258.465 221.721 258.989 221.185 259.653 220.809C260.317 220.433 261.069 220.245 261.909 220.245C262.261 220.245 262.601 220.269 262.929 220.317C263.257 220.357 263.645 220.413 264.093 220.485C264.429 220.541 264.613 220.569 264.645 220.569L264.513 223.041H263.409L263.037 221.325C262.949 221.237 262.797 221.165 262.581 221.109C262.365 221.053 262.089 221.025 261.753 221.025C261.073 221.025 260.525 221.341 260.109 221.973C259.701 222.597 259.497 223.505 259.497 224.697C259.497 225.849 259.693 226.789 260.085 227.517C260.477 228.245 261.049 228.609 261.801 228.609C262.161 228.609 262.437 228.577 262.629 228.513C262.829 228.441 262.997 228.341 263.133 228.213L263.661 226.977L264.669 227.073L264.429 228.933C264.261 228.949 264.093 228.981 263.925 229.029C263.765 229.069 263.665 229.093 263.625 229.101C263.305 229.189 263.005 229.257 262.725 229.305C262.453 229.361 262.117 229.389 261.717 229.389ZM265.608 225.933C265.608 225.181 265.756 224.541 266.052 224.013C266.356 223.485 266.76 223.089 267.264 222.825C267.768 222.553 268.316 222.417 268.908 222.417C269.916 222.417 270.692 222.729 271.236 223.353C271.788 223.969 272.064 224.809 272.064 225.873C272.064 226.633 271.912 227.281 271.608 227.817C271.312 228.345 270.912 228.741 270.408 229.005C269.912 229.261 269.364 229.389 268.764 229.389C267.764 229.389 266.988 229.081 266.436 228.465C265.884 227.841 265.608 226.997 265.608 225.933ZM268.86 228.609C269.764 228.609 270.216 227.737 270.216 225.993C270.216 225.081 270.108 224.389 269.892 223.917C269.676 223.437 269.324 223.197 268.836 223.197C267.908 223.197 267.444 224.069 267.444 225.813C267.444 226.725 267.556 227.421 267.78 227.901C268.012 228.373 268.372 228.609 268.86 228.609ZM273.827 223.725L273.059 223.509V222.681L275.051 222.429H275.087L275.387 222.669V223.137L275.375 223.425C275.655 223.161 276.019 222.933 276.467 222.741C276.915 222.549 277.367 222.453 277.823 222.453C278.311 222.453 278.691 222.545 278.963 222.729C279.243 222.905 279.443 223.185 279.563 223.569C279.683 223.953 279.743 224.473 279.743 225.129V228.441L280.475 228.537V229.257H277.379V228.537L278.027 228.441V225.129C278.027 224.713 277.999 224.389 277.943 224.157C277.887 223.917 277.783 223.745 277.631 223.641C277.487 223.529 277.279 223.473 277.007 223.473C276.551 223.473 276.063 223.669 275.543 224.061V228.429L276.263 228.537V229.257H273.131V228.537L273.827 228.429V223.725ZM283.339 229.365C282.835 229.365 282.463 229.249 282.223 229.017C281.983 228.785 281.863 228.417 281.863 227.913V223.509H281.083V222.885C281.147 222.861 281.263 222.821 281.431 222.765C281.599 222.701 281.727 222.649 281.815 222.609C281.951 222.505 282.067 222.325 282.163 222.069C282.235 221.901 282.367 221.485 282.559 220.821H283.519L283.567 222.585H285.403V223.509H283.579V226.881C283.579 227.329 283.591 227.645 283.615 227.829C283.639 228.013 283.691 228.133 283.771 228.189C283.851 228.237 283.991 228.261 284.191 228.261C284.391 228.261 284.599 228.241 284.815 228.201C285.031 228.153 285.211 228.097 285.355 228.033L285.583 228.705C285.359 228.873 285.031 229.025 284.599 229.161C284.167 229.297 283.747 229.365 283.339 229.365ZM289.245 229.389C288.189 229.389 287.401 229.081 286.881 228.465C286.369 227.841 286.113 226.993 286.113 225.921C286.113 225.201 286.245 224.577 286.509 224.049C286.781 223.521 287.161 223.117 287.649 222.837C288.137 222.557 288.701 222.417 289.341 222.417C290.141 222.417 290.757 222.629 291.189 223.053C291.621 223.469 291.845 224.065 291.861 224.841C291.861 225.369 291.829 225.761 291.765 226.017H287.865C287.897 226.745 288.069 227.313 288.381 227.721C288.693 228.121 289.137 228.321 289.713 228.321C290.025 228.321 290.345 228.269 290.673 228.165C291.009 228.061 291.273 227.937 291.465 227.793L291.765 228.453C291.549 228.685 291.197 228.901 290.709 229.101C290.229 229.293 289.741 229.389 289.245 229.389ZM290.181 225.297C290.197 225.073 290.205 224.901 290.205 224.781C290.205 223.717 289.849 223.185 289.137 223.185C288.745 223.185 288.441 223.341 288.225 223.653C288.009 223.965 287.889 224.513 287.865 225.297H290.181ZM295.015 225.981L293.035 223.425L292.411 223.281V222.585H295.879V223.281L295.099 223.425L296.047 224.757L296.359 225.261L296.671 224.757L297.643 223.425L296.827 223.281V222.585H299.431V223.281L298.747 223.425L296.851 225.753L298.927 228.441L299.587 228.549V229.257H296.119V228.549L296.827 228.429L295.903 227.025L295.543 226.497L295.255 227.013L294.271 228.429L295.195 228.549V229.257H292.315V228.549L293.083 228.429L295.015 225.981ZM302.1 229.365C301.596 229.365 301.224 229.249 300.984 229.017C300.744 228.785 300.624 228.417 300.624 227.913V223.509H299.844V222.885C299.908 222.861 300.024 222.821 300.192 222.765C300.36 222.701 300.488 222.649 300.576 222.609C300.712 222.505 300.828 222.325 300.924 222.069C300.996 221.901 301.128 221.485 301.32 220.821H302.28L302.328 222.585H304.164V223.509H302.34V226.881C302.34 227.329 302.352 227.645 302.376 227.829C302.4 228.013 302.452 228.133 302.532 228.189C302.612 228.237 302.752 228.261 302.952 228.261C303.152 228.261 303.36 228.241 303.576 228.201C303.792 228.153 303.972 228.097 304.116 228.033L304.344 228.705C304.12 228.873 303.792 229.025 303.36 229.161C302.928 229.297 302.508 229.365 302.1 229.365Z" fill="#383838"/>
<rect x="240.369" y="224.856" width="12.9231" height="1.49216" fill="#2AC1E2"/>
<rect x="247.576" y="219.136" width="12.9319" height="1.49112" transform="rotate(90 247.576 219.136)" fill="#2AC1E2"/>
</g>
<defs>
<clipPath id="clip0">
<rect width="420" height="247" fill="white"/>
</clipPath>
</defs>
</svg>
