<svg width="522" height="235" viewBox="0 0 522 235" fill="none" xmlns="http://www.w3.org/2000/svg">
<rect width="522" height="235" fill="white"/>
<line x1="70" y1="137.5" x2="452" y2="137.5" stroke="black"/>
<path d="M68.5039 110.197C67.5391 109.92 66.8359 109.58 66.3945 109.178C65.957 108.771 65.7383 108.271 65.7383 107.678C65.7383 107.006 66.0059 106.451 66.541 106.014C67.0801 105.572 67.7793 105.352 68.6387 105.352C69.2246 105.352 69.7461 105.465 70.2031 105.691C70.6641 105.918 71.0195 106.23 71.2695 106.629C71.5234 107.027 71.6504 107.463 71.6504 107.936H70.5195C70.5195 107.42 70.3555 107.016 70.0273 106.723C69.6992 106.426 69.2363 106.277 68.6387 106.277C68.084 106.277 67.6504 106.4 67.3379 106.646C67.0293 106.889 66.875 107.227 66.875 107.66C66.875 108.008 67.0215 108.303 67.3145 108.545C67.6113 108.783 68.1133 109.002 68.8203 109.201C69.5312 109.4 70.0859 109.621 70.4844 109.863C70.8867 110.102 71.1836 110.381 71.375 110.701C71.5703 111.021 71.668 111.398 71.668 111.832C71.668 112.523 71.3984 113.078 70.8594 113.496C70.3203 113.91 69.5996 114.117 68.6973 114.117C68.1113 114.117 67.5645 114.006 67.0566 113.783C66.5488 113.557 66.1562 113.248 65.8789 112.857C65.6055 112.467 65.4688 112.023 65.4688 111.527H66.5996C66.5996 112.043 66.7891 112.451 67.168 112.752C67.5508 113.049 68.0605 113.197 68.6973 113.197C69.291 113.197 69.7461 113.076 70.0625 112.834C70.3789 112.592 70.5371 112.262 70.5371 111.844C70.5371 111.426 70.3906 111.104 70.0977 110.877C69.8047 110.646 69.2734 110.42 68.5039 110.197ZM74.416 106.125V107.66H75.5996V108.498H74.416V112.43C74.416 112.684 74.4688 112.875 74.5742 113.004C74.6797 113.129 74.8594 113.191 75.1133 113.191C75.2383 113.191 75.4102 113.168 75.6289 113.121V114C75.3438 114.078 75.0664 114.117 74.7969 114.117C74.3125 114.117 73.9473 113.971 73.7012 113.678C73.4551 113.385 73.332 112.969 73.332 112.43V108.498H72.1777V107.66H73.332V106.125H74.416ZM79.9355 108.633C79.7715 108.605 79.5938 108.592 79.4023 108.592C78.6914 108.592 78.209 108.895 77.9551 109.5V114H76.8711V107.66H77.9258L77.9434 108.393C78.2988 107.826 78.8027 107.543 79.4551 107.543C79.666 107.543 79.8262 107.57 79.9355 107.625V108.633ZM82.1152 114H81.0312V107.66H82.1152V114ZM80.9434 105.979C80.9434 105.803 80.9961 105.654 81.1016 105.533C81.2109 105.412 81.3711 105.352 81.582 105.352C81.793 105.352 81.9531 105.412 82.0625 105.533C82.1719 105.654 82.2266 105.803 82.2266 105.979C82.2266 106.154 82.1719 106.301 82.0625 106.418C81.9531 106.535 81.793 106.594 81.582 106.594C81.3711 106.594 81.2109 106.535 81.1016 106.418C80.9961 106.301 80.9434 106.154 80.9434 105.979ZM86.3984 113.232C86.7852 113.232 87.123 113.115 87.4121 112.881C87.7012 112.646 87.8613 112.354 87.8926 112.002H88.918C88.8984 112.365 88.7734 112.711 88.543 113.039C88.3125 113.367 88.0039 113.629 87.6172 113.824C87.2344 114.02 86.8281 114.117 86.3984 114.117C85.5352 114.117 84.8477 113.83 84.3359 113.256C83.8281 112.678 83.5742 111.889 83.5742 110.889V110.707C83.5742 110.09 83.6875 109.541 83.9141 109.061C84.1406 108.58 84.4648 108.207 84.8867 107.941C85.3125 107.676 85.8145 107.543 86.3926 107.543C87.1035 107.543 87.6934 107.756 88.1621 108.182C88.6348 108.607 88.8867 109.16 88.918 109.84H87.8926C87.8613 109.43 87.7051 109.094 87.4238 108.832C87.1465 108.566 86.8027 108.434 86.3926 108.434C85.8418 108.434 85.4141 108.633 85.1094 109.031C84.8086 109.426 84.6582 109.998 84.6582 110.748V110.953C84.6582 111.684 84.8086 112.246 85.1094 112.641C85.4102 113.035 85.8398 113.232 86.3984 113.232ZM91.6074 106.125V107.66H92.791V108.498H91.6074V112.43C91.6074 112.684 91.6602 112.875 91.7656 113.004C91.8711 113.129 92.0508 113.191 92.3047 113.191C92.4297 113.191 92.6016 113.168 92.8203 113.121V114C92.5352 114.078 92.2578 114.117 91.9883 114.117C91.5039 114.117 91.1387 113.971 90.8926 113.678C90.6465 113.385 90.5234 112.969 90.5234 112.43V108.498H89.3691V107.66H90.5234V106.125H91.6074Z" fill="black"/>
<path d="M416.695 110.232H413.115V114H411.99V105.469H417.275V106.395H413.115V109.312H416.695V110.232ZM419.631 114H418.547V105H419.631V114ZM424.002 114.117C423.143 114.117 422.443 113.836 421.904 113.273C421.365 112.707 421.096 111.951 421.096 111.006V110.807C421.096 110.178 421.215 109.617 421.453 109.125C421.695 108.629 422.031 108.242 422.461 107.965C422.895 107.684 423.363 107.543 423.867 107.543C424.691 107.543 425.332 107.814 425.789 108.357C426.246 108.9 426.475 109.678 426.475 110.689V111.141H422.18C422.195 111.766 422.377 112.271 422.725 112.658C423.076 113.041 423.521 113.232 424.061 113.232C424.443 113.232 424.768 113.154 425.033 112.998C425.299 112.842 425.531 112.635 425.73 112.377L426.393 112.893C425.861 113.709 425.064 114.117 424.002 114.117ZM423.867 108.434C423.43 108.434 423.062 108.594 422.766 108.914C422.469 109.23 422.285 109.676 422.215 110.25H425.391V110.168C425.359 109.617 425.211 109.191 424.945 108.891C424.68 108.586 424.32 108.434 423.867 108.434ZM429.861 109.975L431.268 107.66H432.533L430.459 110.795L432.598 114H431.344L429.879 111.627L428.414 114H427.154L429.293 110.795L427.219 107.66H428.473L429.861 109.975ZM434.865 114H433.781V107.66H434.865V114ZM433.693 105.979C433.693 105.803 433.746 105.654 433.852 105.533C433.961 105.412 434.121 105.352 434.332 105.352C434.543 105.352 434.703 105.412 434.812 105.533C434.922 105.654 434.977 105.803 434.977 105.979C434.977 106.154 434.922 106.301 434.812 106.418C434.703 106.535 434.543 106.594 434.332 106.594C434.121 106.594 433.961 106.535 433.852 106.418C433.746 106.301 433.693 106.154 433.693 105.979ZM441.973 110.9C441.973 111.869 441.75 112.648 441.305 113.238C440.859 113.824 440.262 114.117 439.512 114.117C438.711 114.117 438.092 113.834 437.654 113.268L437.602 114H436.605V105H437.689V108.357C438.127 107.814 438.73 107.543 439.5 107.543C440.27 107.543 440.873 107.834 441.311 108.416C441.752 108.998 441.973 109.795 441.973 110.807V110.9ZM440.889 110.777C440.889 110.039 440.746 109.469 440.461 109.066C440.176 108.664 439.766 108.463 439.23 108.463C438.516 108.463 438.002 108.795 437.689 109.459V112.201C438.021 112.865 438.539 113.197 439.242 113.197C439.762 113.197 440.166 112.996 440.455 112.594C440.744 112.191 440.889 111.586 440.889 110.777ZM444.521 114H443.438V105H444.521V114ZM448.893 114.117C448.033 114.117 447.334 113.836 446.795 113.273C446.256 112.707 445.986 111.951 445.986 111.006V110.807C445.986 110.178 446.105 109.617 446.344 109.125C446.586 108.629 446.922 108.242 447.352 107.965C447.785 107.684 448.254 107.543 448.758 107.543C449.582 107.543 450.223 107.814 450.68 108.357C451.137 108.9 451.365 109.678 451.365 110.689V111.141H447.07C447.086 111.766 447.268 112.271 447.615 112.658C447.967 113.041 448.412 113.232 448.951 113.232C449.334 113.232 449.658 113.154 449.924 112.998C450.189 112.842 450.422 112.635 450.621 112.377L451.283 112.893C450.752 113.709 449.955 114.117 448.893 114.117ZM448.758 108.434C448.32 108.434 447.953 108.594 447.656 108.914C447.359 109.23 447.176 109.676 447.105 110.25H450.281V110.168C450.25 109.617 450.102 109.191 449.836 108.891C449.57 108.586 449.211 108.434 448.758 108.434Z" fill="black"/>
<circle cx="70" cy="138" r="5" fill="#C4C4C4"/>
<path d="M56.4707 161.66V165H55.3457V156.469H58.4922C59.4258 156.469 60.1562 156.707 60.6836 157.184C61.2148 157.66 61.4805 158.291 61.4805 159.076C61.4805 159.904 61.2207 160.543 60.7012 160.992C60.1855 161.438 59.4453 161.66 58.4805 161.66H56.4707ZM56.4707 160.74H58.4922C59.0938 160.74 59.5547 160.6 59.875 160.318C60.1953 160.033 60.3555 159.623 60.3555 159.088C60.3555 158.58 60.1953 158.174 59.875 157.869C59.5547 157.564 59.1152 157.406 58.5566 157.395H56.4707V160.74ZM65.8105 159.633C65.6465 159.605 65.4688 159.592 65.2773 159.592C64.5664 159.592 64.084 159.895 63.8301 160.5V165H62.7461V158.66H63.8008L63.8184 159.393C64.1738 158.826 64.6777 158.543 65.3301 158.543C65.541 158.543 65.7012 158.57 65.8105 158.625V159.633ZM66.4082 161.771C66.4082 161.15 66.5293 160.592 66.7715 160.096C67.0176 159.6 67.3574 159.217 67.791 158.947C68.2285 158.678 68.7266 158.543 69.2852 158.543C70.1484 158.543 70.8457 158.842 71.377 159.439C71.9121 160.037 72.1797 160.832 72.1797 161.824V161.9C72.1797 162.518 72.0605 163.072 71.8223 163.564C71.5879 164.053 71.25 164.434 70.8086 164.707C70.3711 164.98 69.8672 165.117 69.2969 165.117C68.4375 165.117 67.7402 164.818 67.2051 164.221C66.6738 163.623 66.4082 162.832 66.4082 161.848V161.771ZM67.498 161.9C67.498 162.604 67.6602 163.168 67.9844 163.594C68.3125 164.02 68.75 164.232 69.2969 164.232C69.8477 164.232 70.2852 164.018 70.6094 163.588C70.9336 163.154 71.0957 162.549 71.0957 161.771C71.0957 161.076 70.9297 160.514 70.5977 160.084C70.2695 159.65 69.832 159.434 69.2852 159.434C68.75 159.434 68.3184 159.646 67.9902 160.072C67.6621 160.498 67.498 161.107 67.498 161.9ZM78.8945 161.9C78.8945 162.865 78.6738 163.643 78.2324 164.232C77.791 164.822 77.1934 165.117 76.4395 165.117C75.6699 165.117 75.0645 164.873 74.623 164.385V167.438H73.5391V158.66H74.5293L74.582 159.363C75.0234 158.816 75.6367 158.543 76.4219 158.543C77.1836 158.543 77.7852 158.83 78.2266 159.404C78.6719 159.979 78.8945 160.777 78.8945 161.801V161.9ZM77.8105 161.777C77.8105 161.062 77.6582 160.498 77.3535 160.084C77.0488 159.67 76.6309 159.463 76.0996 159.463C75.4434 159.463 74.9512 159.754 74.623 160.336V163.365C74.9473 163.943 75.4434 164.232 76.1113 164.232C76.6309 164.232 77.043 164.027 77.3477 163.617C77.6562 163.203 77.8105 162.59 77.8105 161.777ZM83.9688 163.318C83.9688 163.025 83.8574 162.799 83.6348 162.639C83.416 162.475 83.0312 162.334 82.4805 162.217C81.9336 162.1 81.498 161.959 81.1738 161.795C80.8535 161.631 80.6152 161.436 80.459 161.209C80.3066 160.982 80.2305 160.713 80.2305 160.4C80.2305 159.881 80.4492 159.441 80.8867 159.082C81.3281 158.723 81.8906 158.543 82.5742 158.543C83.293 158.543 83.875 158.729 84.3203 159.1C84.7695 159.471 84.9941 159.945 84.9941 160.523H83.9043C83.9043 160.227 83.7773 159.971 83.5234 159.756C83.2734 159.541 82.957 159.434 82.5742 159.434C82.1797 159.434 81.8711 159.52 81.6484 159.691C81.4258 159.863 81.3145 160.088 81.3145 160.365C81.3145 160.627 81.418 160.824 81.625 160.957C81.832 161.09 82.2051 161.217 82.7441 161.338C83.2871 161.459 83.7266 161.604 84.0625 161.771C84.3984 161.939 84.6465 162.143 84.8066 162.381C84.9707 162.615 85.0527 162.902 85.0527 163.242C85.0527 163.809 84.8262 164.264 84.373 164.607C83.9199 164.947 83.332 165.117 82.6094 165.117C82.1016 165.117 81.6523 165.027 81.2617 164.848C80.8711 164.668 80.5645 164.418 80.3418 164.098C80.123 163.773 80.0137 163.424 80.0137 163.049H81.0977C81.1172 163.412 81.2617 163.701 81.5312 163.916C81.8047 164.127 82.1641 164.232 82.6094 164.232C83.0195 164.232 83.3477 164.15 83.5938 163.986C83.8438 163.818 83.9688 163.596 83.9688 163.318Z" fill="black"/>
<circle cx="256" cy="138" r="5" fill="#C4C4C4"/>
<path d="M214.984 162.293C214.879 163.195 214.545 163.893 213.982 164.385C213.424 164.873 212.68 165.117 211.75 165.117C210.742 165.117 209.934 164.756 209.324 164.033C208.719 163.311 208.416 162.344 208.416 161.133V160.312C208.416 159.52 208.557 158.822 208.838 158.221C209.123 157.619 209.525 157.158 210.045 156.838C210.564 156.514 211.166 156.352 211.85 156.352C212.756 156.352 213.482 156.605 214.029 157.113C214.576 157.617 214.895 158.316 214.984 159.211H213.854C213.756 158.531 213.543 158.039 213.215 157.734C212.891 157.43 212.436 157.277 211.85 157.277C211.131 157.277 210.566 157.543 210.156 158.074C209.75 158.605 209.547 159.361 209.547 160.342V161.168C209.547 162.094 209.74 162.83 210.127 163.377C210.514 163.924 211.055 164.197 211.75 164.197C212.375 164.197 212.854 164.057 213.186 163.775C213.521 163.49 213.744 162.996 213.854 162.293H214.984ZM216.068 161.771C216.068 161.15 216.189 160.592 216.432 160.096C216.678 159.6 217.018 159.217 217.451 158.947C217.889 158.678 218.387 158.543 218.945 158.543C219.809 158.543 220.506 158.842 221.037 159.439C221.572 160.037 221.84 160.832 221.84 161.824V161.9C221.84 162.518 221.721 163.072 221.482 163.564C221.248 164.053 220.91 164.434 220.469 164.707C220.031 164.98 219.527 165.117 218.957 165.117C218.098 165.117 217.4 164.818 216.865 164.221C216.334 163.623 216.068 162.832 216.068 161.848V161.771ZM217.158 161.9C217.158 162.604 217.32 163.168 217.645 163.594C217.973 164.02 218.41 164.232 218.957 164.232C219.508 164.232 219.945 164.018 220.27 163.588C220.594 163.154 220.756 162.549 220.756 161.771C220.756 161.076 220.59 160.514 220.258 160.084C219.93 159.65 219.492 159.434 218.945 159.434C218.41 159.434 217.979 159.646 217.65 160.072C217.322 160.498 217.158 161.107 217.158 161.9ZM224.219 158.66L224.248 159.363C224.713 158.816 225.34 158.543 226.129 158.543C227.016 158.543 227.619 158.883 227.939 159.562C228.15 159.258 228.424 159.012 228.76 158.824C229.1 158.637 229.5 158.543 229.961 158.543C231.352 158.543 232.059 159.279 232.082 160.752V165H230.998V160.816C230.998 160.363 230.895 160.025 230.688 159.803C230.48 159.576 230.133 159.463 229.645 159.463C229.242 159.463 228.908 159.584 228.643 159.826C228.377 160.064 228.223 160.387 228.18 160.793V165H227.09V160.846C227.09 159.924 226.639 159.463 225.736 159.463C225.025 159.463 224.539 159.766 224.277 160.371V165H223.193V158.66H224.219ZM239.078 161.9C239.078 162.865 238.857 163.643 238.416 164.232C237.975 164.822 237.377 165.117 236.623 165.117C235.854 165.117 235.248 164.873 234.807 164.385V167.438H233.723V158.66H234.713L234.766 159.363C235.207 158.816 235.82 158.543 236.605 158.543C237.367 158.543 237.969 158.83 238.41 159.404C238.855 159.979 239.078 160.777 239.078 161.801V161.9ZM237.994 161.777C237.994 161.062 237.842 160.498 237.537 160.084C237.232 159.67 236.814 159.463 236.283 159.463C235.627 159.463 235.135 159.754 234.807 160.336V163.365C235.131 163.943 235.627 164.232 236.295 164.232C236.814 164.232 237.227 164.027 237.531 163.617C237.84 163.203 237.994 162.59 237.994 161.777ZM240.174 161.771C240.174 161.15 240.295 160.592 240.537 160.096C240.783 159.6 241.123 159.217 241.557 158.947C241.994 158.678 242.492 158.543 243.051 158.543C243.914 158.543 244.611 158.842 245.143 159.439C245.678 160.037 245.945 160.832 245.945 161.824V161.9C245.945 162.518 245.826 163.072 245.588 163.564C245.354 164.053 245.016 164.434 244.574 164.707C244.137 164.98 243.633 165.117 243.062 165.117C242.203 165.117 241.506 164.818 240.971 164.221C240.439 163.623 240.174 162.832 240.174 161.848V161.771ZM241.264 161.9C241.264 162.604 241.426 163.168 241.75 163.594C242.078 164.02 242.516 164.232 243.062 164.232C243.613 164.232 244.051 164.018 244.375 163.588C244.699 163.154 244.861 162.549 244.861 161.771C244.861 161.076 244.695 160.514 244.363 160.084C244.035 159.65 243.598 159.434 243.051 159.434C242.516 159.434 242.084 159.646 241.756 160.072C241.428 160.498 241.264 161.107 241.264 161.9ZM248.33 158.66L248.365 159.457C248.85 158.848 249.482 158.543 250.264 158.543C251.604 158.543 252.279 159.299 252.291 160.811V165H251.207V160.805C251.203 160.348 251.098 160.01 250.891 159.791C250.688 159.572 250.369 159.463 249.936 159.463C249.584 159.463 249.275 159.557 249.01 159.744C248.744 159.932 248.537 160.178 248.389 160.482V165H247.305V158.66H248.33ZM256.557 165.117C255.697 165.117 254.998 164.836 254.459 164.273C253.92 163.707 253.65 162.951 253.65 162.006V161.807C253.65 161.178 253.77 160.617 254.008 160.125C254.25 159.629 254.586 159.242 255.016 158.965C255.449 158.684 255.918 158.543 256.422 158.543C257.246 158.543 257.887 158.814 258.344 159.357C258.801 159.9 259.029 160.678 259.029 161.689V162.141H254.734C254.75 162.766 254.932 163.271 255.279 163.658C255.631 164.041 256.076 164.232 256.615 164.232C256.998 164.232 257.322 164.154 257.588 163.998C257.854 163.842 258.086 163.635 258.285 163.377L258.947 163.893C258.416 164.709 257.619 165.117 256.557 165.117ZM256.422 159.434C255.984 159.434 255.617 159.594 255.32 159.914C255.023 160.23 254.84 160.676 254.77 161.25H257.945V161.168C257.914 160.617 257.766 160.191 257.5 159.891C257.234 159.586 256.875 159.434 256.422 159.434ZM261.314 158.66L261.35 159.457C261.834 158.848 262.467 158.543 263.248 158.543C264.588 158.543 265.264 159.299 265.275 160.811V165H264.191V160.805C264.188 160.348 264.082 160.01 263.875 159.791C263.672 159.572 263.354 159.463 262.92 159.463C262.568 159.463 262.26 159.557 261.994 159.744C261.729 159.932 261.521 160.178 261.373 160.482V165H260.289V158.66H261.314ZM268.381 157.125V158.66H269.564V159.498H268.381V163.43C268.381 163.684 268.434 163.875 268.539 164.004C268.645 164.129 268.824 164.191 269.078 164.191C269.203 164.191 269.375 164.168 269.594 164.121V165C269.309 165.078 269.031 165.117 268.762 165.117C268.277 165.117 267.912 164.971 267.666 164.678C267.42 164.385 267.297 163.969 267.297 163.43V159.498H266.143V158.66H267.297V157.125H268.381ZM275.107 161.66V165H273.982V156.469H277.129C278.062 156.469 278.793 156.707 279.32 157.184C279.852 157.66 280.117 158.291 280.117 159.076C280.117 159.904 279.857 160.543 279.338 160.992C278.822 161.438 278.082 161.66 277.117 161.66H275.107ZM275.107 160.74H277.129C277.73 160.74 278.191 160.6 278.512 160.318C278.832 160.033 278.992 159.623 278.992 159.088C278.992 158.58 278.832 158.174 278.512 157.869C278.191 157.564 277.752 157.406 277.193 157.395H275.107V160.74ZM284.447 159.633C284.283 159.605 284.105 159.592 283.914 159.592C283.203 159.592 282.721 159.895 282.467 160.5V165H281.383V158.66H282.438L282.455 159.393C282.811 158.826 283.314 158.543 283.967 158.543C284.178 158.543 284.338 158.57 284.447 158.625V159.633ZM285.045 161.771C285.045 161.15 285.166 160.592 285.408 160.096C285.654 159.6 285.994 159.217 286.428 158.947C286.865 158.678 287.363 158.543 287.922 158.543C288.785 158.543 289.482 158.842 290.014 159.439C290.549 160.037 290.816 160.832 290.816 161.824V161.9C290.816 162.518 290.697 163.072 290.459 163.564C290.225 164.053 289.887 164.434 289.445 164.707C289.008 164.98 288.504 165.117 287.934 165.117C287.074 165.117 286.377 164.818 285.842 164.221C285.311 163.623 285.045 162.832 285.045 161.848V161.771ZM286.135 161.9C286.135 162.604 286.297 163.168 286.621 163.594C286.949 164.02 287.387 164.232 287.934 164.232C288.484 164.232 288.922 164.018 289.246 163.588C289.57 163.154 289.732 162.549 289.732 161.771C289.732 161.076 289.566 160.514 289.234 160.084C288.906 159.65 288.469 159.434 287.922 159.434C287.387 159.434 286.955 159.646 286.627 160.072C286.299 160.498 286.135 161.107 286.135 161.9ZM297.531 161.9C297.531 162.865 297.311 163.643 296.869 164.232C296.428 164.822 295.83 165.117 295.076 165.117C294.307 165.117 293.701 164.873 293.26 164.385V167.438H292.176V158.66H293.166L293.219 159.363C293.66 158.816 294.273 158.543 295.059 158.543C295.82 158.543 296.422 158.83 296.863 159.404C297.309 159.979 297.531 160.777 297.531 161.801V161.9ZM296.447 161.777C296.447 161.062 296.295 160.498 295.99 160.084C295.686 159.67 295.268 159.463 294.736 159.463C294.08 159.463 293.588 159.754 293.26 160.336V163.365C293.584 163.943 294.08 164.232 294.748 164.232C295.268 164.232 295.68 164.027 295.984 163.617C296.293 163.203 296.447 162.59 296.447 161.777ZM302.605 163.318C302.605 163.025 302.494 162.799 302.271 162.639C302.053 162.475 301.668 162.334 301.117 162.217C300.57 162.1 300.135 161.959 299.811 161.795C299.49 161.631 299.252 161.436 299.096 161.209C298.943 160.982 298.867 160.713 298.867 160.4C298.867 159.881 299.086 159.441 299.523 159.082C299.965 158.723 300.527 158.543 301.211 158.543C301.93 158.543 302.512 158.729 302.957 159.1C303.406 159.471 303.631 159.945 303.631 160.523H302.541C302.541 160.227 302.414 159.971 302.16 159.756C301.91 159.541 301.594 159.434 301.211 159.434C300.816 159.434 300.508 159.52 300.285 159.691C300.062 159.863 299.951 160.088 299.951 160.365C299.951 160.627 300.055 160.824 300.262 160.957C300.469 161.09 300.842 161.217 301.381 161.338C301.924 161.459 302.363 161.604 302.699 161.771C303.035 161.939 303.283 162.143 303.443 162.381C303.607 162.615 303.689 162.902 303.689 163.242C303.689 163.809 303.463 164.264 303.01 164.607C302.557 164.947 301.969 165.117 301.246 165.117C300.738 165.117 300.289 165.027 299.898 164.848C299.508 164.668 299.201 164.418 298.979 164.098C298.76 163.773 298.65 163.424 298.65 163.049H299.734C299.754 163.412 299.898 163.701 300.168 163.916C300.441 164.127 300.801 164.232 301.246 164.232C301.656 164.232 301.984 164.15 302.23 163.986C302.48 163.818 302.605 163.596 302.605 163.318Z" fill="black"/>
<circle cx="447" cy="138" r="5" fill="#C4C4C4"/>
<path d="M389.145 162.293C389.039 163.195 388.705 163.893 388.143 164.385C387.584 164.873 386.84 165.117 385.91 165.117C384.902 165.117 384.094 164.756 383.484 164.033C382.879 163.311 382.576 162.344 382.576 161.133V160.312C382.576 159.52 382.717 158.822 382.998 158.221C383.283 157.619 383.686 157.158 384.205 156.838C384.725 156.514 385.326 156.352 386.01 156.352C386.916 156.352 387.643 156.605 388.189 157.113C388.736 157.617 389.055 158.316 389.145 159.211H388.014C387.916 158.531 387.703 158.039 387.375 157.734C387.051 157.43 386.596 157.277 386.01 157.277C385.291 157.277 384.727 157.543 384.316 158.074C383.91 158.605 383.707 159.361 383.707 160.342V161.168C383.707 162.094 383.9 162.83 384.287 163.377C384.674 163.924 385.215 164.197 385.91 164.197C386.535 164.197 387.014 164.057 387.346 163.775C387.682 163.49 387.904 162.996 388.014 162.293H389.145ZM390.229 161.771C390.229 161.15 390.35 160.592 390.592 160.096C390.838 159.6 391.178 159.217 391.611 158.947C392.049 158.678 392.547 158.543 393.105 158.543C393.969 158.543 394.666 158.842 395.197 159.439C395.732 160.037 396 160.832 396 161.824V161.9C396 162.518 395.881 163.072 395.643 163.564C395.408 164.053 395.07 164.434 394.629 164.707C394.191 164.98 393.688 165.117 393.117 165.117C392.258 165.117 391.561 164.818 391.025 164.221C390.494 163.623 390.229 162.832 390.229 161.848V161.771ZM391.318 161.9C391.318 162.604 391.48 163.168 391.805 163.594C392.133 164.02 392.57 164.232 393.117 164.232C393.668 164.232 394.105 164.018 394.43 163.588C394.754 163.154 394.916 162.549 394.916 161.771C394.916 161.076 394.75 160.514 394.418 160.084C394.09 159.65 393.652 159.434 393.105 159.434C392.57 159.434 392.139 159.646 391.811 160.072C391.482 160.498 391.318 161.107 391.318 161.9ZM398.379 158.66L398.408 159.363C398.873 158.816 399.5 158.543 400.289 158.543C401.176 158.543 401.779 158.883 402.1 159.562C402.311 159.258 402.584 159.012 402.92 158.824C403.26 158.637 403.66 158.543 404.121 158.543C405.512 158.543 406.219 159.279 406.242 160.752V165H405.158V160.816C405.158 160.363 405.055 160.025 404.848 159.803C404.641 159.576 404.293 159.463 403.805 159.463C403.402 159.463 403.068 159.584 402.803 159.826C402.537 160.064 402.383 160.387 402.34 160.793V165H401.25V160.846C401.25 159.924 400.799 159.463 399.896 159.463C399.186 159.463 398.699 159.766 398.438 160.371V165H397.354V158.66H398.379ZM413.238 161.9C413.238 162.865 413.018 163.643 412.576 164.232C412.135 164.822 411.537 165.117 410.783 165.117C410.014 165.117 409.408 164.873 408.967 164.385V167.438H407.883V158.66H408.873L408.926 159.363C409.367 158.816 409.98 158.543 410.766 158.543C411.527 158.543 412.129 158.83 412.57 159.404C413.016 159.979 413.238 160.777 413.238 161.801V161.9ZM412.154 161.777C412.154 161.062 412.002 160.498 411.697 160.084C411.393 159.67 410.975 159.463 410.443 159.463C409.787 159.463 409.295 159.754 408.967 160.336V163.365C409.291 163.943 409.787 164.232 410.455 164.232C410.975 164.232 411.387 164.027 411.691 163.617C412 163.203 412.154 162.59 412.154 161.777ZM414.334 161.771C414.334 161.15 414.455 160.592 414.697 160.096C414.943 159.6 415.283 159.217 415.717 158.947C416.154 158.678 416.652 158.543 417.211 158.543C418.074 158.543 418.771 158.842 419.303 159.439C419.838 160.037 420.105 160.832 420.105 161.824V161.9C420.105 162.518 419.986 163.072 419.748 163.564C419.514 164.053 419.176 164.434 418.734 164.707C418.297 164.98 417.793 165.117 417.223 165.117C416.363 165.117 415.666 164.818 415.131 164.221C414.6 163.623 414.334 162.832 414.334 161.848V161.771ZM415.424 161.9C415.424 162.604 415.586 163.168 415.91 163.594C416.238 164.02 416.676 164.232 417.223 164.232C417.773 164.232 418.211 164.018 418.535 163.588C418.859 163.154 419.021 162.549 419.021 161.771C419.021 161.076 418.855 160.514 418.523 160.084C418.195 159.65 417.758 159.434 417.211 159.434C416.676 159.434 416.244 159.646 415.916 160.072C415.588 160.498 415.424 161.107 415.424 161.9ZM425.379 164.373C424.957 164.869 424.338 165.117 423.521 165.117C422.846 165.117 422.33 164.922 421.975 164.531C421.623 164.137 421.445 163.555 421.441 162.785V158.66H422.525V162.756C422.525 163.717 422.916 164.197 423.697 164.197C424.525 164.197 425.076 163.889 425.35 163.271V158.66H426.434V165H425.402L425.379 164.373ZM429.111 158.66L429.146 159.457C429.631 158.848 430.264 158.543 431.045 158.543C432.385 158.543 433.061 159.299 433.072 160.811V165H431.988V160.805C431.984 160.348 431.879 160.01 431.672 159.791C431.469 159.572 431.15 159.463 430.717 159.463C430.365 159.463 430.057 159.557 429.791 159.744C429.525 159.932 429.318 160.178 429.17 160.482V165H428.086V158.66H429.111ZM434.443 161.777C434.443 160.805 434.674 160.023 435.135 159.434C435.596 158.84 436.199 158.543 436.945 158.543C437.688 158.543 438.275 158.797 438.709 159.305V156H439.793V165H438.797L438.744 164.32C438.311 164.852 437.707 165.117 436.934 165.117C436.199 165.117 435.6 164.816 435.135 164.215C434.674 163.613 434.443 162.828 434.443 161.859V161.777ZM435.527 161.9C435.527 162.619 435.676 163.182 435.973 163.588C436.27 163.994 436.68 164.197 437.203 164.197C437.891 164.197 438.393 163.889 438.709 163.271V160.359C438.385 159.762 437.887 159.463 437.215 159.463C436.684 159.463 436.27 159.668 435.973 160.078C435.676 160.488 435.527 161.096 435.527 161.9ZM450.902 162.293C450.797 163.195 450.463 163.893 449.9 164.385C449.342 164.873 448.598 165.117 447.668 165.117C446.66 165.117 445.852 164.756 445.242 164.033C444.637 163.311 444.334 162.344 444.334 161.133V160.312C444.334 159.52 444.475 158.822 444.756 158.221C445.041 157.619 445.443 157.158 445.963 156.838C446.482 156.514 447.084 156.352 447.768 156.352C448.674 156.352 449.4 156.605 449.947 157.113C450.494 157.617 450.812 158.316 450.902 159.211H449.771C449.674 158.531 449.461 158.039 449.133 157.734C448.809 157.43 448.354 157.277 447.768 157.277C447.049 157.277 446.484 157.543 446.074 158.074C445.668 158.605 445.465 159.361 445.465 160.342V161.168C445.465 162.094 445.658 162.83 446.045 163.377C446.432 163.924 446.973 164.197 447.668 164.197C448.293 164.197 448.771 164.057 449.104 163.775C449.439 163.49 449.662 162.996 449.771 162.293H450.902ZM451.986 161.771C451.986 161.15 452.107 160.592 452.35 160.096C452.596 159.6 452.936 159.217 453.369 158.947C453.807 158.678 454.305 158.543 454.863 158.543C455.727 158.543 456.424 158.842 456.955 159.439C457.49 160.037 457.758 160.832 457.758 161.824V161.9C457.758 162.518 457.639 163.072 457.4 163.564C457.166 164.053 456.828 164.434 456.387 164.707C455.949 164.98 455.445 165.117 454.875 165.117C454.016 165.117 453.318 164.818 452.783 164.221C452.252 163.623 451.986 162.832 451.986 161.848V161.771ZM453.076 161.9C453.076 162.604 453.238 163.168 453.562 163.594C453.891 164.02 454.328 164.232 454.875 164.232C455.426 164.232 455.863 164.018 456.188 163.588C456.512 163.154 456.674 162.549 456.674 161.771C456.674 161.076 456.508 160.514 456.176 160.084C455.848 159.65 455.41 159.434 454.863 159.434C454.328 159.434 453.896 159.646 453.568 160.072C453.24 160.498 453.076 161.107 453.076 161.9ZM460.137 158.66L460.166 159.363C460.631 158.816 461.258 158.543 462.047 158.543C462.934 158.543 463.537 158.883 463.857 159.562C464.068 159.258 464.342 159.012 464.678 158.824C465.018 158.637 465.418 158.543 465.879 158.543C467.27 158.543 467.977 159.279 468 160.752V165H466.916V160.816C466.916 160.363 466.812 160.025 466.605 159.803C466.398 159.576 466.051 159.463 465.562 159.463C465.16 159.463 464.826 159.584 464.561 159.826C464.295 160.064 464.141 160.387 464.098 160.793V165H463.008V160.846C463.008 159.924 462.557 159.463 461.654 159.463C460.943 159.463 460.457 159.766 460.195 160.371V165H459.111V158.66H460.137ZM474.996 161.9C474.996 162.865 474.775 163.643 474.334 164.232C473.893 164.822 473.295 165.117 472.541 165.117C471.771 165.117 471.166 164.873 470.725 164.385V167.438H469.641V158.66H470.631L470.684 159.363C471.125 158.816 471.738 158.543 472.523 158.543C473.285 158.543 473.887 158.83 474.328 159.404C474.773 159.979 474.996 160.777 474.996 161.801V161.9ZM473.912 161.777C473.912 161.062 473.76 160.498 473.455 160.084C473.15 159.67 472.732 159.463 472.201 159.463C471.545 159.463 471.053 159.754 470.725 160.336V163.365C471.049 163.943 471.545 164.232 472.213 164.232C472.732 164.232 473.145 164.027 473.449 163.617C473.758 163.203 473.912 162.59 473.912 161.777ZM476.092 161.771C476.092 161.15 476.213 160.592 476.455 160.096C476.701 159.6 477.041 159.217 477.475 158.947C477.912 158.678 478.41 158.543 478.969 158.543C479.832 158.543 480.529 158.842 481.061 159.439C481.596 160.037 481.863 160.832 481.863 161.824V161.9C481.863 162.518 481.744 163.072 481.506 163.564C481.271 164.053 480.934 164.434 480.492 164.707C480.055 164.98 479.551 165.117 478.98 165.117C478.121 165.117 477.424 164.818 476.889 164.221C476.357 163.623 476.092 162.832 476.092 161.848V161.771ZM477.182 161.9C477.182 162.604 477.344 163.168 477.668 163.594C477.996 164.02 478.434 164.232 478.98 164.232C479.531 164.232 479.969 164.018 480.293 163.588C480.617 163.154 480.779 162.549 480.779 161.771C480.779 161.076 480.613 160.514 480.281 160.084C479.953 159.65 479.516 159.434 478.969 159.434C478.434 159.434 478.002 159.646 477.674 160.072C477.346 160.498 477.182 161.107 477.182 161.9ZM484.248 158.66L484.283 159.457C484.768 158.848 485.4 158.543 486.182 158.543C487.521 158.543 488.197 159.299 488.209 160.811V165H487.125V160.805C487.121 160.348 487.016 160.01 486.809 159.791C486.605 159.572 486.287 159.463 485.854 159.463C485.502 159.463 485.193 159.557 484.928 159.744C484.662 159.932 484.455 160.178 484.307 160.482V165H483.223V158.66H484.248ZM492.475 165.117C491.615 165.117 490.916 164.836 490.377 164.273C489.838 163.707 489.568 162.951 489.568 162.006V161.807C489.568 161.178 489.688 160.617 489.926 160.125C490.168 159.629 490.504 159.242 490.934 158.965C491.367 158.684 491.836 158.543 492.34 158.543C493.164 158.543 493.805 158.814 494.262 159.357C494.719 159.9 494.947 160.678 494.947 161.689V162.141H490.652C490.668 162.766 490.85 163.271 491.197 163.658C491.549 164.041 491.994 164.232 492.533 164.232C492.916 164.232 493.24 164.154 493.506 163.998C493.771 163.842 494.004 163.635 494.203 163.377L494.865 163.893C494.334 164.709 493.537 165.117 492.475 165.117ZM492.34 159.434C491.902 159.434 491.535 159.594 491.238 159.914C490.941 160.23 490.758 160.676 490.688 161.25H493.863V161.168C493.832 160.617 493.684 160.191 493.418 159.891C493.152 159.586 492.793 159.434 492.34 159.434ZM497.232 158.66L497.268 159.457C497.752 158.848 498.385 158.543 499.166 158.543C500.506 158.543 501.182 159.299 501.193 160.811V165H500.109V160.805C500.105 160.348 500 160.01 499.793 159.791C499.59 159.572 499.271 159.463 498.838 159.463C498.486 159.463 498.178 159.557 497.912 159.744C497.646 159.932 497.439 160.178 497.291 160.482V165H496.207V158.66H497.232ZM504.299 157.125V158.66H505.482V159.498H504.299V163.43C504.299 163.684 504.352 163.875 504.457 164.004C504.562 164.129 504.742 164.191 504.996 164.191C505.121 164.191 505.293 164.168 505.512 164.121V165C505.227 165.078 504.949 165.117 504.68 165.117C504.195 165.117 503.83 164.971 503.584 164.678C503.338 164.385 503.215 163.969 503.215 163.43V159.498H502.061V158.66H503.215V157.125H504.299ZM510.445 163.318C510.445 163.025 510.334 162.799 510.111 162.639C509.893 162.475 509.508 162.334 508.957 162.217C508.41 162.1 507.975 161.959 507.65 161.795C507.33 161.631 507.092 161.436 506.936 161.209C506.783 160.982 506.707 160.713 506.707 160.4C506.707 159.881 506.926 159.441 507.363 159.082C507.805 158.723 508.367 158.543 509.051 158.543C509.77 158.543 510.352 158.729 510.797 159.1C511.246 159.471 511.471 159.945 511.471 160.523H510.381C510.381 160.227 510.254 159.971 510 159.756C509.75 159.541 509.434 159.434 509.051 159.434C508.656 159.434 508.348 159.52 508.125 159.691C507.902 159.863 507.791 160.088 507.791 160.365C507.791 160.627 507.895 160.824 508.102 160.957C508.309 161.09 508.682 161.217 509.221 161.338C509.764 161.459 510.203 161.604 510.539 161.771C510.875 161.939 511.123 162.143 511.283 162.381C511.447 162.615 511.529 162.902 511.529 163.242C511.529 163.809 511.303 164.264 510.85 164.607C510.396 164.947 509.809 165.117 509.086 165.117C508.578 165.117 508.129 165.027 507.738 164.848C507.348 164.668 507.041 164.418 506.818 164.098C506.6 163.773 506.49 163.424 506.49 163.049H507.574C507.594 163.412 507.738 163.701 508.008 163.916C508.281 164.127 508.641 164.232 509.086 164.232C509.496 164.232 509.824 164.15 510.07 163.986C510.32 163.818 510.445 163.596 510.445 163.318Z" fill="black"/>
<path d="M211.645 54.293C211.539 55.1953 211.205 55.8926 210.643 56.3848C210.084 56.873 209.34 57.1172 208.41 57.1172C207.402 57.1172 206.594 56.7559 205.984 56.0332C205.379 55.3105 205.076 54.3438 205.076 53.1328V52.3125C205.076 51.5195 205.217 50.8223 205.498 50.2207C205.783 49.6191 206.186 49.1582 206.705 48.8379C207.225 48.5137 207.826 48.3516 208.51 48.3516C209.416 48.3516 210.143 48.6055 210.689 49.1133C211.236 49.6172 211.555 50.3164 211.645 51.2109H210.514C210.416 50.5312 210.203 50.0391 209.875 49.7344C209.551 49.4297 209.096 49.2773 208.51 49.2773C207.791 49.2773 207.227 49.543 206.816 50.0742C206.41 50.6055 206.207 51.3613 206.207 52.3418V53.168C206.207 54.0938 206.4 54.8301 206.787 55.377C207.174 55.9238 207.715 56.1973 208.41 56.1973C209.035 56.1973 209.514 56.0566 209.846 55.7754C210.182 55.4902 210.404 54.9961 210.514 54.293H211.645ZM212.729 53.7715C212.729 53.1504 212.85 52.5918 213.092 52.0957C213.338 51.5996 213.678 51.2168 214.111 50.9473C214.549 50.6777 215.047 50.543 215.605 50.543C216.469 50.543 217.166 50.8418 217.697 51.4395C218.232 52.0371 218.5 52.832 218.5 53.8242V53.9004C218.5 54.5176 218.381 55.0723 218.143 55.5645C217.908 56.0527 217.57 56.4336 217.129 56.707C216.691 56.9805 216.188 57.1172 215.617 57.1172C214.758 57.1172 214.061 56.8184 213.525 56.2207C212.994 55.623 212.729 54.832 212.729 53.8477V53.7715ZM213.818 53.9004C213.818 54.6035 213.98 55.168 214.305 55.5938C214.633 56.0195 215.07 56.2324 215.617 56.2324C216.168 56.2324 216.605 56.0176 216.93 55.5879C217.254 55.1543 217.416 54.5488 217.416 53.7715C217.416 53.0762 217.25 52.5137 216.918 52.084C216.59 51.6504 216.152 51.4336 215.605 51.4336C215.07 51.4336 214.639 51.6465 214.311 52.0723C213.982 52.498 213.818 53.1074 213.818 53.9004ZM220.879 50.6602L220.908 51.3633C221.373 50.8164 222 50.543 222.789 50.543C223.676 50.543 224.279 50.8828 224.6 51.5625C224.811 51.2578 225.084 51.0117 225.42 50.8242C225.76 50.6367 226.16 50.543 226.621 50.543C228.012 50.543 228.719 51.2793 228.742 52.752V57H227.658V52.8164C227.658 52.3633 227.555 52.0254 227.348 51.8027C227.141 51.5762 226.793 51.4629 226.305 51.4629C225.902 51.4629 225.568 51.584 225.303 51.8262C225.037 52.0645 224.883 52.3867 224.84 52.793V57H223.75V52.8457C223.75 51.9238 223.299 51.4629 222.396 51.4629C221.686 51.4629 221.199 51.7656 220.938 52.3711V57H219.854V50.6602H220.879ZM235.738 53.9004C235.738 54.8652 235.518 55.6426 235.076 56.2324C234.635 56.8223 234.037 57.1172 233.283 57.1172C232.514 57.1172 231.908 56.873 231.467 56.3848V59.4375H230.383V50.6602H231.373L231.426 51.3633C231.867 50.8164 232.48 50.543 233.266 50.543C234.027 50.543 234.629 50.8301 235.07 51.4043C235.516 51.9785 235.738 52.7773 235.738 53.8008V53.9004ZM234.654 53.7773C234.654 53.0625 234.502 52.498 234.197 52.084C233.893 51.6699 233.475 51.4629 232.943 51.4629C232.287 51.4629 231.795 51.7539 231.467 52.3359V55.3652C231.791 55.9434 232.287 56.2324 232.955 56.2324C233.475 56.2324 233.887 56.0273 234.191 55.6172C234.5 55.2031 234.654 54.5898 234.654 53.7773ZM236.834 53.7715C236.834 53.1504 236.955 52.5918 237.197 52.0957C237.443 51.5996 237.783 51.2168 238.217 50.9473C238.654 50.6777 239.152 50.543 239.711 50.543C240.574 50.543 241.271 50.8418 241.803 51.4395C242.338 52.0371 242.605 52.832 242.605 53.8242V53.9004C242.605 54.5176 242.486 55.0723 242.248 55.5645C242.014 56.0527 241.676 56.4336 241.234 56.707C240.797 56.9805 240.293 57.1172 239.723 57.1172C238.863 57.1172 238.166 56.8184 237.631 56.2207C237.1 55.623 236.834 54.832 236.834 53.8477V53.7715ZM237.924 53.9004C237.924 54.6035 238.086 55.168 238.41 55.5938C238.738 56.0195 239.176 56.2324 239.723 56.2324C240.273 56.2324 240.711 56.0176 241.035 55.5879C241.359 55.1543 241.521 54.5488 241.521 53.7715C241.521 53.0762 241.355 52.5137 241.023 52.084C240.695 51.6504 240.258 51.4336 239.711 51.4336C239.176 51.4336 238.744 51.6465 238.416 52.0723C238.088 52.498 237.924 53.1074 237.924 53.9004ZM244.99 50.6602L245.025 51.457C245.51 50.8477 246.143 50.543 246.924 50.543C248.264 50.543 248.939 51.2988 248.951 52.8105V57H247.867V52.8047C247.863 52.3477 247.758 52.0098 247.551 51.791C247.348 51.5723 247.029 51.4629 246.596 51.4629C246.244 51.4629 245.936 51.5566 245.67 51.7441C245.404 51.9316 245.197 52.1777 245.049 52.4824V57H243.965V50.6602H244.99ZM253.217 57.1172C252.357 57.1172 251.658 56.8359 251.119 56.2734C250.58 55.707 250.311 54.9512 250.311 54.0059V53.8066C250.311 53.1777 250.43 52.6172 250.668 52.125C250.91 51.6289 251.246 51.2422 251.676 50.9648C252.109 50.6836 252.578 50.543 253.082 50.543C253.906 50.543 254.547 50.8145 255.004 51.3574C255.461 51.9004 255.689 52.6777 255.689 53.6895V54.1406H251.395C251.41 54.7656 251.592 55.2715 251.939 55.6582C252.291 56.041 252.736 56.2324 253.275 56.2324C253.658 56.2324 253.982 56.1543 254.248 55.998C254.514 55.8418 254.746 55.6348 254.945 55.377L255.607 55.8926C255.076 56.709 254.279 57.1172 253.217 57.1172ZM253.082 51.4336C252.645 51.4336 252.277 51.5938 251.98 51.9141C251.684 52.2305 251.5 52.6758 251.43 53.25H254.605V53.168C254.574 52.6172 254.426 52.1914 254.16 51.8906C253.895 51.5859 253.535 51.4336 253.082 51.4336ZM257.975 50.6602L258.01 51.457C258.494 50.8477 259.127 50.543 259.908 50.543C261.248 50.543 261.924 51.2988 261.936 52.8105V57H260.852V52.8047C260.848 52.3477 260.742 52.0098 260.535 51.791C260.332 51.5723 260.014 51.4629 259.58 51.4629C259.229 51.4629 258.92 51.5566 258.654 51.7441C258.389 51.9316 258.182 52.1777 258.033 52.4824V57H256.949V50.6602H257.975ZM265.041 49.125V50.6602H266.225V51.498H265.041V55.4297C265.041 55.6836 265.094 55.875 265.199 56.0039C265.305 56.1289 265.484 56.1914 265.738 56.1914C265.863 56.1914 266.035 56.168 266.254 56.1211V57C265.969 57.0781 265.691 57.1172 265.422 57.1172C264.938 57.1172 264.572 56.9707 264.326 56.6777C264.08 56.3848 263.957 55.9688 263.957 55.4297V51.498H262.803V50.6602H263.957V49.125H265.041ZM275.348 53.2324H271.768V57H270.643V48.4688H275.928V49.3945H271.768V52.3125H275.348V53.2324ZM278.283 57H277.199V48H278.283V57ZM282.654 57.1172C281.795 57.1172 281.096 56.8359 280.557 56.2734C280.018 55.707 279.748 54.9512 279.748 54.0059V53.8066C279.748 53.1777 279.867 52.6172 280.105 52.125C280.348 51.6289 280.684 51.2422 281.113 50.9648C281.547 50.6836 282.016 50.543 282.52 50.543C283.344 50.543 283.984 50.8145 284.441 51.3574C284.898 51.9004 285.127 52.6777 285.127 53.6895V54.1406H280.832C280.848 54.7656 281.029 55.2715 281.377 55.6582C281.729 56.041 282.174 56.2324 282.713 56.2324C283.096 56.2324 283.42 56.1543 283.686 55.998C283.951 55.8418 284.184 55.6348 284.383 55.377L285.045 55.8926C284.514 56.709 283.717 57.1172 282.654 57.1172ZM282.52 51.4336C282.082 51.4336 281.715 51.5938 281.418 51.9141C281.121 52.2305 280.938 52.6758 280.867 53.25H284.043V53.168C284.012 52.6172 283.863 52.1914 283.598 51.8906C283.332 51.5859 282.973 51.4336 282.52 51.4336ZM288.514 52.9746L289.92 50.6602H291.186L289.111 53.7949L291.25 57H289.996L288.531 54.627L287.066 57H285.807L287.945 53.7949L285.871 50.6602H287.125L288.514 52.9746ZM293.518 57H292.434V50.6602H293.518V57ZM292.346 48.9785C292.346 48.8027 292.398 48.6543 292.504 48.5332C292.613 48.4121 292.773 48.3516 292.984 48.3516C293.195 48.3516 293.355 48.4121 293.465 48.5332C293.574 48.6543 293.629 48.8027 293.629 48.9785C293.629 49.1543 293.574 49.3008 293.465 49.418C293.355 49.5352 293.195 49.5938 292.984 49.5938C292.773 49.5938 292.613 49.5352 292.504 49.418C292.398 49.3008 292.346 49.1543 292.346 48.9785ZM300.625 53.9004C300.625 54.8691 300.402 55.6484 299.957 56.2383C299.512 56.8242 298.914 57.1172 298.164 57.1172C297.363 57.1172 296.744 56.834 296.307 56.2676L296.254 57H295.258V48H296.342V51.3574C296.779 50.8145 297.383 50.543 298.152 50.543C298.922 50.543 299.525 50.834 299.963 51.416C300.404 51.998 300.625 52.7949 300.625 53.8066V53.9004ZM299.541 53.7773C299.541 53.0391 299.398 52.4688 299.113 52.0664C298.828 51.6641 298.418 51.4629 297.883 51.4629C297.168 51.4629 296.654 51.7949 296.342 52.459V55.2012C296.674 55.8652 297.191 56.1973 297.895 56.1973C298.414 56.1973 298.818 55.9961 299.107 55.5938C299.396 55.1914 299.541 54.5859 299.541 53.7773ZM303.174 57H302.09V48H303.174V57ZM306.092 57H305.008V50.6602H306.092V57ZM304.92 48.9785C304.92 48.8027 304.973 48.6543 305.078 48.5332C305.188 48.4121 305.348 48.3516 305.559 48.3516C305.77 48.3516 305.93 48.4121 306.039 48.5332C306.148 48.6543 306.203 48.8027 306.203 48.9785C306.203 49.1543 306.148 49.3008 306.039 49.418C305.93 49.5352 305.77 49.5938 305.559 49.5938C305.348 49.5938 305.188 49.5352 305.078 49.418C304.973 49.3008 304.92 49.1543 304.92 48.9785ZM309.303 49.125V50.6602H310.486V51.498H309.303V55.4297C309.303 55.6836 309.355 55.875 309.461 56.0039C309.566 56.1289 309.746 56.1914 310 56.1914C310.125 56.1914 310.297 56.168 310.516 56.1211V57C310.23 57.0781 309.953 57.1172 309.684 57.1172C309.199 57.1172 308.834 56.9707 308.588 56.6777C308.342 56.3848 308.219 55.9688 308.219 55.4297V51.498H307.064V50.6602H308.219V49.125H309.303ZM313.832 55.4121L315.309 50.6602H316.469L313.92 57.9785C313.525 59.0332 312.898 59.5605 312.039 59.5605L311.834 59.543L311.43 59.4668V58.5879L311.723 58.6113C312.09 58.6113 312.375 58.5371 312.578 58.3887C312.785 58.2402 312.955 57.9688 313.088 57.5742L313.328 56.9297L311.066 50.6602H312.25L313.832 55.4121Z" fill="black"/>
</svg>
