<svg width="20" height="20" viewBox="0 0 20 20" xmlns="http://www.w3.org/2000/svg">
<path d="M10.6604 0.262118C10.121 -0.094743 9.41734 -0.086532 8.88615 0.283593L0.937947 5.81967C0.514135 6.11527 0.26149 6.59845 0.26149 7.11574V13.0807C0.26149 13.6112 0.527399 14.1058 0.970159 14.3982L9.04848 19.7385C9.57651 20.0878 10.2624 20.0878 10.7905 19.7385L19.0292 14.2953C19.4713 14.0028 19.7379 13.5083 19.7379 12.9777V7.117C19.7379 6.58708 19.472 6.09253 19.0298 5.80009L10.6604 0.262118ZM16.8142 6.72351L13.7691 8.76804L10.9136 6.6913L10.8953 2.60666L16.8142 6.72351ZM8.82931 2.61045V6.60793L5.90305 8.65435L2.98437 6.69698L8.82931 2.61045ZM2.18412 8.66698L4.07327 9.93273L2.18412 11.2547V8.66698V8.66698ZM8.87921 17.1893L2.98563 13.2367L5.92958 11.1789L8.87921 13.1577V17.1893ZM7.75999 9.89989L9.66809 8.56529L11.8907 10.0262L9.92074 11.3494L7.75999 9.89989ZM10.961 17.1893V13.1565L13.7799 11.2673L16.8148 13.2626L10.961 17.1893ZM17.6561 11.3229L15.6551 10.0079L17.6561 8.66572V11.3229Z" fill="currentColor"/>
</svg>
