<svg width="300" height="240" viewBox="0 0 300 240" fill="none" xmlns="http://www.w3.org/2000/svg">
<g clip-path="url(#clipColorSystem)">
<rect width="300" height="240" fill="#FDE396"/>
<path d="M137.219 155.63C127.378 161.161 125.323 166.25 122.884 176.029H173.055C172.217 166.569 169.676 161.945 159.272 155.63C159.386 115.546 162.955 71.9702 159.272 54.7365L122.884 31.0293C122.884 31.0293 106.087 53.8365 105.242 54.7365C104.397 55.6365 138.615 74.2357 137.219 74.5844C135.823 74.9331 137.219 155.63 137.219 155.63Z" fill="#9B9999" stroke="#575757"/>
<circle cx="142.474" cy="151.422" r="1.10266" fill="#C4C4C4"/>
<circle cx="142.474" cy="99.597" r="1.10266" fill="#C4C4C4"/>
<circle cx="152.398" cy="78.6464" r="1.10266" fill="#C4C4C4"/>
<circle cx="150.193" cy="61.0038" r="1.10266" fill="#C4C4C4"/>
<circle cx="156.809" cy="116.137" r="1.10266" fill="#C4C4C4"/>
<line x1="140.769" y1="105.11" x2="140.769" y2="147.011" stroke="#C4C4C4"/>
<line x1="142.974" y1="110.624" x2="142.974" y2="142.601" stroke="#C4C4C4"/>
<line x1="160.117" y1="113.329" x2="149.09" y2="113.329" stroke="black"/>
<line x1="149.59" y1="112.829" x2="149.59" y2="141.498" stroke="black"/>
<line x1="150.193" y1="140.998" x2="159.014" y2="140.998" stroke="black"/>
<line x1="152.898" y1="117.24" x2="152.898" y2="135.985" stroke="black"/>
<line x1="117.359" y1="53.9525" x2="142.72" y2="68.2871" stroke="#C4C4C4"/>
<line x1="127.294" y1="53.9591" x2="149.348" y2="67.191" stroke="#C4C4C4"/>
<line x1="125.091" y1="39.6258" x2="155.966" y2="58.3711" stroke="black"/>
<line x1="147.359" y1="84.0016" x2="155.078" y2="107.157" stroke="black"/>
<path d="M139.573 159.513C131.406 162.37 129.172 165.552 127.444 172.745" stroke="black"/>
<path d="M167.296 173.871C164.797 165.587 161.715 163.218 154.604 161.178" stroke="black"/>
<path d="M91.4584 44.9492C98.0446 44.5949 100.909 48.714 105.242 54.7365L122.884 31.0293C98.3542 14.242 84.0416 13.225 59.4813 30.6147L76.5725 54.3219C81.1687 47.8289 84.109 45.0346 91.4584 44.9492Z" fill="#3E3D3D" stroke="black"/>
<path d="M61.7445 67.6198C64.2433 62.8604 76.0791 55.4905 76.0791 55.4905L58.9879 31.2319C58.9879 31.2319 42.448 64.6605 42.448 67.6198C42.448 70.5791 46.8586 100.7 46.8586 100.7L42.448 111.726C39.2908 127.873 44.9953 139.954 49.8674 143.703C52.6241 143.703 51.5214 143.703 53.1754 143.152C54.3559 135.394 52.7062 121.978 56.7826 117.791C65.6346 121.442 70.5065 124.475 78.8358 133.779C79.0568 130.677 79.1619 128.909 78.8358 124.958C74.6299 112.167 70.2113 108.663 61.7445 103.456C61.7445 103.456 59.2458 72.3791 61.7445 67.6198Z" fill="#9B9999" stroke="#575757"/>
<line x1="45.4008" y1="68.6541" x2="49.8114" y2="100.631" stroke="#C4C4C4"/>
<line x1="68.4518" y1="54.7002" x2="59.6305" y2="65.7268" stroke="black"/>
<line x1="59.6873" y1="40.2768" x2="48.6606" y2="62.3301" stroke="#C4C4C4"/>
<line x1="56.4144" y1="88.4388" x2="59.7224" y2="100.568" stroke="black"/>
<path d="M64.105 107.003C70.6233 112.941 73.5175 116.676 76.2343 124.646" stroke="black"/>
<path d="M47.6527 107.417C43.9433 113.572 43.7943 117.609 44.3447 125.06" stroke="#C4C4C4"/>
<circle cx="56.9768" cy="74.2357" r="1.10266" fill="#C4C4C4"/>
<circle cx="56.9768" cy="64.3118" r="1.10266" fill="#C4C4C4"/>
<circle cx="52.5661" cy="105.11" r="1.10266" fill="#C4C4C4"/>
<path d="M253.381 141.923C258.903 141.993 265.667 145.898 268.489 150.646L303.118 208.92L16.4139 205.311L-18.2159 147.037C-21.0373 142.289 -18.8477 138.496 -13.3253 138.566L253.381 141.923Z" fill="#C4C4C4"/>
<rect width="21.7081" height="286.727" rx="10.854" transform="matrix(0.510861 0.859663 -0.999921 -0.0125867 297.574 199.589)" fill="#8D8D8D"/>
<g filter="url(#filter0_d)">
<line y1="-0.5" x2="49.7476" y2="-0.5" transform="matrix(0.510861 0.859663 -0.999921 -0.0125867 252.183 150.397)" stroke="#8D8D8D"/>
<line y1="-0.5" x2="49.7476" y2="-0.5" transform="matrix(0.510861 0.859663 -0.999921 -0.0125867 234.094 150.17)" stroke="#8D8D8D"/>
<line y1="-0.5" x2="49.7476" y2="-0.5" transform="matrix(0.510861 0.859663 -0.999921 -0.0125867 216.006 149.942)" stroke="#8D8D8D"/>
<line y1="-0.5" x2="49.7476" y2="-0.5" transform="matrix(0.510861 0.859663 -0.999921 -0.0125867 197.917 149.714)" stroke="#8D8D8D"/>
<line y1="-0.5" x2="49.7476" y2="-0.5" transform="matrix(0.510861 0.859663 -0.999921 -0.0125867 179.829 149.487)" stroke="#8D8D8D"/>
<line y1="-0.5" x2="49.7476" y2="-0.5" transform="matrix(0.510861 0.859663 -0.999921 -0.0125867 161.74 149.259)" stroke="#8D8D8D"/>
<line y1="-0.5" x2="49.7476" y2="-0.5" transform="matrix(0.510861 0.859663 -0.999921 -0.0125867 143.651 149.031)" stroke="#8D8D8D"/>
<line y1="-0.5" x2="49.7476" y2="-0.5" transform="matrix(0.510861 0.859663 -0.999921 -0.0125867 125.563 148.803)" stroke="#8D8D8D"/>
<line y1="-0.5" x2="49.7476" y2="-0.5" transform="matrix(0.510861 0.859663 -0.999921 -0.0125867 107.474 148.576)" stroke="#8D8D8D"/>
<line y1="-0.5" x2="49.7476" y2="-0.5" transform="matrix(0.510861 0.859663 -0.999921 -0.0125867 89.3856 148.348)" stroke="#8D8D8D"/>
<line y1="-0.5" x2="49.7476" y2="-0.5" transform="matrix(0.510861 0.859663 -0.999921 -0.0125867 71.2969 148.12)" stroke="#8D8D8D"/>
<line y1="-0.5" x2="49.7476" y2="-0.5" transform="matrix(0.510861 0.859663 -0.999921 -0.0125867 53.2083 147.893)" stroke="#8D8D8D"/>
<line y1="-0.5" x2="49.7476" y2="-0.5" transform="matrix(0.510861 0.859663 -0.999921 -0.0125867 35.1197 147.665)" stroke="#8D8D8D"/>
<line y1="-0.5" x2="49.7476" y2="-0.5" transform="matrix(0.510861 0.859663 -0.999921 -0.0125867 17.0311 147.437)" stroke="#8D8D8D"/>
<line y1="-0.5" x2="49.7476" y2="-0.5" transform="matrix(0.510861 0.859663 -0.999921 -0.0125867 -1.05753 147.21)" stroke="#8D8D8D"/>
</g>
<ellipse rx="7.23602" ry="8.14052" transform="matrix(0.510861 0.859663 -0.999921 -0.0125867 28.1716 205.459)" fill="#939393"/>
<ellipse rx="7.23602" ry="8.14052" transform="matrix(0.510861 0.859663 -0.999921 -0.0125867 48.9735 205.721)" fill="#939393"/>
<ellipse rx="7.23602" ry="8.14052" transform="matrix(0.510861 0.859663 -0.999921 -0.0125867 69.7754 205.983)" fill="#939393"/>
<ellipse rx="7.23602" ry="8.14052" transform="matrix(0.510861 0.859663 -0.999921 -0.0125867 90.5773 206.244)" fill="#939393"/>
<ellipse rx="7.23602" ry="8.14052" transform="matrix(0.510861 0.859663 -0.999921 -0.0125867 111.379 206.506)" fill="#939393"/>
<ellipse rx="7.23602" ry="8.14052" transform="matrix(0.510861 0.859663 -0.999921 -0.0125867 132.181 206.768)" fill="#939393"/>
<ellipse rx="7.23602" ry="8.14052" transform="matrix(0.510861 0.859663 -0.999921 -0.0125867 152.983 207.03)" fill="#939393"/>
<ellipse rx="7.23602" ry="8.14052" transform="matrix(0.510861 0.859663 -0.999921 -0.0125867 173.785 207.292)" fill="#939393"/>
<ellipse rx="7.23602" ry="8.14052" transform="matrix(0.510861 0.859663 -0.999921 -0.0125867 194.587 207.554)" fill="#939393"/>
<ellipse rx="7.23602" ry="8.14052" transform="matrix(0.510861 0.859663 -0.999921 -0.0125867 215.389 207.815)" fill="#939393"/>
<ellipse rx="7.23602" ry="8.14052" transform="matrix(0.510861 0.859663 -0.999921 -0.0125867 236.191 208.077)" fill="#939393"/>
<ellipse rx="7.23602" ry="8.14052" transform="matrix(0.510861 0.859663 -0.999921 -0.0125867 256.993 208.339)" fill="#939393"/>
<ellipse rx="7.23602" ry="8.14052" transform="matrix(0.510861 0.859663 -0.999921 -0.0125867 277.794 208.601)" fill="#939393"/>
<rect x="41.4999" y="121.101" width="53" height="53" rx="0.5" fill="#C4C4C4" stroke="#898989"/>
<rect x="44.8571" y="124.458" width="46.2857" height="46.2857" rx="1" fill="#A47BEA"/>
<ellipse cx="43.6999" cy="171.901" rx="1.15714" ry="1.15714" fill="#8A8A8A"/>
<circle cx="47.557" cy="123.301" r="1.15714" fill="#8A8A8A"/>
<circle cx="92.2999" cy="171.901" r="1.15714" fill="#8A8A8A"/>
<circle cx="93.0713" cy="139.501" r="1.15714" fill="#8A8A8A"/>
<line x1="43.0428" y1="154.544" x2="43.0428" y2="167.658" stroke="#898989"/>
<line x1="43.8142" y1="122.144" x2="43.8142" y2="152.23" stroke="#898989"/>
<line x1="80.3428" y1="122.644" x2="50.2571" y2="122.644" stroke="#898989"/>
<line x1="82.657" y1="172.787" x2="52.5713" y2="172.787" stroke="#898989"/>
<line x1="92.9571" y1="169.201" x2="92.9571" y2="139.115" stroke="#898989"/>
<line x1="92.1856" y1="131.401" x2="92.1856" y2="122.144" stroke="#898989"/>
<rect x="-0.188995" y="0.4826" width="29.4277" height="50.5287" rx="0.5" transform="matrix(0.607325 0.794453 -0.985315 0.170747 162.926 154.178)" fill="#C4C4C4" stroke="#898989"/>
<rect width="26.0809" height="44.1674" rx="1" transform="matrix(0.607325 0.794453 -0.985315 0.170747 160.218 155.982)" fill="#61DAFB"/>
<ellipse rx="0.652022" ry="1.10419" transform="matrix(0.607325 0.794453 -0.985315 0.170747 115.215 163.195)" fill="#8A8A8A"/>
<ellipse rx="0.652022" ry="1.10419" transform="matrix(0.607325 0.794453 -0.985315 0.170747 162.23 157.003)" fill="#8A8A8A"/>
<ellipse rx="0.65202" ry="1.10419" transform="matrix(0.607325 0.794453 -0.985315 0.170747 131.847 184.951)" fill="#8A8A8A"/>
<ellipse rx="0.652021" ry="1.10419" transform="matrix(0.607325 0.794453 -0.985315 0.170747 162.574 180.017)" fill="#8A8A8A"/>
<line y1="-0.5" x2="12.5141" y2="-0.5" transform="matrix(-0.985315 0.170747 -0.607325 -0.794453 131.139 159.848)" stroke="#898989"/>
<line y1="-0.5" x2="28.7088" y2="-0.5" transform="matrix(-0.985315 0.170747 -0.607325 -0.794453 161.866 154.915)" stroke="#898989"/>
<line y1="-0.5" x2="16.9526" y2="-0.5" transform="matrix(-0.607325 -0.794454 0.985315 -0.170747 174.538 171.491)" stroke="#898989"/>
<line y1="-0.5" x2="16.9526" y2="-0.5" transform="matrix(-0.607325 -0.794454 0.985315 -0.170747 128.184 180.697)" stroke="#898989"/>
<line y1="-0.5" x2="28.7088" y2="-0.5" transform="matrix(0.985315 -0.170747 0.607325 0.794453 134.781 185.029)" stroke="#898989"/>
<line y1="-0.5" x2="8.83349" y2="-0.5" transform="matrix(0.985315 -0.170747 0.607325 0.794453 170.058 178.524)" stroke="#898989"/>
<rect x="-0.188995" y="0.4826" width="29.4277" height="50.5287" rx="0.5" transform="matrix(0.607325 0.794453 -0.985315 0.170747 237.907 151.972)" fill="#C4C4C4" stroke="#898989"/>
<rect width="26.0809" height="44.1674" rx="1" transform="matrix(0.607325 0.794453 -0.985315 0.170747 235.199 153.777)" fill="#61C7A6"/>
<ellipse rx="0.652022" ry="1.10419" transform="matrix(0.607325 0.794453 -0.985315 0.170747 190.196 160.989)" fill="#8A8A8A"/>
<ellipse rx="0.652022" ry="1.10419" transform="matrix(0.607325 0.794453 -0.985315 0.170747 237.211 154.797)" fill="#8A8A8A"/>
<ellipse rx="0.65202" ry="1.10419" transform="matrix(0.607325 0.794453 -0.985315 0.170747 206.828 182.745)" fill="#8A8A8A"/>
<ellipse rx="0.652021" ry="1.10419" transform="matrix(0.607325 0.794453 -0.985315 0.170747 237.555 177.812)" fill="#8A8A8A"/>
<line y1="-0.5" x2="12.5141" y2="-0.5" transform="matrix(-0.985315 0.170747 -0.607325 -0.794453 206.12 157.643)" stroke="#898989"/>
<line y1="-0.5" x2="28.7088" y2="-0.5" transform="matrix(-0.985315 0.170747 -0.607325 -0.794453 236.847 152.709)" stroke="#898989"/>
<line y1="-0.5" x2="16.9526" y2="-0.5" transform="matrix(-0.607325 -0.794454 0.985315 -0.170747 249.519 169.285)" stroke="#898989"/>
<line y1="-0.5" x2="16.9526" y2="-0.5" transform="matrix(-0.607325 -0.794454 0.985315 -0.170747 203.165 178.491)" stroke="#898989"/>
<line y1="-0.5" x2="28.7088" y2="-0.5" transform="matrix(0.985315 -0.170747 0.607325 0.794453 209.762 182.823)" stroke="#898989"/>
<line y1="-0.5" x2="8.83349" y2="-0.5" transform="matrix(0.985315 -0.170747 0.607325 0.794453 245.039 176.319)" stroke="#898989"/>
<path d="M41.894 114C38.7872 129.148 44.4007 140.483 49.1951 144C51.9078 144 50.8228 144 52.4504 143.483C53.612 136.204 51.9886 123.618 56 119.69L41.894 114Z" fill="#9B9999" stroke="#575757"/>
</g>
<defs>
<filter id="filter0_d" x="-5.05753" y="147.21" width="287.655" height="53.9666" filterUnits="userSpaceOnUse" color-interpolation-filters="sRGB">
<feFlood flood-opacity="0" result="BackgroundImageFix"/>
<feColorMatrix in="SourceAlpha" type="matrix" values="0 0 0 0 0 0 0 0 0 0 0 0 0 0 0 0 0 0 127 0"/>
<feOffset dy="4"/>
<feGaussianBlur stdDeviation="2"/>
<feColorMatrix type="matrix" values="0 0 0 0 0 0 0 0 0 0 0 0 0 0 0 0 0 0 0.25 0"/>
<feBlend mode="normal" in2="BackgroundImageFix" result="effect1_dropShadow"/>
<feBlend mode="normal" in="SourceGraphic" in2="effect1_dropShadow" result="shape"/>
</filter>
<clipPath id="clipColorSystem">
<rect width="300" height="240" fill="white"/>
</clipPath>
</defs>
</svg>
