<svg width="145" height="104" viewBox="0 0 145 104" fill="none" xmlns="http://www.w3.org/2000/svg">
<g clip-path="url(#clipMountain)">
<path d="M60.5382 6.14214C68.3487 -1.66834 81.012 -1.66835 88.8225 6.14213L139.106 56.426C147.912 65.2321 146.356 79.5415 134.841 84.285C119.567 90.577 101.428 95.895 85.2159 101.174C66.9034 107.137 19.1466 99.1054 5.52847 85.4872V85.4872C-1.19153 78.7672 -1.19154 67.8719 5.52847 61.1519L60.5382 6.14214Z" fill="url(#paint0_linear)" fill-opacity="0.8"/>
<path d="M58.9778 14.8163C66.7883 7.00578 79.4516 7.00578 87.2621 14.8163L99.1424 26.6965C103.945 31.4993 103.038 39.2248 96.6867 41.6329C90.7054 43.9008 83.9823 45.8869 77.8818 47.8598C69.9621 50.4212 49.1675 46.9087 43.2817 41.023V41.023C40.3793 38.1205 40.3793 33.4148 43.2817 30.5124L58.9778 14.8163Z" fill="white"/>
</g>
<defs>
<linearGradient id="paint0_linear" x1="182.5" y1="58.5" x2="-0.500026" y2="68" gradientUnits="userSpaceOnUse">
<stop stop-color="#663797"/>
<stop offset="1" stop-color="#1F4A6B"/>
</linearGradient>
<clipPath id="clipMountain">
<rect width="145" height="104" fill="white"/>
</clipPath>
</defs>
</svg>
