<svg width="20" height="20" viewBox="0 0 20 20" xmlns="http://www.w3.org/2000/svg">
<path d="M20 2.36631C19.2639 2.76787 18.4741 3.0402 17.6442 3.16178C18.4915 2.5371 19.1402 1.54627 19.4476 0.369248C18.6527 0.947741 17.7754 1.3678 16.8406 1.59551C16.092 0.612368 15.0271 0 13.8461 0C11.5803 0 9.74312 2.26171 9.74312 5.04962C9.74312 5.44501 9.77936 5.8312 9.84936 6.20049C6.44001 5.98967 3.41684 3.97877 1.39347 0.923119C1.03977 1.66781 0.838563 2.53553 0.838563 3.46179C0.838563 5.21424 1.56343 6.76051 2.66324 7.66517C1.99085 7.63749 1.35847 7.40978 0.804838 7.03127V7.09436C0.804838 9.54069 2.21958 11.5824 4.09546 12.0471C3.75177 12.1609 3.38935 12.224 3.01442 12.224C2.74948 12.224 2.49327 12.1917 2.24206 12.1301C2.76445 14.138 4.27919 15.5981 6.07387 15.6381C4.67037 16.9921 2.90069 17.7967 0.978564 17.7967C0.647387 17.7967 0.321177 17.7721 0 17.7275C1.81592 19.163 3.97177 20 6.28883 20C13.8362 20 17.9617 12.304 17.9617 5.62968L17.9479 4.97579C18.754 4.26799 19.4513 3.37871 20 2.36631Z"/>
</svg>
